<?xml version="1.0" standalone="no"?>
<!DOCTYPE svg PUBLIC "-//W3C//DTD SVG 1.1//EN" "http://www.w3.org/Graphics/SVG/1.1/DTD/svg11.dtd" >
<svg xmlns="http://www.w3.org/2000/svg" xmlns:xlink="http://www.w3.org/1999/xlink" version="1.1">
<metadata>
Created by FontForge 20201107 at Wed Oct 16 12:42:53 2019
 By 
Copyright 2014 - 2017 Adobe Systems Incorporated (http://www.adobe.com/), with Reserved Font Name 'Source'. Copyright 2019 Google LLC.
</metadata>
<defs>
<font id="DMSerifText-Italic" horiz-adv-x="0" >
  <font-face 
    font-family="DM Serif Text"
    font-weight="400"
    font-style="italic"
    font-stretch="normal"
    units-per-em="1000"
    panose-1="0 0 0 0 0 0 0 0 0 0"
    ascent="800"
    descent="-200"
    x-height="495"
    cap-height="661"
    bbox="-168 -261 1193 916"
    underline-thickness="50"
    underline-position="-100"
    slope="-12"
    unicode-range="U+000D-FB02"
  />
<missing-glyph horiz-adv-x="640" 
d="M80 0v661h480v-661h-480zM196 601l124 -204l124 204h-248zM150 545v-429l130 215zM360 331l130 -215v429zM196 60h248l-124 204z" />
    <glyph glyph-name="f_f" unicode="ff" horiz-adv-x="610" 
d="M-49 -241q-40 0 -72.5 18t-32.5 52q0 25 16.5 39.5t38.5 14.5t40.5 -11.5t35.5 -40.5l9 -20q5 -9 13 -10t15 7q11 21 21 46q14 33 25 80.5t22 108.5q15 98 29.5 199t30.5 210h-83l4 19l37 4q44 6 59 52q31 93 91.5 138t142.5 45q45 0 73 -18.5t28 -47.5q0 -11 -3 -21
q66 87 184 87q50 0 80 -20.5t30 -53.5q0 -25 -16.5 -40.5t-40.5 -15.5q-43 0 -77 61l-8 18q-6 11 -15 12.5t-17 -7.5q-22 -25 -37.5 -69t-27.5 -115h123l-6 -32l-121 3q-16 -103 -31 -207.5t-34 -200.5q-14 -75 -36.5 -130t-60.5 -93q-31 -31 -68.5 -46t-77.5 -15t-73 18
t-33 52q0 25 16.5 39.5t38.5 14.5q23 0 42 -12t35 -40l9 -20q6 -10 14 -10.5t13 7.5q6 11 11 22t10 24q14 33 25.5 80.5t21.5 108.5q15 95 30 197.5t31 209.5l-166 1q-15 -103 -30.5 -207.5t-33.5 -200.5q-14 -75 -37 -130t-61 -93q-31 -31 -68.5 -46t-77.5 -15zM264 480
h118q45 0 60 48q13 41 33 73q-15 -13 -37 -13q-41 0 -70 53l-7 18q-7 11 -16 13t-17 -8q-22 -24 -37 -68.5t-27 -115.5z" />
    <glyph glyph-name="f_i" unicode="fi" horiz-adv-x="584" 
d="M-49 -241q-25 0 -49.5 8t-40 23.5t-15.5 38.5t15 38.5t40 15.5q48 0 76 -50l11 -24q5 -8 12.5 -8.5t13.5 7.5q5 9 10 19.5t11 26.5q14 33 25.5 80.5t21.5 108.5q15 95 29.5 199t30.5 210h-83l4 19l36 4q25 3 39.5 15.5t23.5 36.5q35 89 107.5 136t182.5 47
q62 0 99.5 -20.5t37.5 -54.5q0 -27 -16 -40.5t-39 -13.5q-46 0 -75 56l-7 14q-18 33 -47 29q-34 -1 -62.5 -28t-48.5 -71.5t-30 -100.5h181q22 0 40 2.5t39 7.5l28 6l12 -10l-77 -363q-3 -15 -5 -26.5t-2 -20.5q0 -22 20 -22q17 0 34.5 13t42.5 40l15 -11q-28 -42 -68.5 -76
t-96.5 -34q-31 0 -50.5 15.5t-19.5 45.5q0 17 4 41t9 49l65 311l-176 3q-14 -101 -30 -207t-34 -201q-14 -75 -37 -130t-61 -93q-31 -31 -69.5 -46t-76.5 -15z" />
    <glyph glyph-name="f_l" unicode="fl" horiz-adv-x="587" 
d="M-49 -241q-40 0 -72.5 18t-32.5 52q0 25 16.5 39.5t38.5 14.5q23 0 42 -12t35 -40l7 -16q8 -12 17 -12.5t16 11.5q4 8 8 17t9 22q14 33 25.5 81t21.5 109q15 98 29.5 199t30.5 209h-83l4 20l41 5q24 2 36 16t19 39q27 87 87 133t147 46q49 0 79 -20.5t30 -53.5
q0 -25 -16.5 -40.5t-39.5 -15.5q-44 0 -78 60l-4 11q-9 18 -21 18.5t-20 -13.5q-19 -22 -33 -64t-26 -112h122l-6 -32l-121 2q-15 -103 -30.5 -207t-33.5 -200q-14 -75 -37 -130t-61 -93q-31 -31 -68.5 -46t-77.5 -15zM433 -14q-32 0 -51.5 16.5t-19.5 47.5q0 17 4.5 41.5
t11.5 62.5l59 287q8 36 13 65t12 66q6 42 -34 54l-15 5l3 17l186 54l9 -8l-121 -573q-4 -16 -5.5 -28t-1.5 -20q0 -22 19 -22q23 0 67 43l14 -14q-25 -35 -62 -64.5t-88 -29.5z" />
    <glyph glyph-name=".notdef" horiz-adv-x="640" 
d="M80 0v661h480v-661h-480zM196 601l124 -204l124 204h-248zM150 545v-429l130 215zM360 331l130 -215v429zM196 60h248l-124 204z" />
    <glyph glyph-name=".null" 
 />
    <glyph glyph-name="nonmarkingreturn" horiz-adv-x="333" 
 />
    <glyph glyph-name="CR" unicode="&#xd;" horiz-adv-x="600" 
 />
    <glyph glyph-name="space" unicode=" " horiz-adv-x="222" 
 />
    <glyph glyph-name="exclam" unicode="!" horiz-adv-x="298" 
d="M142 211l3 140q2 98 5.5 158.5t9.5 89.5q8 43 32 61t57 18q35 0 52.5 -18t17.5 -47q0 -19 -8 -47t-25.5 -73t-46.5 -113.5t-72 -168.5h-25zM52 54q0 35 25 59t58 24q31 0 50 -20.5t19 -49.5q0 -34 -25.5 -57.5t-58.5 -23.5q-29 0 -48.5 20t-19.5 48z" />
    <glyph glyph-name="quotedbl" unicode="&#x22;" horiz-adv-x="461" 
d="M231 729q26 0 39.5 -16.5t13.5 -42.5q0 -22 -14.5 -64.5t-35.5 -94.5t-41 -104h-26l-3 76q-1 24 -1.5 57.5t0 66t2.5 52.5q4 37 21.5 53.5t44.5 16.5zM419 729q26 0 39.5 -16.5t13.5 -42.5q0 -22 -14.5 -64.5t-35.5 -94.5t-41 -104h-26l-3 76q-1 24 -1.5 57.5t0 66
t2.5 52.5q4 37 21.5 53.5t44.5 16.5z" />
    <glyph glyph-name="numbersign" unicode="#" horiz-adv-x="578" 
d="M101 0l46 173h-107l9 45h110l57 209h-110l9 45h113l46 173h44l-46 -173h178l47 173h45l-46 -173h104l-10 -45h-106l-57 -209h107l-9 -45h-110l-46 -173h-46l47 173h-179l-46 -173h-44zM203 218h179l56 209h-178z" />
    <glyph glyph-name="dollar" unicode="$" horiz-adv-x="535" 
d="M195 -115l21 102q-79 4 -125 42.5t-46 91.5q0 32 17.5 46t37.5 14q23 0 37.5 -16.5t16.5 -55.5l2 -30q1 -30 19 -45t47 -18l49 243l-32 20q-58 37 -88.5 77t-30.5 101q0 53 26.5 97t78.5 70t128 26l19 91h32l-19 -92q65 -5 105.5 -36t41.5 -82q1 -32 -14 -46.5t-38 -14.5
t-37.5 18t-16.5 52l-1 21q-2 27 -14 40.5t-32 16.5l-49 -240l15 -9q47 -28 77 -54t44.5 -56.5t14.5 -73.5q0 -85 -61 -139.5t-172 -58.5l-21 -102h-32zM227 512q0 -42 20 -67.5t55 -49.5l45 225q-55 -3 -87.5 -30t-32.5 -78zM372 130q0 41 -19 64.5t-54 46.5l-45 -225
q55 3 86.5 33.5t31.5 80.5z" />
    <glyph glyph-name="percent" unicode="%" horiz-adv-x="870" 
d="M238 -19l-32 23l478 651l31 -24zM202 240q-55 0 -90 35.5t-35 106.5q0 77 27 137.5t72.5 95.5t98.5 35q58 0 89 -37.5t31 -105.5q0 -81 -27 -141t-71 -93t-95 -33zM203 262q20 0 38.5 26.5t33.5 68t24 90t9 91.5q0 52 -10.5 70t-26.5 18q-19 0 -37.5 -23t-34 -62
t-25 -87.5t-9.5 -99.5q0 -55 11 -73.5t27 -18.5zM647 -8q-55 0 -90 35.5t-35 106.5q0 77 27 137.5t72.5 95.5t98.5 35q58 0 89 -37.5t31 -105.5q0 -81 -27 -141t-71 -93t-95 -33zM648 14q20 0 38.5 26.5t33.5 68t24 90t9 91.5q0 52 -10.5 70t-26.5 18q-19 0 -37.5 -23
t-34 -62t-25 -87.5t-9.5 -99.5q0 -55 11 -73.5t27 -18.5z" />
    <glyph glyph-name="ampersand" unicode="&#x26;" horiz-adv-x="722" 
d="M331 -15q-129 0 -198.5 59t-69.5 156q0 46 20 89t57 77.5t87 53.5q-21 35 -21 75q0 49 26.5 90.5t74.5 67.5t112 26q70 0 111.5 -25t42.5 -69q1 -20 -12 -35.5t-40 -15.5q-44 0 -65 61l-5 14q-7 20 -21 31.5t-38 6.5q-38 -5 -70 -39.5t-32 -101.5q0 -36 14 -69q13 1 26 1
q49 0 75 -13.5t26 -40.5q0 -20 -14.5 -33t-43.5 -13q-37 0 -68.5 14t-54.5 37q-34 -25 -53 -64t-19 -85q0 -53 24.5 -89t66.5 -54t94 -18q89 0 134.5 31t45.5 77q0 38 -23.5 60t-84.5 27l7 38q92 9 146 58t85 140l91 -41q-37 -78 -91 -122t-146 -58q33 -15 49 -44t16 -62
q0 -56 -33 -101t-91.5 -71t-136.5 -26z" />
    <glyph glyph-name="quotesingle" unicode="'" horiz-adv-x="272" 
d="M231 729q26 0 39.5 -16.5t13.5 -42.5q0 -22 -14.5 -64.5t-35.5 -94.5t-41 -104h-26l-3 76q-1 24 -1.5 57.5t0 66t2.5 52.5q4 37 21.5 53.5t44.5 16.5z" />
    <glyph glyph-name="parenleft" unicode="(" horiz-adv-x="385" 
d="M239 -196q-68 76 -111.5 169t-43.5 209q0 155 82 294.5t245 236.5l18 -26q-127 -106 -184.5 -238.5t-57.5 -280.5q0 -98 20.5 -180t58.5 -165z" />
    <glyph glyph-name="parenright" unicode=")" horiz-adv-x="385" 
d="M182 713q68 -76 111.5 -169t43.5 -209q0 -155 -82 -294.5t-245 -236.5l-18 26q127 106 184.5 238.5t57.5 280.5q0 98 -20.5 180t-58.5 165z" />
    <glyph glyph-name="asterisk" unicode="*" horiz-adv-x="473" 
d="M283 741q40 0 47 -43q2 -14 -1 -51t-6 -96q54 50 86.5 76.5t51.5 26.5q18 0 30.5 -11t12.5 -34q0 -27 -41.5 -43t-126.5 -38q70 -40 104.5 -63t36.5 -47q1 -16 -10 -30t-29 -15q-27 -2 -52 33.5t-69 103.5q-17 -84 -34.5 -127.5t-45.5 -43.5q-16 0 -29 11.5t-13 30.5
q0 22 26 52.5t72 87.5q-90 -12 -139 -7.5t-49 42.5q0 18 12 30.5t31 12.5q20 0 54.5 -14.5t94.5 -37.5q-25 58 -41 95t-16 53q0 17 9.5 31.5t33.5 14.5z" />
    <glyph glyph-name="plus" unicode="+" horiz-adv-x="540" 
d="M262 89v218h-206v36h206v214h39v-214h206v-36h-206v-218h-39z" />
    <glyph glyph-name="comma" unicode="," horiz-adv-x="307" 
d="M8 -161l-8 21q42 18 74 46t52 72l-21 13q-23 14 -37 34t-14 43q0 31 21 54.5t59 23.5q35 0 54 -22t19 -60q0 -46 -24.5 -91.5t-69.5 -81t-105 -52.5z" />
    <glyph glyph-name="hyphen" unicode="-" horiz-adv-x="334" 
d="M52 232v42h250v-42h-250z" />
    <glyph glyph-name="period" unicode="." horiz-adv-x="307" 
d="M127 -13q-33 0 -54 21t-21 51q0 37 27 62t62 25q33 0 53.5 -21.5t20.5 -51.5q0 -37 -26.5 -61.5t-61.5 -24.5z" />
    <glyph glyph-name="slash" unicode="/" horiz-adv-x="368" 
d="M-61 -160l446 870h46l-445 -870h-47z" />
    <glyph glyph-name="zero" unicode="0" horiz-adv-x="535" 
d="M227 -12q-85 0 -135 55.5t-50 161.5q0 95 24 175.5t65.5 140.5t95.5 93.5t114 33.5q85 0 134.5 -55t49.5 -165q0 -97 -24.5 -177.5t-66.5 -139.5t-95.5 -91t-111.5 -32zM233 16q33 0 64 38t56 102t40 141t15 155q0 66 -10 102.5t-26 50.5t-36 14q-32 0 -63 -35
t-56.5 -95.5t-41 -137.5t-15.5 -160q0 -70 9.5 -107.5t26 -52.5t37.5 -15z" />
    <glyph glyph-name="one" unicode="1" horiz-adv-x="379" 
d="M-9 0l4 19l35 9q29 7 45 23t21 45l96 467l-101 -9l4 22q62 10 120 29t110 44l7 -8l-33 -144l-60 -288q-5 -27 -11.5 -57.5t-11.5 -59.5q-11 -51 40 -63l44 -10l-5 -19h-304z" />
    <glyph glyph-name="two" unicode="2" horiz-adv-x="504" 
d="M13 0l16 77l145 132q80 74 125.5 126.5t64.5 95t19 84.5q0 52 -25.5 78.5t-66.5 26.5q-36 0 -64.5 -18.5t-49.5 -60.5l-39 -72h-30l17 141q32 18 78 29t94 11q94 0 147 -38.5t53 -112.5q0 -55 -34 -104t-97.5 -100t-150.5 -112l-113 -82h339l-18 -101h-410z" />
    <glyph glyph-name="three" unicode="3" horiz-adv-x="501" 
d="M205 -14q-59 0 -107.5 15.5t-80.5 39.5l31 133h31l12 -67q8 -47 38 -70t76 -23q54 0 90 41t36 121q0 62 -28.5 97.5t-87.5 35.5h-29l6 28h29q40 0 75 17.5t57 54.5t22 94q0 62 -25.5 90.5t-63.5 28.5q-70 0 -106 -73l-37 -75h-29l23 147q32 14 72 21.5t80 7.5
q95 0 145.5 -39t50.5 -110q0 -61 -47 -110.5t-137 -63.5q80 -11 117 -50.5t37 -102.5q0 -58 -33.5 -100t-90.5 -65t-126 -23z" />
    <glyph glyph-name="four" unicode="4" horiz-adv-x="535" 
d="M249 -19l36 177h-273l15 72l383 413h80l-83 -409h103l-14 -76h-104l-36 -177h-107zM71 234h229l64 313z" />
    <glyph glyph-name="five" unicode="5" horiz-adv-x="490" 
d="M180 -14q-46 0 -87.5 13.5t-68.5 33.5l20 122h28l24 -67q14 -40 38 -57.5t59 -17.5q33 0 62 21.5t47 63.5t18 102q0 62 -28 98.5t-81 36.5q-32 0 -55 -7t-41 -18l-25 10l78 316h328l-21 -105h-295l-50 -182q23 17 58 26.5t66 9.5q89 0 139 -48t50 -127q0 -71 -35.5 -121
t-95.5 -76.5t-132 -26.5z" />
    <glyph glyph-name="six" unicode="6" horiz-adv-x="531" 
d="M238 -14q-90 0 -143 57.5t-53 162.5q0 89 37 167.5t102.5 139.5t153.5 96.5t190 39.5l3 -24q-138 -21 -225 -97.5t-120 -188.5q33 23 66 33.5t72 10.5q78 0 120 -47t42 -121q0 -75 -36 -126t-92 -77t-117 -26zM162 191q0 -97 24 -137.5t67 -40.5q46 0 78.5 50.5
t32.5 135.5q0 138 -101 138q-21 0 -43 -6.5t-46 -23.5q-12 -55 -12 -116z" />
    <glyph glyph-name="seven" unicode="7" horiz-adv-x="444" 
d="M43 0l-7 10l409 527h-360l20 99h411l-14 -69l-341 -567h-118z" />
    <glyph glyph-name="eight" unicode="8" horiz-adv-x="489" 
d="M206 -14q-85 0 -135 37.5t-50 99.5q0 60 43.5 106t119.5 76q-92 74 -92 167q0 52 26.5 92t72.5 63t106 23q83 0 128 -35t45 -93t-37 -99t-112 -74q57 -42 84 -81t27 -96q0 -55 -30.5 -97t-82 -65.5t-113.5 -23.5zM191 520q0 -42 24.5 -76t86.5 -80q49 36 67.5 72.5
t18.5 80.5q0 52 -25.5 78.5t-67.5 26.5q-47 0 -75.5 -28t-28.5 -74zM107 129q0 -52 28 -84t78 -32q49 0 82 30.5t33 80.5q0 30 -11 54t-38 50t-76 62q-46 -28 -71 -68t-25 -93z" />
    <glyph glyph-name="nine" unicode="9" horiz-adv-x="525" 
d="M65 -17l-5 25q132 44 210 113.5t109 169.5q-30 -20 -62 -31t-65 -11q-78 0 -125.5 46.5t-47.5 120.5q0 66 33 119t88.5 84t121.5 31q92 0 143.5 -58t51.5 -162q0 -81 -32.5 -153.5t-93 -131t-143 -100.5t-183.5 -62zM191 428q0 -65 28 -100t77 -35q43 0 91 26
q15 61 15 136q0 81 -21 124t-64 43q-33 0 -62 -25t-46.5 -68.5t-17.5 -100.5z" />
    <glyph glyph-name="colon" unicode=":" horiz-adv-x="319" 
d="M126 -13q-33 0 -54 21t-21 51q0 37 27 62t62 25q33 0 53.5 -21.5t20.5 -51.5q0 -37 -26.5 -61.5t-61.5 -24.5zM200 331q-33 0 -54 21t-21 51q0 37 27 62t62 25q33 0 53.5 -21.5t20.5 -51.5q0 -37 -26.5 -61.5t-61.5 -24.5z" />
    <glyph glyph-name="semicolon" unicode=";" horiz-adv-x="319" 
d="M200 331q-33 0 -54 21t-21 51q0 37 27 62t62 25q33 0 53.5 -21.5t20.5 -51.5q0 -37 -26.5 -61.5t-61.5 -24.5zM9 -161l-8 21q42 18 74 46t52 72l-21 13q-23 14 -37 34t-14 43q0 31 21 54.5t59 23.5q35 0 54 -22t19 -60q0 -46 -24.5 -91.5t-69.5 -81t-105 -52.5z" />
    <glyph glyph-name="less" unicode="&#x3c;" horiz-adv-x="540" 
d="M458 89l-384 218v37l384 219l21 -39l-356 -198l356 -199z" />
    <glyph glyph-name="equal" unicode="=" horiz-adv-x="540" 
d="M61 204v36h452v-36h-452zM61 410v36h452v-36h-452z" />
    <glyph glyph-name="greater" unicode="&#x3e;" horiz-adv-x="540" 
d="M120 562l384 -218v-37l-384 -219l-21 39l356 198l-356 199z" />
    <glyph glyph-name="question" unicode="?" horiz-adv-x="456" 
d="M146 191l10 178q104 20 161 67t57 114q0 53 -20.5 77.5t-51.5 24.5t-49.5 -17.5t-27.5 -50.5l-5 -17q-6 -26 -20.5 -42.5t-43.5 -16.5q-23 0 -38 16t-15 41q0 33 25.5 59t69 40.5t95.5 14.5q89 0 143.5 -36.5t54.5 -119.5q0 -66 -38 -113t-104.5 -76.5t-151.5 -44.5
l-23 -98h-28zM142 -14q-31 0 -49.5 19t-18.5 46q0 33 24 56.5t55 23.5q30 0 48.5 -20t18.5 -47q0 -33 -24 -55.5t-54 -22.5z" />
    <glyph glyph-name="at" unicode="@" horiz-adv-x="864" 
d="M336 40q-35 0 -64.5 26.5t-29.5 87.5q0 49 18.5 98t49.5 92.5t69 77.5t78 53.5t76 19.5q31 0 58 -30l69 34l11 -10l-77 -345q-7 -35 0 -49t26 -14q23 0 51.5 18t55.5 54t44.5 88t17.5 119q0 122 -66 194t-187 72q-88 0 -162.5 -34.5t-128.5 -95t-84 -139.5t-30 -169
q0 -143 74 -223t206 -80q44 0 83.5 7.5t77.5 22.5l8 -26q-45 -20 -93 -31.5t-104 -11.5q-101 0 -174 43t-112 117.5t-39 169.5q0 98 35 184.5t99.5 153t153.5 104.5t197 38q105 0 172.5 -40.5t100 -107.5t32.5 -148q0 -76 -26 -135.5t-67.5 -100.5t-88.5 -62.5t-89 -21.5
q-53 0 -73.5 26.5t-17.5 66.5q-37 -42 -76.5 -67.5t-73.5 -25.5zM351 201q1 -45 14.5 -66t36.5 -21t43 13t47 45l56 254q-12 10 -24 13t-29 3q-33 0 -66.5 -29t-55.5 -83t-22 -129z" />
    <glyph glyph-name="A" unicode="A" horiz-adv-x="654" 
d="M-22 0l5 21l30 8q39 10 59 47l305 585h80l91 -583q6 -37 42 -49l24 -8l-5 -21h-244l4 21l19 6q35 11 31 48l-22 151h-214l-79 -152q-16 -35 19 -45l26 -8l-4 -21h-167zM351 551l-153 -296h195z" />
    <glyph glyph-name="B" unicode="B" horiz-adv-x="601" 
d="M4 0l4 21l17 7q36 14 43 53l52 270q11 55 21 113.5t20 114.5q7 42 -33 57l-10 4l5 21h238q78 0 124 -21t66.5 -54.5t20.5 -73.5q0 -57 -49.5 -103.5t-147.5 -58.5q98 -13 142.5 -60t44.5 -106q0 -49 -30 -91t-93 -67.5t-164 -25.5h-271zM251 362h38q77 0 116 39.5
t39 110.5q0 57 -27.5 88.5t-80.5 31.5h-34zM192 29h62q89 0 132.5 48t43.5 124q0 133 -134 133h-50l-5 -24q-12 -70 -25 -140t-24 -141z" />
    <glyph glyph-name="C" unicode="C" horiz-adv-x="599" 
d="M350 -17q-91 0 -158.5 34.5t-104.5 100t-37 158.5q0 83 28.5 156t81 128.5t123.5 87t156 31.5q50 0 95 -11t92 -37l-24 -153h-27l-25 97q-10 42 -35.5 58t-69.5 16q-77 0 -135.5 -47.5t-91 -132t-32.5 -195.5q0 -121 49.5 -191.5t140.5 -70.5q38 0 60.5 14.5t39.5 43.5
l64 112h27l-24 -152q-40 -20 -84 -33.5t-109 -13.5z" />
    <glyph glyph-name="D" unicode="D" horiz-adv-x="663" 
d="M4 0l4 21l14 5q40 15 47 54l51 271q10 53 20.5 113.5t20.5 116.5q6 40 -31 54l-12 5l5 21h229q100 0 168.5 -35.5t103.5 -98.5t35 -144q0 -91 -32 -162t-87.5 -120.5t-128 -75t-153.5 -25.5h-254zM191 29h59q86 0 146.5 48.5t92.5 130.5t32 183q0 119 -48 178t-139 63
h-32l-61 -322l-26 -140t-24 -141z" />
    <glyph glyph-name="E" unicode="E" horiz-adv-x="557" 
d="M4 0l4 21l17 5q35 10 43 48l52 277q10 53 20.5 114t20.5 117q7 41 -33 55l-10 3l5 21h448l-25 -174h-26l-18 82q-7 32 -24.5 47t-52.5 15h-123l-52 -277h85q43 0 68 37l31 46h21l-36 -193h-21l-11 37q-13 44 -58 44h-85q-13 -70 -27 -146t-25 -149h155q31 0 53 12t41 41
l60 91h26l-40 -174h-483z" />
    <glyph glyph-name="F" unicode="F" horiz-adv-x="525" 
d="M4 0l4 21l19 7q34 11 41 47l52 276q10 53 20.5 114.5t20.5 117.5q7 40 -32 54l-11 3l5 21h459l-28 -174h-26l-20 79q-9 35 -28 50t-56 15h-122l-52 -276h75q25 0 41.5 9t31.5 28l37 49h21l-38 -206h-21l-14 42q-8 25 -22.5 36.5t-41.5 11.5h-75q-11 -56 -22.5 -123
t-21.5 -125q-8 -38 29 -49l22 -7l-4 -21h-243z" />
    <glyph glyph-name="G" unicode="G" horiz-adv-x="648" 
d="M356 -16q-143 0 -224.5 77t-81.5 214q0 86 29.5 159.5t82.5 128.5t124 85.5t154 30.5q54 0 101.5 -12t93.5 -37l-24 -156h-26l-29 92q-13 48 -36 65.5t-71 17.5q-78 0 -137 -49t-92 -134.5t-33 -194.5q0 -81 23.5 -138.5t63 -88.5t88.5 -31q26 0 44 9.5t23 37.5l5 27
q5 32 11.5 70t11.5 75q9 54 -44 68l-22 6l4 20h266l-4 -20l-19 -7q-41 -13 -48 -55l-42 -218q-44 -20 -88.5 -31t-103.5 -11z" />
    <glyph glyph-name="H" unicode="H" horiz-adv-x="699" 
d="M4 0l4 21l20 6q33 9 39 44l53 280q10 53 21 115.5t21 119.5q7 37 -30 50l-14 4l5 21h240l-4 -21l-22 -6q-37 -11 -43 -47l-43 -232h256q9 50 20 112.5t20 117.5q6 39 -32 51l-13 4l4 21h240l-4 -21l-19 -6q-36 -9 -44 -47l-52 -277q-10 -55 -21 -114t-22 -124
q-5 -35 28 -44l20 -7l-4 -21h-243l4 21l25 7q32 9 38 42l48 255h-256q-11 -56 -22.5 -120.5t-22.5 -132.5q-6 -34 26 -45l17 -6l-5 -21h-233z" />
    <glyph glyph-name="I" unicode="I" horiz-adv-x="310" 
d="M4 0l4 21l25 9q14 4 22.5 14.5t11.5 23.5l53 283q10 55 21.5 118.5t20.5 121.5q3 14 -4.5 26.5t-21.5 16.5l-18 6l5 21h235l-5 -21l-24 -8q-29 -8 -34 -38l-54 -284q-10 -55 -21 -118t-22 -120q-2 -15 5 -27t20 -17l21 -7l-5 -21h-235z" />
    <glyph glyph-name="J" unicode="J" horiz-adv-x="388" 
d="M69 -17q-40 0 -65 16.5t-25 46.5q0 25 16.5 40.5t41.5 15.5q21 0 41.5 -11.5t35.5 -47.5q9 -14 19.5 -14t17.5 13q25 40 39 122q13 77 28 189q8 47 17.5 104t19.5 121q6 41 -33 56l-18 6l4 21h244l-4 -21l-16 -6q-38 -15 -44 -54l-44 -248q-15 -81 -31.5 -129.5
t-36.5 -82.5q-37 -67 -92.5 -102t-114.5 -35z" />
    <glyph glyph-name="K" unicode="K" horiz-adv-x="635" 
d="M385 0l3 21l10 3q35 13 16 44l-168 277l274 248q14 13 12.5 25.5t-18.5 18.5l-9 3l4 21h163l-4 -21l-15 -4q-31 -9 -53.5 -21t-46.5 -34l-204 -184l202 -320q25 -40 67 -53l9 -3l-3 -21h-239zM2 0l4 21l15 5q36 12 43 49l52 276q11 54 21.5 116t20.5 120q6 37 -30 49
l-11 4l4 21h237l-4 -21l-19 -5q-39 -12 -46 -50l-59 -316q-7 -41 -17 -94.5t-18 -100.5q-6 -37 30 -49l14 -4l-5 -21h-232z" />
    <glyph glyph-name="L" unicode="L" horiz-adv-x="536" 
d="M4 0l3 21l17 5q36 11 43 47l53 278q10 53 21 114.5t20 118.5q7 38 -31 52l-11 4l4 21h241l-3 -21l-23 -6q-38 -11 -45 -49l-52 -275q-12 -64 -25 -140t-24 -140h111q41 0 70 14.5t51 48.5l70 100h26l-41 -193h-475z" />
    <glyph glyph-name="M" unicode="M" horiz-adv-x="844" 
d="M-13 0l4 21l21 5q44 12 51 55l92 493l-2 7q1 39 -32 55l-7 4l4 21h167l130 -496l297 496h175l-3 -21l-18 -7q-37 -13 -44 -53l-48 -268q-11 -61 -21.5 -119t-20.5 -117q-7 -40 35 -53l9 -2l-4 -21h-233l3 21l10 3q42 10 49 53l86 470l-327 -547h-38l-141 541l-83 -459
q-9 -43 34 -57l16 -4l-4 -21h-157z" />
    <glyph glyph-name="N" unicode="N" horiz-adv-x="633" 
d="M470 -5l-283 536l-85 -450q-8 -41 32 -55l18 -5l-4 -21h-152l4 21l21 7q40 12 47 52l96 505l-9 17q-7 14 -16 21.5t-23 14.5l-7 2l4 21h151l259 -486l77 409q7 39 -30 51l-15 5l4 21h145l-4 -21l-20 -6q-39 -12 -46 -51l-110 -588h-54z" />
    <glyph glyph-name="O" unicode="O" horiz-adv-x="666" 
d="M300 -17q-72 0 -127.5 31.5t-87.5 92.5t-32 151q0 83 26 158.5t74.5 134.5t116 93t150.5 34q75 0 130.5 -33.5t86.5 -95t31 -145.5q0 -85 -26 -161t-74.5 -134.5t-116 -92t-151.5 -33.5zM310 13q46 0 86.5 32.5t71.5 89.5t48.5 131.5t17.5 159.5q0 107 -28 164.5
t-93 57.5q-46 0 -87 -32t-72.5 -88t-49.5 -130.5t-18 -159.5q0 -108 30 -166.5t94 -58.5z" />
    <glyph glyph-name="P" unicode="P" horiz-adv-x="555" 
d="M4 0l4 21l11 3q41 12 50 55l51 272q11 54 21 110.5t21 120.5q6 43 -34 55l-10 3l5 21h215q127 0 185 -49.5t58 -129.5q0 -60 -33.5 -111t-100.5 -82t-168 -31h-47q-7 -40 -15 -85t-16 -92q-9 -44 35 -57l13 -3l-4 -21h-241zM238 288h39q79 0 125.5 52.5t46.5 143.5
q0 72 -31 110t-89 38h-27l-32 -172z" />
    <glyph glyph-name="Q" unicode="Q" horiz-adv-x="666" 
d="M300 -17q-48 0 -88 14l-53 -58q54 -14 126.5 -33t147.5 -37q37 -8 67 8l35 17l12 -18l-60 -50q-30 -25 -55.5 -37.5t-51.5 -12.5q-15 0 -44 6t-65.5 15t-74.5 19t-72 18q-37 9 -67 -14l-14 -10l-19 13l157 187q-59 29 -93.5 91.5t-34.5 156.5q0 83 26 158.5t74.5 134.5
t116 93t150.5 34q75 0 130.5 -33.5t86.5 -95t31 -145.5q0 -85 -26 -161t-74.5 -134.5t-116 -92t-151.5 -33.5zM310 13q46 0 86.5 32.5t71.5 89.5t48.5 131.5t17.5 159.5q0 107 -28 164.5t-93 57.5q-46 0 -87 -32t-72.5 -88t-49.5 -130.5t-18 -159.5q0 -108 30 -166.5
t94 -58.5z" />
    <glyph glyph-name="R" unicode="R" horiz-adv-x="636" 
d="M4 0l4 21l14 5q40 12 47 53l51 272q10 56 20.5 115t20.5 116q7 41 -32 55l-11 3l5 21h249q111 0 165 -41.5t54 -112.5q0 -62 -43 -110.5t-123 -69.5l102 -251q14 -37 51 -52l10 -3l-5 -21h-172l-105 305h-66q-10 -52 -19.5 -109t-20.5 -118q-7 -39 32 -53l12 -4l-4 -21
h-236zM246 334h53q82 1 122.5 47t40.5 124q0 127 -114 127h-46z" />
    <glyph glyph-name="S" unicode="S" horiz-adv-x="498" 
d="M213 -17q-50 0 -100.5 13t-85.5 35l22 147h27l25 -77q14 -47 40 -67.5t75 -20.5q58 0 92 33t34 82q0 25 -8 47.5t-30 47t-65 55.5q-53 38 -82.5 72.5t-40.5 67.5t-11 66q0 58 30 102t83 68.5t121 24.5q47 0 96 -13t83 -36l-26 -141h-28l-16 65q-13 50 -38 72t-74 22
q-48 0 -83.5 -28t-35.5 -78q0 -41 22.5 -75t80.5 -77q80 -58 110 -105t30 -100q0 -62 -31.5 -107.5t-87 -70t-128.5 -24.5z" />
    <glyph glyph-name="T" unicode="T" horiz-adv-x="595" 
d="M134 0l4 21l24 7q45 15 54 62l49 261q12 64 25.5 140t23.5 140h-44q-65 0 -101 -53l-70 -100h-26l38 183h549l-32 -183h-25l-30 91q-19 62 -85 62h-41l-61 -321q-10 -51 -20 -108t-20 -111q-7 -49 39 -66l15 -4l-4 -21h-262z" />
    <glyph glyph-name="U" unicode="U" horiz-adv-x="627" 
d="M304 -17q-100 0 -161.5 49.5t-61.5 148.5q0 22 3 46t7 49l15 82q9 50 19.5 107.5t20.5 111.5q7 47 -38 61l-8 2l4 21h247l-4 -21l-11 -3q-44 -13 -53 -58l-56 -297q-4 -23 -7 -46.5t-3 -48.5q0 -65 34.5 -101.5t95.5 -36.5q79 0 124.5 51t63.5 146l63 332q9 46 -36 60
l-7 2l4 21h141l-4 -21l-9 -3q-44 -12 -53 -58l-63 -343q-22 -121 -89.5 -187t-177.5 -66z" />
    <glyph glyph-name="V" unicode="V" horiz-adv-x="604" 
d="M227 -5l-97 588q-7 40 -43 56l-5 1l4 21h231l-3 -20l-12 -4q-39 -13 -33 -54l64 -442l225 446q19 38 -22 51l-8 3l3 20h143l-4 -21l-11 -3q-44 -14 -67 -55l-301 -587h-64z" />
    <glyph glyph-name="W" unicode="W" horiz-adv-x="873" 
d="M183 -5l-56 593q-3 36 -39 48l-11 4l4 21h234l-5 -21l-20 -6q-34 -9 -31 -46l30 -435l187 372l-7 63q-4 35 -38 46l-19 6l4 21h235l-4 -21l-25 -7q-35 -12 -30 -47l48 -437l196 438q14 35 -20 47l-17 6l4 21h149l-5 -21l-21 -6q-37 -11 -53 -48l-265 -591h-69l-55 468
l-232 -468h-69z" />
    <glyph glyph-name="X" unicode="X" horiz-adv-x="620" 
d="M-3 0l4 21l30 9q39 11 65 43l188 229l-117 283q-16 41 -57 52l-11 3l4 21h249l-4 -21l-16 -5q-19 -4 -25 -17t1 -30l79 -191l157 195q11 14 7.5 26t-20.5 18l-13 4l4 21h151l-4 -21l-22 -6q-40 -12 -65 -43l-183 -224l118 -287q17 -39 57 -53l17 -6l-4 -21h-246l5 21l9 4
q37 14 22 51l-81 195l-159 -198q-12 -15 -8 -27.5t22 -17.5l23 -7l-4 -21h-173z" />
    <glyph glyph-name="Y" unicode="Y" horiz-adv-x="568" 
d="M132 0l4 21l24 7q39 10 46 51l37 190l-108 321q-12 36 -46 46l-12 4l4 21h245l-4 -21l-18 -5q-35 -9 -25 -44l82 -273l171 276q8 14 4 25.5t-20 15.5l-17 5l4 21h143l-4 -21l-20 -6q-37 -10 -56 -42l-191 -307q-8 -46 -18.5 -102t-18.5 -106q-8 -38 31 -50l22 -6l-5 -21
h-254z" />
    <glyph glyph-name="Z" unicode="Z" horiz-adv-x="542" 
d="M-4 0l5 25l441 606h-153q-34 0 -60 -12t-47 -40l-79 -101h-26l39 183h479l-5 -26l-442 -605h160q41 0 70.5 14.5t53.5 47.5l70 91h27l-39 -183h-494z" />
    <glyph glyph-name="bracketleft" unicode="[" horiz-adv-x="342" 
d="M26 -159q18 77 34.5 157t32.5 160l47 240q16 79 31.5 158.5t28.5 158.5h213l-7 -32l-109 -12q-14 -67 -28 -135.5t-28 -137.5l-47 -240q-14 -68 -27.5 -136.5t-25.5 -136.5l104 -12l-6 -32h-213z" />
    <glyph glyph-name="backslash" unicode="\" horiz-adv-x="358" 
d="M266 -160h-41l-89 870h41z" />
    <glyph glyph-name="bracketright" unicode="]" horiz-adv-x="342" 
d="M360 715q-18 -77 -34.5 -157t-32.5 -160l-47 -240q-16 -79 -31.5 -158.5t-28.5 -158.5h-213l7 32l109 12q14 67 28 135.5t28 137.5l47 240q14 68 27.5 136.5t25.5 136.5l-104 12l6 32h213z" />
    <glyph glyph-name="asciicircum" unicode="^" horiz-adv-x="540" 
d="M102 221l32 87l150 189l75 -76l109 -202l-65 63l-127 151l-15 -74z" />
    <glyph glyph-name="underscore" unicode="_" horiz-adv-x="534" 
d="M8 -51v42h450v-42h-450z" />
    <glyph glyph-name="grave" unicode="`" horiz-adv-x="400" 
d="M367 552l-18 -12q-28 29 -57 57t-57 56q-21 20 -31.5 36t-10.5 37q0 23 16 36.5t36 13.5q21 0 38 -15.5t28 -51.5q14 -40 28 -78.5t28 -78.5z" />
    <glyph glyph-name="a" unicode="a" horiz-adv-x="554" 
d="M152 -14q-41 0 -73.5 30t-32.5 102q0 53 20.5 107t55 102.5t77.5 86t88.5 59.5t86.5 22q20 0 37.5 -8t32.5 -21l75 33l11 -7l-85 -373q-8 -32 -8 -47q0 -21 20 -21q14 0 31 11.5t38 31.5l12 -12q-15 -23 -37 -45t-49.5 -36.5t-57.5 -14.5q-31 0 -52 19.5t-21 60.5
q0 14 2 30q-41 -46 -86 -78t-85 -32zM162 164q0 -51 16.5 -73.5t44.5 -22.5q24 0 49 15.5t56 46.5q1 6 3 16l62 282q-13 13 -30 18.5t-32 5.5q-41 0 -90 -51q-35 -38 -57 -103.5t-22 -133.5z" />
    <glyph glyph-name="b" unicode="b" horiz-adv-x="505" 
d="M162 -14q-47 0 -76.5 25.5t-29.5 77.5q0 36 8 79t17 88l62 309q8 43 -33 55l-17 6l3 17l186 54l9 -8l-66 -309q41 52 91.5 83.5t94.5 31.5t72 -30.5t28 -102.5q0 -56 -20 -110.5t-54.5 -102.5t-79 -84.5t-94.5 -57.5t-101 -21zM170 85q0 -25 11.5 -41t33.5 -16
q53 0 102 61q21 26 37.5 64t26 81.5t9.5 83.5q0 51 -15 76.5t-41 25.5q-25 0 -53.5 -19.5t-60.5 -54.5l-25 -114q-12 -55 -18.5 -90.5t-6.5 -56.5z" />
    <glyph glyph-name="c" unicode="c" horiz-adv-x="449" 
d="M217 -14q-73 0 -119.5 49t-46.5 139q0 64 22.5 122t61.5 102.5t90 70.5t108 26q35 0 64.5 -11t47.5 -30t17 -45t-17 -41t-40 -15q-27 0 -43.5 15t-27.5 37l-7 16q-13 29 -25 33t-35 -15q-26 -23 -49.5 -60.5t-37.5 -83.5t-14 -95q0 -71 32 -105t85 -34q36 0 70 22.5
t63 60.5l16 -13q-20 -38 -53 -71.5t-74 -53.5t-88 -20z" />
    <glyph glyph-name="d" unicode="d" horiz-adv-x="548" 
d="M146 -14q-39 0 -69 30.5t-30 105.5q0 52 19.5 105t53 101t75.5 85.5t88 59.5t89 22q21 0 39 -7l15 77q9 45 -33 59l-20 7l3 17l184 54l9 -8l-121 -575q-3 -16 -5 -27t-2 -21q0 -21 19 -21q11 0 30 12t39 34l14 -15q-24 -37 -64 -66t-85 -29q-32 0 -50.5 20t-18.5 53
q-1 17 2 40q-41 -50 -90 -81.5t-91 -31.5zM165 158q0 -50 16.5 -72t42.5 -22q24 0 50.5 17.5t59.5 55.5v2l59 289q-26 22 -59 22q-25 0 -47.5 -12t-41.5 -33q-23 -25 -41.5 -66.5t-28.5 -89t-10 -91.5z" />
    <glyph glyph-name="e" unicode="e" horiz-adv-x="450" 
d="M218 -14q-74 0 -120.5 48t-46.5 139q0 63 22 121t60.5 103.5t90.5 71.5t112 26q62 0 94.5 -28t32.5 -75q0 -57 -75.5 -112.5t-218.5 -86.5q3 -65 31 -95t77 -30q44 0 79 23t59 54l15 -11q-20 -38 -51.5 -72t-71.5 -55t-89 -21zM326 461q-23 0 -49 -19.5t-49.5 -53
t-39.5 -77t-19 -92.5q112 33 157.5 82t45.5 104q0 29 -13 42.5t-33 13.5z" />
    <glyph glyph-name="f" unicode="f" horiz-adv-x="327" 
d="M-49 -241q-40 0 -72.5 18t-32.5 52q0 25 16.5 39.5t38.5 14.5q23 0 42 -12t35 -40l7 -16q8 -12 17 -12.5t16 11.5q4 8 8 17t9 22q14 33 25.5 81t21.5 109q15 98 29.5 199t30.5 209h-83l4 20l41 5q24 2 36 16t19 39q27 87 87 133t147 46q49 0 79 -20.5t30 -53.5
q0 -25 -16.5 -40.5t-39.5 -15.5q-44 0 -78 60l-4 11q-9 18 -21 18.5t-20 -13.5q-19 -22 -33 -64t-26 -112h122l-6 -32l-121 2q-15 -103 -30.5 -207t-33.5 -200q-14 -75 -37 -130t-61 -93q-31 -31 -68.5 -46t-77.5 -15z" />
    <glyph glyph-name="g" unicode="g" horiz-adv-x="517" 
d="M151 -237q-82 0 -130.5 26t-48.5 77q0 30 20.5 56t52.5 46t66 32q-31 10 -48.5 26t-17.5 39q0 24 27 55t65 61q-28 20 -42.5 49t-14.5 63q0 54 28 100t74.5 74t103.5 28q75 0 120 -39q62 8 117 39l9 -9l-10 -52h-95q21 -31 21 -72q0 -62 -26 -109.5t-72.5 -74
t-108.5 -26.5q-47 0 -83 17l-16 -25q-9 -13 -5 -25t22 -16l158 -32q83 -17 116.5 -43.5t33.5 -73.5q0 -55 -41.5 -98t-112.5 -68t-162 -25zM258 177q35 0 59 38t24 127q0 61 -18 94.5t-45 33.5q-42 -1 -63 -45.5t-21 -117.5q0 -54 15 -92.5t49 -37.5zM71 -100
q0 -46 35.5 -73t96.5 -27q77 0 120.5 26t43.5 72q0 29 -25 45.5t-89 29.5l-121 22v0q-28 -18 -44.5 -41.5t-16.5 -53.5z" />
    <glyph glyph-name="h" unicode="h" horiz-adv-x="538" 
d="M35 -7l-8 8l92 440q7 35 12.5 64.5t12.5 65.5q8 43 -35 55l-14 5l3 17l183 54l9 -8l-67 -316q50 51 106 84t103 33q32 0 52 -19.5t20 -59.5q0 -22 -4 -44.5t-10 -46.5l-49 -198q-4 -19 -7.5 -32.5t-3.5 -21.5q0 -21 17 -21q25 0 68 41l13 -13q-24 -35 -64 -64.5
t-90 -29.5q-32 0 -49.5 15t-17.5 41q0 21 5 42.5t11 46.5l44 173q7 26 12 48t5 38q0 36 -32 36q-51 0 -133 -79l-29 -134q-13 -60 -22.5 -110t-17.5 -103z" />
    <glyph glyph-name="i" unicode="i" horiz-adv-x="279" 
d="M213 554q-28 0 -48 18t-20 49q0 33 24 55t54 22q29 0 48 -18.5t19 -47.5q0 -32 -23.5 -55t-53.5 -23zM121 -14q-30 0 -49.5 15.5t-19.5 45.5q0 17 4 41t9 49l47 226q9 42 -31 57l-14 6l2 18l180 52l10 -10l-76 -357q-4 -17 -6 -29.5t-2 -23.5q0 -22 20 -22q24 0 63 38
l13 -13q-25 -37 -62.5 -65t-87.5 -28z" />
    <glyph glyph-name="j" unicode="j" horiz-adv-x="280" 
d="M234 554q-28 0 -47.5 18t-19.5 49q0 33 23.5 55t53.5 22q29 0 48 -18.5t19 -47.5q0 -32 -23.5 -55t-53.5 -23zM-61 -240l-4 19q24 10 43 22t33 36q19 30 34 80t30 133l59 312q7 43 -33 59l-13 5l2 18l177 52l11 -10l-86 -436q-30 -148 -101 -218q-28 -31 -66 -49.5
t-86 -22.5z" />
    <glyph glyph-name="k" unicode="k" horiz-adv-x="481" 
d="M39 -8l-13 10l92 439q7 34 13 65.5t12 64.5q6 42 -33 54l-16 5l3 18l184 54l8 -9l-100 -480q-13 -60 -22 -110t-18 -103zM310 0q-13 14 -25 40t-22 50l-64 162l251 237q26 -1 44 -16t18 -43q0 -25 -20 -42t-50 -32l-192 -97l164 -203q18 -23 43 -35l8 -4l-3 -17h-152z
" />
    <glyph glyph-name="l" unicode="l" horiz-adv-x="269" 
d="M115 -14q-32 0 -51.5 16.5t-19.5 47.5q0 17 4.5 41.5t11.5 62.5l59 287q8 36 13 65t12 66q6 42 -34 54l-15 5l3 17l186 54l9 -8l-121 -573q-4 -16 -5.5 -28t-1.5 -20q0 -22 19 -22q23 0 67 43l14 -14q-25 -35 -62 -64.5t-88 -29.5z" />
    <glyph glyph-name="m" unicode="m" horiz-adv-x="815" 
d="M159 0l-114 -7l-9 8l76 363q9 41 -30 55l-16 7l3 17l176 53l12 -10l-20 -104q50 51 103.5 82t99.5 31q32 0 52 -19.5t20 -59.5q0 -16 -3 -35q50 51 102 82.5t98 31.5q32 0 52 -19.5t20 -59.5q0 -22 -4 -44.5t-10 -46.5l-51 -205l-7 -28t-3 -20q0 -21 17 -21
q14 0 31.5 11.5t37.5 31.5l14 -14q-14 -22 -37 -43.5t-52.5 -36t-66.5 -14.5q-31 0 -49 15t-18 41q0 21 5 42.5t12 46.5l41 168q6 25 10.5 47t4.5 36q0 36 -32 36q-47 0 -121 -71l-1 -2l-28 -132q-11 -53 -21 -106t-21 -107l-113 -7l-9 8l67 315q3 18 6 35t3 30q0 34 -30 34
q-52 0 -126 -67l-30 -135q-11 -53 -21 -106t-20 -107z" />
    <glyph glyph-name="n" unicode="n" horiz-adv-x="546" 
d="M46 -8l-10 9l76 363q9 40 -30 56l-15 6l2 17l177 53l11 -10l-22 -113q52 55 106 88.5t101 33.5q32 0 52.5 -19.5t20.5 -59.5q0 -22 -4 -44.5t-10 -46.5l-51 -205q-4 -16 -6.5 -27.5t-2.5 -19.5q0 -21 17 -21q26 0 66 42l14 -14q-25 -37 -65 -65.5t-89 -28.5q-31 0 -49 15
t-18 41q0 21 5 42.5t12 46.5l39 158q8 30 13 54t5 43q0 20 -8.5 27.5t-22.5 7.5q-24 0 -57.5 -20.5t-75.5 -64.5l-27 -123q-11 -53 -21 -106t-20 -107z" />
    <glyph glyph-name="o" unicode="o" horiz-adv-x="519" 
d="M234 -14q-51 0 -93 20t-67 61.5t-25 104.5q0 64 21.5 122t60 103.5t90 71.5t110.5 26q79 0 131 -45.5t52 -140.5q0 -63 -21.5 -121t-59.5 -103.5t-89 -72t-110 -26.5zM246 14q32 0 58 27.5t45 72.5t29.5 100.5t10.5 110.5q0 79 -18.5 110t-47.5 31q-32 0 -59.5 -26.5
t-47.5 -71.5t-31 -99.5t-11 -110.5q0 -81 20.5 -112.5t51.5 -31.5z" />
    <glyph glyph-name="p" unicode="p" horiz-adv-x="517" 
d="M205 -14q-27 0 -51 11q-10 -49 -17.5 -87.5t-13.5 -73.5q-6 -34 27 -43l25 -6l-4 -18h-234l4 18l18 4q36 11 43 45l111 529q7 40 -30 55l-16 6l2 18l176 52l12 -9l-21 -104q40 50 91 81t94 31q41 0 70.5 -29t29.5 -104q0 -54 -18.5 -108t-50.5 -102.5t-73 -85.5
t-85.5 -58.5t-88.5 -21.5zM339 418q-23 0 -52 -18.5t-59 -51.5l-56 -277q36 -34 74 -34q61 0 102 65q15 24 27.5 59.5t20 76.5t7.5 79q0 49 -16 75t-48 26z" />
    <glyph glyph-name="q" unicode="q" horiz-adv-x="518" 
d="M146 -14q-40 -1 -69.5 30t-29.5 106q0 52 20 105t54 101t76.5 85.5t89 59.5t90.5 22q41 0 75 -27l69 33l11 -8l-107 -516q-7 -35 -14 -71t-13 -71q-6 -33 27 -42l25 -6l-4 -18h-241l3 18l26 6q37 9 44 46l54 255q-43 -48 -93.5 -78t-92.5 -30zM167 165q0 -51 16.5 -74.5
t46.5 -23.5q23 0 49.5 14.5t56.5 46.5l63 294q-28 24 -62 24q-28 0 -54 -16t-45 -39q-31 -38 -51 -99.5t-20 -126.5z" />
    <glyph glyph-name="r" unicode="r" horiz-adv-x="418" 
d="M46 -8l-10 9l75 362q5 24 -3 37.5t-28 20.5l-14 5l3 17l166 53l12 -11l-27 -157q22 46 50 84t58.5 60.5t60.5 22.5t48.5 -16t18.5 -42q0 -28 -16 -45t-43 -17q-42 0 -78 42q-36 -29 -62 -71.5t-49 -91.5l-8 -41q-10 -53 -20.5 -106t-20.5 -107z" />
    <glyph glyph-name="s" unicode="s" horiz-adv-x="401" 
d="M169 -14q-62 0 -100 24.5t-38 68.5q0 24 16 41.5t42 17.5q49 0 61 -59l5 -23q4 -22 12.5 -33.5t29.5 -11.5q26 0 45.5 20.5t19.5 57.5q0 27 -16.5 52t-57.5 56q-40 32 -65 66t-25 82q0 41 21.5 75t61.5 54.5t95 20.5q65 0 101.5 -26t36.5 -65q0 -22 -13.5 -36t-38.5 -14
q-45 0 -63 56l-7 24q-5 19 -13 26.5t-22 7.5q-19 0 -36 -18t-17 -54q0 -35 20.5 -63.5t62.5 -60.5q45 -33 65 -63.5t20 -74.5q0 -61 -53 -104.5t-150 -43.5z" />
    <glyph glyph-name="t" unicode="t" horiz-adv-x="340" 
d="M145 -14q-31 0 -50.5 15.5t-19.5 46.5q0 38 12 92l67 310h-85l4 21l40 4q51 7 84 48l78 94h31l-28 -137h111l-6 -32l-112 2l-66 -320q-4 -18 -6 -31.5t-2 -22.5q0 -10 6 -16t14 -6q21 0 64 43l16 -13q-25 -37 -63.5 -67.5t-88.5 -30.5z" />
    <glyph glyph-name="u" unicode="u" horiz-adv-x="548" 
d="M136 -14q-33 0 -57 19.5t-24 60.5q0 23 5 51t11 55l43 191q9 41 -29 56l-17 7l2 18l180 52l12 -10l-69 -300q-6 -25 -10 -45t-4 -37q0 -22 10 -31.5t26 -9.5q24 0 52.5 16.5t68.5 52.5l1 5l34 161q8 41 16 81.5t15 81.5l117 35l13 -10l-78 -357q-3 -17 -5.5 -31t-2.5 -23
q0 -10 6 -15.5t13 -5.5q14 0 28.5 10.5t36.5 31.5l15 -15q-25 -35 -62.5 -65t-85.5 -30q-29 0 -49.5 20t-20.5 58q0 15 2 32q-52 -52 -100.5 -81t-92.5 -29z" />
    <glyph glyph-name="v" unicode="v" horiz-adv-x="508" 
d="M186 -8l-9 7q-9 109 -18.5 202t-18.5 181q-3 25 -9.5 31.5t-16.5 6.5q-18 0 -48 -35l-14 16q65 94 130 94q70 0 77 -91q7 -71 13 -152.5t12 -171.5q38 46 71 90t66 96q15 25 17 47.5t-7 49.5l-15 39q-13 38 4.5 66.5t51.5 28.5q33 0 47 -19t14 -48q0 -19 -9 -46t-38 -76
q-40 -70 -102 -151.5t-139 -158.5z" />
    <glyph glyph-name="w" unicode="w" horiz-adv-x="774" 
d="M186 -8l-10 7q-9 109 -18.5 200.5t-19.5 176.5q-2 23 -9 29.5t-17 6.5q-18 0 -48 -30l-15 15q68 98 131 98q71 0 78 -85q5 -63 10.5 -141.5t9.5 -155.5q47 83 93 174t93 189h61q4 -26 8 -74.5t9 -106t9 -112t8 -93.5q38 48 66 87t57 88q14 25 18.5 49t-4.5 49l-14 37
q-15 41 3.5 69t49.5 28t46 -18.5t15 -50.5q0 -22 -10 -49t-38 -76q-37 -67 -97 -146.5t-135 -158.5l-56 -6l-10 7q-7 77 -14 151.5t-16 159.5q-37 -76 -82 -159t-92 -153z" />
    <glyph glyph-name="x" unicode="x" horiz-adv-x="559" 
d="M80 -14q-29 0 -51.5 17t-22.5 48q0 25 16.5 40.5t40.5 15.5q30 0 53 -29q26 -35 53 0q21 27 43 58t45 64l-50 154q-10 35 -20.5 48.5t-27.5 13.5q-10 0 -24.5 -6t-30.5 -26l-15 16q65 95 131 95q38 0 56.5 -22t33.5 -69l31 -95q28 45 51 78t34 47q29 36 54 48.5t50 12.5
t44 -15t19 -44q0 -26 -16 -41.5t-37 -15.5q-33 0 -53 26q-11 14 -20.5 15.5t-23.5 -15.5q-16 -19 -40.5 -53t-51.5 -73l52 -159q11 -36 21.5 -48t26.5 -12q26 0 61 37l15 -15q-27 -42 -61.5 -70t-73.5 -28q-31 0 -53 16.5t-37 61.5l-35 109q-27 -42 -49.5 -75t-41.5 -57
q-21 -28 -43.5 -40.5t-52.5 -12.5z" />
    <glyph glyph-name="y" unicode="y" horiz-adv-x="516" 
d="M16 -231q-34 0 -57.5 18t-23.5 49q0 26 18 42.5t45 16.5q15 0 29 -5t29 -17q20 -17 39 -21t40 12q14 11 27 23t27 26q6 6 12 13q-13 103 -27.5 197t-30.5 199q-5 40 -9.5 59t-10.5 25t-14 6q-10 0 -22 -9t-28 -32l-15 16q66 108 138 108q37 0 53.5 -25t21.5 -80
q10 -95 18 -179t16 -173q36 83 61.5 164t49.5 180q16 68 35.5 92t50.5 24q21 0 37.5 -13t16.5 -36q0 -24 -9 -45t-26 -53q-16 -30 -35 -64t-45 -77q-28 -45 -59.5 -97t-73.5 -111q-22 -31 -47.5 -64t-62.5 -72q-42 -44 -83.5 -70.5t-84.5 -26.5z" />
    <glyph glyph-name="z" unicode="z" horiz-adv-x="487" 
d="M31 -17l-27 26l333 340q-37 7 -77 14.5t-84 14.5q-50 9 -73 -35l-8 -16l-23 3l31 165q84 -14 168 -29.5t155 -26.5l52 54l28 -28l-324 -328q34 -33 79 -52.5t92 -19.5q29 0 51 8q11 5 12 15.5t-8 19.5q-24 19 -32 35t-8 27q0 24 16.5 40t40.5 16q25 0 41 -17t16 -52
q0 -50 -24 -91.5t-65.5 -66.5t-95.5 -25q-41 0 -82.5 20t-68.5 51l-26 28z" />
    <glyph glyph-name="braceleft" unicode="{" horiz-adv-x="357" 
d="M219 -159q-70 0 -111.5 24t-41.5 73q0 35 12.5 67t29.5 62.5t29.5 60t12.5 57.5t-20 48t-74 29l6 32q75 11 102 42.5t27 75.5q0 34 -11.5 68.5t-11.5 71.5q0 83 57.5 123t156.5 40h33l-6 -28l-23 -2q-60 -4 -84.5 -39t-24.5 -100q0 -25 1.5 -56t1.5 -53q0 -60 -41 -103
t-116 -56q55 -9 80.5 -33t25.5 -62q0 -25 -8 -56.5t-18.5 -64t-18.5 -62t-8 -52.5q0 -34 18.5 -52.5t50.5 -22.5l25 -2l-6 -30h-45z" />
    <glyph glyph-name="bar" unicode="|" horiz-adv-x="265" 
d="M106 -250v1000h71v-1000h-71z" />
    <glyph glyph-name="braceright" unicode="}" horiz-adv-x="357" 
d="M182 715q70 0 111.5 -24t41.5 -73q0 -35 -12.5 -67t-29.5 -62.5t-29.5 -60t-12.5 -57.5t20 -48t74 -29l-6 -32q-75 -11 -102 -42.5t-27 -75.5q0 -34 11.5 -68.5t11.5 -71.5q0 -83 -57.5 -123t-156.5 -40h-33l6 28l23 2q60 4 84.5 39t24.5 100q0 25 -1.5 56t-1.5 53
q0 60 41 103t116 56q-55 9 -80.5 33t-25.5 62q0 25 8 56.5t18.5 64t18.5 62t8 52.5q0 34 -18.5 52.5t-50.5 22.5l-25 2l6 30h45z" />
    <glyph glyph-name="asciitilde" unicode="~" horiz-adv-x="540" 
d="M312 377q32 -27 49 -37t37 -10q21 0 40.5 19t25.5 71l35 -4q-2 -83 -34 -119.5t-82 -36.5q-28 0 -54.5 13.5t-58.5 39.5q-31 28 -48 38t-33 10q-26 0 -46 -19t-26 -72l-35 4q2 83 34 119.5t83 36.5q29 0 55.5 -13.5t57.5 -39.5z" />
    <glyph glyph-name="uni00A0" unicode="&#xa0;" horiz-adv-x="222" 
 />
    <glyph glyph-name="exclamdown" unicode="&#xa1;" horiz-adv-x="297" 
d="M163 346q-31 0 -50 21t-19 49q0 34 25.5 57.5t58.5 23.5q29 0 48.5 -19.5t19.5 -48.5q0 -34 -25 -58.5t-58 -24.5zM49 -195q-35 0 -52.5 18t-17.5 47q0 19 8 47t25.5 73t46.5 113.5t72 168.5h25l-3 -140q-1 -98 -5 -158.5t-10 -89.5q-8 -43 -32 -61t-57 -18z" />
    <glyph glyph-name="cent" unicode="&#xa2;" horiz-adv-x="535" 
d="M211 -45l20 96q-45 2 -82 25t-59 65t-22 103q0 63 21 119t58 99.5t85 69t103 28.5l19 95h32l-20 -96q64 -6 101 -43.5t37 -90.5q0 -26 -14.5 -41t-35.5 -15q-25 0 -39 19.5t-16 53.5l-2 23q-3 56 -37 65l-80 -396q6 -1 13 -1q43 0 77.5 21.5t61.5 54.5l17 -13
q-28 -52 -77.5 -93.5t-108.5 -49.5l-20 -98h-32zM185 273q0 -54 17 -86.5t47 -45.5l80 390q-33 -4 -59.5 -30t-45.5 -64t-29 -81t-10 -83z" />
    <glyph glyph-name="sterling" unicode="&#xa3;" horiz-adv-x="535" 
d="M15 0l17 86q64 38 105.5 87t45.5 107h-101l6 30h93q-5 27 -18.5 52t-25.5 53t-12 64q0 49 30 87.5t80 61t111 22.5q87 0 134 -36.5t47 -99.5q0 -31 -17 -48t-45 -17q-26 0 -42 19t-17 62l-1 37q-1 28 -13 41.5t-41 13.5q-43 0 -69.5 -40t-26.5 -102q0 -38 5 -65.5
t10.5 -52t5.5 -52.5h137l-6 -30h-134q-10 -46 -52 -90.5t-99 -79.5h340l-23 -110h-424z" />
    <glyph glyph-name="currency" unicode="&#xa4;" horiz-adv-x="535" 
d="M126 326q0 32 9.5 59.5t27.5 48.5l-35 19q-31 17 -49 33.5t-18 35.5q0 17 12.5 29.5t29.5 12.5q20 0 36 -18t33 -50l19 -34q47 36 108 36q62 0 108 -36l19 34q17 32 33.5 50t36.5 18q17 0 29.5 -12.5t12.5 -29.5q0 -19 -18 -35.5t-50 -33.5l-34 -19q17 -21 26.5 -48.5
t9.5 -59.5t-9.5 -59.5t-26.5 -48.5l34 -19q32 -18 50 -34t18 -36q0 -17 -12.5 -29.5t-29.5 -12.5q-20 0 -36 18.5t-34 49.5l-18 35q-47 -37 -109 -37q-61 0 -108 36l-19 -34q-17 -31 -33 -49.5t-36 -18.5q-17 0 -29.5 12.5t-12.5 29.5q0 20 18 36t49 34l35 18
q-17 22 -27 49.5t-10 59.5zM197 326q0 -49 30.5 -78.5t71.5 -29.5q42 0 72 29.5t30 78.5q0 47 -30 77t-72 30q-41 0 -71.5 -30t-30.5 -77z" />
    <glyph glyph-name="yen" unicode="&#xa5;" horiz-adv-x="535" 
d="M102 0l3 20l41 11q27 6 31 32l19 92h-138l6 30h138l20 100h-138l6 30h123l-82 265q-7 21 -28 28l-23 7l4 21h219l-5 -21l-27 -8q-22 -6 -16 -27l70 -260l166 262q11 18 -9 24l-26 9l5 21h137l-4 -21l-36 -11q-21 -6 -33 -25l-167 -264h128l-6 -30h-137q-12 -58 -21 -100
h138l-6 -30h-138q-6 -29 -10 -51.5t-8 -44.5t17 -28l38 -11l-4 -20h-247z" />
    <glyph glyph-name="brokenbar" unicode="&#xa6;" horiz-adv-x="265" 
d="M177 320h-71v430h71v-430zM106 -250v450h71v-450h-71z" />
    <glyph glyph-name="section" unicode="&#xa7;" horiz-adv-x="492" 
d="M183 -125q-61 0 -102 26t-41 66q0 24 14.5 39t39.5 15q24 0 38 -15t20 -42l4 -20q4 -19 13.5 -31.5t31.5 -12.5q30 0 49.5 21.5t19.5 53.5q0 29 -16 53t-56 55l-43 34q-40 32 -63 64t-23 80q0 55 46 97.5t118 55.5q-29 25 -45.5 53t-16.5 66q0 62 50.5 104.5t138.5 42.5
q63 0 97 -26.5t34 -62.5q0 -22 -13.5 -36t-39.5 -14q-44 0 -58 58l-5 22q-3 14 -10.5 23.5t-26.5 9.5q-24 0 -44 -18t-20 -51t18.5 -60t67.5 -65l44 -35q41 -32 59 -60.5t18 -70.5q0 -57 -45.5 -98t-130.5 -50q34 -28 54 -57t20 -70q0 -61 -52 -102.5t-144 -41.5zM247 192
l37 -29q48 6 71.5 29t24.5 54q0 28 -15.5 52t-56.5 56l-55 43l-1 1q-47 -10 -66 -36t-19 -59q0 -31 19.5 -55.5t60.5 -55.5z" />
    <glyph glyph-name="dieresis" unicode="&#xa8;" horiz-adv-x="400" 
d="M182 604q-24 0 -42 15t-18 42q0 34 22.5 53.5t49.5 19.5q25 0 41.5 -15.5t16.5 -40.5q0 -34 -21.5 -54t-48.5 -20zM394 604q-23 0 -40.5 15t-17.5 42q0 34 22 53.5t48 19.5q25 0 42 -15.5t17 -40.5q0 -34 -21.5 -54t-49.5 -20z" />
    <glyph glyph-name="copyright" unicode="&#xa9;" horiz-adv-x="768" 
d="M387 -17q-89 0 -161 37.5t-113.5 107t-41.5 166.5q0 89 31.5 160t85 121t121 77t139.5 27q89 0 160.5 -37.5t113 -107.5t41.5 -167q0 -88 -31 -159t-84.5 -121.5t-121 -77t-139.5 -26.5zM387 13q66 0 127 24.5t109 70t76 110t28 145.5q0 89 -37 152.5t-100 98t-143 34.5
q-66 0 -127 -24.5t-109 -70t-76 -110t-28 -144.5q0 -89 37 -153.5t100.5 -98.5t142.5 -34zM413 128q-50 0 -90.5 21.5t-63.5 62.5t-23 98q0 63 28.5 115t80 83t118.5 31q58 0 110 -31l-14 -95h-23l-14 48q-7 27 -21 39.5t-40 12.5q-42 0 -72.5 -30.5t-47 -77t-16.5 -95.5
q0 -73 29 -115t72 -42q21 0 34 10.5t26 31.5l34 55h22l-17 -94q-22 -12 -49.5 -20t-62.5 -8z" />
    <glyph glyph-name="ordfeminine" unicode="&#xaa;" horiz-adv-x="379" 
d="M176 406q-26 0 -47.5 20t-21.5 69q0 44 20.5 87t53.5 79t71 57.5t74 21.5q15 0 27.5 -5.5t23.5 -14.5l43 23l11 -8l-52 -229q-5 -20 -5 -29q0 -14 14 -14q10 0 23.5 11.5t29.5 30.5l19 -13q-18 -31 -49 -58.5t-68 -27.5q-22 0 -35.5 14t-13.5 42v11q-28 -30 -59 -48.5
t-59 -18.5zM190 527q0 -31 11 -44.5t28 -13.5q15 0 32 10t38 29l1 6l37 169q-19 9 -38 9q-25 0 -50 -22.5t-42 -60t-17 -82.5z" />
    <glyph glyph-name="guillemotleft" unicode="&#xab;" horiz-adv-x="592" 
d="M267 37l-196 199l6 35l252 197l16 -19l-181 -196l125 -198zM488 37l-196 199l6 35l252 197l16 -19l-181 -196l125 -198z" />
    <glyph glyph-name="logicalnot" unicode="&#xac;" horiz-adv-x="540" 
d="M58 345v36h438v-224h-39v188h-399z" />
    <glyph glyph-name="uni00AD" unicode="&#xad;" horiz-adv-x="334" 
d="M52 232v42h250v-42h-250z" />
    <glyph glyph-name="registered" unicode="&#xae;" horiz-adv-x="468" 
d="M288 311q-51 0 -92.5 21.5t-65.5 62.5t-24 97q0 68 31 117.5t81 76.5t106 27q51 0 92.5 -21.5t65.5 -61.5t24 -96q0 -68 -31 -118t-81 -77.5t-106 -27.5zM291 350q45 0 83.5 22t62.5 62.5t24 96.5q0 68 -40 106t-99 38q-44 0 -83.5 -22.5t-64 -63t-24.5 -95.5
q0 -67 41 -105.5t100 -38.5zM199 419l3 18l24 2l31 157l-23 3l4 18h23h51v0h21q31 0 48 -12.5t17 -35.5q0 -19 -14 -34t-48 -19q14 -4 22 -14.5t13 -27.5l11 -35l23 -2l-3 -18q-16 -4 -35 -4q-16 0 -24.5 5.5t-12.5 21.5l-11 38q-5 16 -9 21.5t-14 5.5h-6l-13 -68l22 -2
l-3 -18h-97zM322 597h-14l-14 -71h12q24 0 34 11.5t10 29.5q0 30 -28 30z" />
    <glyph glyph-name="macron" unicode="&#xaf;" horiz-adv-x="400" 
d="M136 622l7 38h292l-7 -38h-292z" />
    <glyph glyph-name="degree" unicode="&#xb0;" horiz-adv-x="328" 
d="M243 414q-34 0 -64 16t-48.5 45.5t-18.5 70.5t18.5 70.5t48.5 46t64 16.5q35 0 65 -16.5t48 -46t18 -70.5t-18 -70.5t-48 -45.5t-65 -16zM243 444q41 0 67.5 28t26.5 74q0 45 -26.5 73.5t-67.5 28.5q-40 0 -67 -28.5t-27 -73.5q0 -46 27 -74t67 -28z" />
    <glyph glyph-name="plusminus" unicode="&#xb1;" horiz-adv-x="540" 
d="M262 125v195h-208v36h208v190h36v-190h208v-36h-208v-195h-36zM54 0v35h452v-35h-452z" />
    <glyph glyph-name="uni00B2" unicode="&#xb2;" horiz-adv-x="362" 
d="M100 416l10 58q66 55 107.5 94t64 66t31.5 48t9 40q0 34 -14.5 51t-39.5 17q-7 0 -14.5 -1.5t-15.5 -3.5l-64 -88h-20l13 90q27 15 57.5 23t68.5 8q59 0 89 -27.5t30 -68.5q0 -32 -28.5 -63t-84 -70t-135.5 -95h222l-16 -78h-270z" />
    <glyph glyph-name="uni00B3" unicode="&#xb3;" horiz-adv-x="325" 
d="M203 406q-39 0 -69.5 9.5t-52.5 24.5l22 90h24l14 -86l15 -9t42 -9q29 0 51 25t22 74q0 38 -17.5 59.5t-48.5 21.5h-17l4 19h15q36 0 65 24.5t29 78.5q0 39 -16 56.5t-40 17.5q-16 0 -28.5 -6l-12.5 -6l-40 -85h-21l16 100q18 7 42.5 11.5t52.5 4.5q130 0 130 -94
q0 -33 -28 -65t-91 -43q56 -7 78.5 -32.5t22.5 -63.5q0 -34 -21.5 -60.5t-58.5 -41.5t-83 -15z" />
    <glyph glyph-name="acute" unicode="&#xb4;" horiz-adv-x="400" 
d="M216 551q14 41 28 81t27 80q11 35 28 49t37 14q21 0 37 -13t16 -36q0 -18 -10.5 -34.5t-30.5 -36.5q-29 -30 -57 -58.5t-57 -57.5z" />
    <glyph glyph-name="uni00B5" unicode="&#xb5;" horiz-adv-x="567" 
d="M3 -150l79 257l50 362l125 26l12 -11q-22 -87 -37 -148.5t-25.5 -107.5t-18.5 -86q9 -30 29.5 -43t44.5 -13q28 0 56 13.5t56 53.5q7 48 19.5 121t34.5 195l125 26l12 -11q-24 -87 -40 -146t-26 -98.5t-15 -65.5t-7 -46q-4 -31 3.5 -43.5t28.5 -12.5q9 0 18.5 2t18.5 5
l6 -32q-21 -28 -50.5 -44.5t-63.5 -16.5q-40 0 -57.5 23t-17.5 66q1 6 1 11q-30 -51 -64 -75.5t-69 -24.5q-30 0 -53.5 18t-33.5 56l-10 -150q-3 -62 -21.5 -82.5t-50.5 -21.5q-23 0 -38 12.5t-21 31.5z" />
    <glyph glyph-name="paragraph" unicode="&#xb6;" horiz-adv-x="635" 
d="M366 -120l135 729h-69l-89 -482q-72 11 -129 39t-90 76.5t-33 117.5q0 89 43 156.5t128 106t210 38.5h238l-9 -49l-86 -10l-77 -412q-14 -77 -28 -155t-26 -155h-118z" />
    <glyph glyph-name="periodcentered" unicode="&#xb7;" horiz-adv-x="305" 
d="M182 250q-33 0 -54 21t-21 51q0 37 27 62t62 25q33 0 53.5 -21.5t20.5 -51.5q0 -37 -26.5 -61.5t-61.5 -24.5z" />
    <glyph glyph-name="cedilla" unicode="&#xb8;" horiz-adv-x="400" 
d="M93 -89l43 89h32l-28 -61q50 -15 73 -36.5t23 -54.5q0 -32 -28.5 -55.5t-82.5 -23.5q-28 0 -51 8.5t-37 19.5l12 24q29 -15 60 -15q26 0 41 11.5t15 33.5q0 26 -20 39.5t-52 20.5z" />
    <glyph glyph-name="uni00B9" unicode="&#xb9;" horiz-adv-x="252" 
d="M64 416l2 13l56 14l65 319l-63 -4l3 14q43 9 77 20.5t86 27.5l5 -4l-21 -90l-38 -180q-4 -21 -9.5 -48t-10.5 -55l57 -14l-3 -13h-206z" />
    <glyph glyph-name="ordmasculine" unicode="&#xba;" horiz-adv-x="355" 
d="M234 406q-52 0 -88.5 30t-36.5 93q0 56 25 104t67.5 77.5t96.5 29.5q53 0 88.5 -30t35.5 -93q0 -55 -24.5 -103t-67 -78t-96.5 -30zM242 440q29 0 50.5 29t33.5 73.5t12 89.5q0 42 -13.5 58t-35.5 16q-28 0 -50 -29t-34 -72.5t-12 -88.5q0 -43 14 -59.5t35 -16.5z" />
    <glyph glyph-name="guillemotright" unicode="&#xbb;" horiz-adv-x="592" 
d="M358 468l196 -199l-6 -35l-252 -197l-16 19l181 196l-125 198zM137 468l196 -199l-6 -35l-252 -197l-16 19l181 196l-125 198z" />
    <glyph glyph-name="onequarter" unicode="&#xbc;" horiz-adv-x="774" 
d="M191 -19l-32 23l478 651l31 -24zM28 248l2 13l56 14l65 319l-63 -4l3 14q43 9 77 20.5t86 27.5l5 -4l-21 -90l-38 -180q-4 -21 -9.5 -48t-10.5 -55l57 -14l-3 -13h-206zM566 0l20 100h-164l10 55l235 256h63l-52 -256h63l-11 -55h-63l-20 -100h-81zM459 155h138l38 191z
" />
    <glyph glyph-name="onehalf" unicode="&#xbd;" horiz-adv-x="850" 
d="M191 -19l-32 23l478 651l31 -24zM28 248l2 13l56 14l65 319l-63 -4l3 14q43 9 77 20.5t86 27.5l5 -4l-21 -90l-38 -180q-4 -21 -9.5 -48t-10.5 -55l57 -14l-3 -13h-206zM499 0l10 58q66 55 107.5 94t64 66t31.5 48t9 40q0 34 -14.5 51t-39.5 17q-7 0 -14.5 -1.5
t-15.5 -3.5l-64 -88h-20l13 90q27 15 57.5 23t68.5 8q59 0 89 -27.5t30 -68.5q0 -32 -28.5 -63t-84 -70t-135.5 -95h222l-16 -78h-270z" />
    <glyph glyph-name="threequarters" unicode="&#xbe;" horiz-adv-x="824" 
d="M167 238q-39 0 -69.5 9.5t-52.5 24.5l22 90h24l14 -86l15 -9t42 -9q29 0 51 25t22 74q0 38 -17.5 59.5t-48.5 21.5h-17l4 19h15q36 0 65 24.5t29 78.5q0 39 -16 56.5t-40 17.5q-16 0 -28.5 -6l-12.5 -6l-40 -85h-21l16 100q18 7 42.5 11.5t52.5 4.5q130 0 130 -94
q0 -33 -28 -65t-91 -43q56 -7 78.5 -32.5t22.5 -63.5q0 -34 -21.5 -60.5t-58.5 -41.5t-83 -15zM241 -19l-32 23l478 651l31 -24zM616 0l20 100h-164l10 55l235 256h63l-52 -256h63l-11 -55h-63l-20 -100h-81zM509 155h138l38 191z" />
    <glyph glyph-name="questiondown" unicode="&#xbf;" horiz-adv-x="457" 
d="M304 352q-30 0 -48.5 20t-18.5 47q0 33 24 55.5t54 22.5q31 0 49.5 -19t18.5 -46q0 -33 -24 -56.5t-55 -23.5zM164 -196q-88 0 -143 36.5t-55 119.5q0 67 38 113.5t104.5 76t151.5 44.5l23 98h28l-10 -178q-103 -19 -160.5 -66t-57.5 -115q0 -52 20.5 -77t51.5 -25
t49.5 17.5t27.5 50.5l5 17q6 26 21 42.5t43 16.5q23 0 38 -15.5t15 -41.5q0 -33 -25.5 -58.5t-68.5 -40.5t-96 -15z" />
    <glyph glyph-name="Agrave" unicode="&#xc0;" horiz-adv-x="654" 
d="M-22 0l5 21l30 8q39 10 59 47l305 585h80l91 -583q6 -37 42 -49l24 -8l-5 -21h-244l4 21l19 6q35 11 31 48l-22 151h-214l-79 -152q-16 -35 19 -45l26 -8l-4 -21h-167zM351 551l-153 -296h195zM459 731l-13 -19q-37 16 -74.5 31t-74.5 31q-34 15 -45 30.5t-11 29.5
q0 18 14 31.5t35 13.5q16 0 30 -8.5t36 -31.5q24 -25 51 -53.5t52 -54.5z" />
    <glyph glyph-name="Aacute" unicode="&#xc1;" horiz-adv-x="654" 
d="M-22 0l5 21l30 8q39 10 59 47l305 585h80l91 -583q6 -37 42 -49l24 -8l-5 -21h-244l4 21l19 6q35 11 31 48l-22 151h-214l-79 -152q-16 -35 19 -45l26 -8l-4 -21h-167zM351 551l-153 -296h195zM335 726q29 26 59 54.5t58 54.5q23 23 37.5 30.5t33.5 7.5q21 0 33 -13.5
t12 -31.5q0 -16 -13.5 -30t-48.5 -28q-41 -16 -80.5 -31.5t-78.5 -30.5z" />
    <glyph glyph-name="Acircumflex" unicode="&#xc2;" horiz-adv-x="654" 
d="M-22 0l5 21l30 8q39 10 59 47l305 585h80l91 -583q6 -37 42 -49l24 -8l-5 -21h-244l4 21l19 6q35 11 31 48l-22 151h-214l-79 -152q-16 -35 19 -45l26 -8l-4 -21h-167zM351 551l-153 -296h195zM457 867l121 -155l-15 -15l-128 85l-156 -85l-12 17l165 153h25z" />
    <glyph glyph-name="Atilde" unicode="&#xc3;" horiz-adv-x="654" 
d="M-22 0l5 21l30 8q39 10 59 47l305 585h80l91 -583q6 -37 42 -49l24 -8l-5 -21h-244l4 21l19 6q35 11 31 48l-22 151h-214l-79 -152q-16 -35 19 -45l26 -8l-4 -21h-167zM351 551l-153 -296h195zM246 724q20 68 53.5 101.5t75.5 33.5q29 0 46 -10t33 -24q16 -15 30.5 -29.5
t36.5 -14.5q24 0 44 16.5t39 57.5l21 -9q-20 -72 -52 -103.5t-75 -31.5q-27 0 -45 10t-33 23q-16 14 -31 29.5t-38 15.5q-25 0 -44.5 -16.5t-38.5 -57.5z" />
    <glyph glyph-name="Adieresis" unicode="&#xc4;" horiz-adv-x="654" 
d="M-22 0l5 21l30 8q39 10 59 47l305 585h80l91 -583q6 -37 42 -49l24 -8l-5 -21h-244l4 21l19 6q35 11 31 48l-22 151h-214l-79 -152q-16 -35 19 -45l26 -8l-4 -21h-167zM351 551l-153 -296h195zM312 726q-22 0 -39.5 14.5t-17.5 39.5q0 33 21.5 51t46.5 18q24 0 39.5 -15
t15.5 -38q0 -32 -20 -51t-46 -19zM539 726q-20 0 -37.5 14.5t-17.5 39.5q0 33 21 51t45 18t40 -15t16 -38q0 -32 -20.5 -51t-46.5 -19z" />
    <glyph glyph-name="Aring" unicode="&#xc5;" horiz-adv-x="654" 
d="M-22 0l5 21l30 8q39 10 59 47l305 585h80l91 -583q6 -37 42 -49l24 -8l-5 -21h-244l4 21l19 6q35 11 31 48l-22 151h-214l-79 -152q-16 -35 19 -45l26 -8l-4 -21h-167zM351 551l-153 -296h195zM429 700q-37 0 -65.5 22.5t-28.5 63.5q0 51 34 79.5t76 28.5q41 0 67 -23
t26 -63q0 -52 -33 -80t-76 -28zM432 731q29 0 46.5 20.5t17.5 52.5q0 26 -13.5 42t-40.5 16q-28 0 -47 -20.5t-19 -51.5q0 -26 14.5 -42.5t41.5 -16.5z" />
    <glyph glyph-name="AE" unicode="&#xc6;" horiz-adv-x="876" 
d="M-22 0l4 21l17 5q25 8 42.5 20t31.5 34l344 504q12 17 7.5 31t-24.5 20l-17 5l4 21h503l-25 -174h-26l-18 85q-13 59 -74 59h-125l-53 -277h87q42 0 65 35l32 48h21l-36 -193h-21l-11 38q-12 43 -58 43h-85q-8 -46 -17.5 -98t-18.5 -103t-16 -94h153q61 0 94 51l62 93h26
l-39 -174h-484l4 21l18 5q36 11 42 46l30 162h-202l-109 -160q-22 -34 16 -48l13 -5l-5 -21h-152zM236 263h187l16 88q12 62 25 136t23 135h-7z" />
    <glyph glyph-name="Ccedilla" unicode="&#xc7;" horiz-adv-x="599" 
d="M350 -17q-91 0 -158.5 34.5t-104.5 100t-37 158.5q0 83 28.5 156t81 128.5t123.5 87t156 31.5q50 0 95 -11t92 -37l-24 -153h-27l-25 97q-10 42 -35.5 58t-69.5 16q-77 0 -135.5 -47.5t-91 -132t-32.5 -195.5q0 -121 49.5 -191.5t140.5 -70.5q38 0 60.5 14.5t39.5 43.5
l64 112h27l-24 -152q-40 -20 -84 -33.5t-109 -13.5zM277 -89l43 89h32l-28 -61q50 -15 73 -36.5t23 -54.5q0 -32 -28.5 -55.5t-82.5 -23.5q-28 0 -51 8.5t-37 19.5l12 24q29 -15 60 -15q26 0 41 11.5t15 33.5q0 26 -20 39.5t-52 20.5z" />
    <glyph glyph-name="Egrave" unicode="&#xc8;" horiz-adv-x="557" 
d="M4 0l4 21l17 5q35 10 43 48l52 277q10 53 20.5 114t20.5 117q7 41 -33 55l-10 3l5 21h448l-25 -174h-26l-18 82q-7 32 -24.5 47t-52.5 15h-123l-52 -277h85q43 0 68 37l31 46h21l-36 -193h-21l-11 37q-13 44 -58 44h-85q-13 -70 -27 -146t-25 -149h155q31 0 53 12t41 41
l60 91h26l-40 -174h-483zM404 731l-13 -19q-37 16 -74.5 31t-74.5 31q-34 15 -45 30.5t-11 29.5q0 18 14 31.5t35 13.5q16 0 30 -8.5t36 -31.5q24 -25 51 -53.5t52 -54.5z" />
    <glyph glyph-name="Eacute" unicode="&#xc9;" horiz-adv-x="557" 
d="M4 0l4 21l17 5q35 10 43 48l52 277q10 53 20.5 114t20.5 117q7 41 -33 55l-10 3l5 21h448l-25 -174h-26l-18 82q-7 32 -24.5 47t-52.5 15h-123l-52 -277h85q43 0 68 37l31 46h21l-36 -193h-21l-11 37q-13 44 -58 44h-85q-13 -70 -27 -146t-25 -149h155q31 0 53 12t41 41
l60 91h26l-40 -174h-483zM280 726q29 26 59 54.5t58 54.5q23 23 37.5 30.5t33.5 7.5q21 0 33 -13.5t12 -31.5q0 -16 -13.5 -30t-48.5 -28q-41 -16 -80.5 -31.5t-78.5 -30.5z" />
    <glyph glyph-name="Ecircumflex" unicode="&#xca;" horiz-adv-x="557" 
d="M4 0l4 21l17 5q35 10 43 48l52 277q10 53 20.5 114t20.5 117q7 41 -33 55l-10 3l5 21h448l-25 -174h-26l-18 82q-7 32 -24.5 47t-52.5 15h-123l-52 -277h85q43 0 68 37l31 46h21l-36 -193h-21l-11 37q-13 44 -58 44h-85q-13 -70 -27 -146t-25 -149h155q31 0 53 12t41 41
l60 91h26l-40 -174h-483zM402 867l121 -155l-15 -15l-128 85l-156 -85l-12 17l165 153h25z" />
    <glyph glyph-name="Edieresis" unicode="&#xcb;" horiz-adv-x="557" 
d="M4 0l4 21l17 5q35 10 43 48l52 277q10 53 20.5 114t20.5 117q7 41 -33 55l-10 3l5 21h448l-25 -174h-26l-18 82q-7 32 -24.5 47t-52.5 15h-123l-52 -277h85q43 0 68 37l31 46h21l-36 -193h-21l-11 37q-13 44 -58 44h-85q-13 -70 -27 -146t-25 -149h155q31 0 53 12t41 41
l60 91h26l-40 -174h-483zM257 726q-22 0 -39.5 14.5t-17.5 39.5q0 33 21.5 51t46.5 18q24 0 39.5 -15t15.5 -38q0 -32 -20 -51t-46 -19zM484 726q-20 0 -37.5 14.5t-17.5 39.5q0 33 21 51t45 18t40 -15t16 -38q0 -32 -20.5 -51t-46.5 -19z" />
    <glyph glyph-name="Igrave" unicode="&#xcc;" horiz-adv-x="310" 
d="M4 0l4 21l25 9q14 4 22.5 14.5t11.5 23.5l53 283q10 55 21.5 118.5t20.5 121.5q3 14 -4.5 26.5t-21.5 16.5l-18 6l5 21h235l-5 -21l-24 -8q-29 -8 -34 -38l-54 -284q-10 -55 -21 -118t-22 -120q-2 -15 5 -27t20 -17l21 -7l-5 -21h-235zM286 731l-13 -19q-37 16 -74.5 31
t-74.5 31q-34 15 -45 30.5t-11 29.5q0 18 14 31.5t35 13.5q16 0 30 -8.5t36 -31.5q24 -25 51 -53.5t52 -54.5z" />
    <glyph glyph-name="Iacute" unicode="&#xcd;" horiz-adv-x="310" 
d="M4 0l4 21l25 9q14 4 22.5 14.5t11.5 23.5l53 283q10 55 21.5 118.5t20.5 121.5q3 14 -4.5 26.5t-21.5 16.5l-18 6l5 21h235l-5 -21l-24 -8q-29 -8 -34 -38l-54 -284q-10 -55 -21 -118t-22 -120q-2 -15 5 -27t20 -17l21 -7l-5 -21h-235zM162 726q29 26 59 54.5t58 54.5
q23 23 37.5 30.5t33.5 7.5q21 0 33 -13.5t12 -31.5q0 -16 -13.5 -30t-48.5 -28q-41 -16 -80.5 -31.5t-78.5 -30.5z" />
    <glyph glyph-name="Icircumflex" unicode="&#xce;" horiz-adv-x="310" 
d="M4 0l4 21l25 9q14 4 22.5 14.5t11.5 23.5l53 283q10 55 21.5 118.5t20.5 121.5q3 14 -4.5 26.5t-21.5 16.5l-18 6l5 21h235l-5 -21l-24 -8q-29 -8 -34 -38l-54 -284q-10 -55 -21 -118t-22 -120q-2 -15 5 -27t20 -17l21 -7l-5 -21h-235zM284 867l121 -155l-15 -15l-128 85
l-156 -85l-12 17l165 153h25z" />
    <glyph glyph-name="Idieresis" unicode="&#xcf;" horiz-adv-x="310" 
d="M4 0l4 21l25 9q14 4 22.5 14.5t11.5 23.5l53 283q10 55 21.5 118.5t20.5 121.5q3 14 -4.5 26.5t-21.5 16.5l-18 6l5 21h235l-5 -21l-24 -8q-29 -8 -34 -38l-54 -284q-10 -55 -21 -118t-22 -120q-2 -15 5 -27t20 -17l21 -7l-5 -21h-235zM139 726q-22 0 -39.5 14.5
t-17.5 39.5q0 33 21.5 51t46.5 18q24 0 39.5 -15t15.5 -38q0 -32 -20 -51t-46 -19zM366 726q-20 0 -37.5 14.5t-17.5 39.5q0 33 21 51t45 18t40 -15t16 -38q0 -32 -20.5 -51t-46.5 -19z" />
    <glyph glyph-name="Eth" unicode="&#xd0;" horiz-adv-x="663" 
d="M4 0l4 21l14 5q40 15 47 54l45 241h-62l6 35h63q10 52 20 111t20 114q6 40 -31 54l-12 5l5 21h229q100 0 168.5 -35.5t103.5 -98.5t35 -144q0 -91 -32 -162t-87.5 -120.5t-128 -75t-153.5 -25.5h-254zM191 29h59q86 0 146.5 48.5t92.5 130.5t32 183q0 119 -48 178
t-139 63h-32l-52 -276h163l-6 -35h-164l-2 -11l-26 -140t-24 -141z" />
    <glyph glyph-name="Ntilde" unicode="&#xd1;" horiz-adv-x="633" 
d="M470 -5l-283 536l-85 -450q-8 -41 32 -55l18 -5l-4 -21h-152l4 21l21 7q40 12 47 52l96 505l-9 17q-7 14 -16 21.5t-23 14.5l-7 2l4 21h151l259 -486l77 409q7 39 -30 51l-15 5l4 21h145l-4 -21l-20 -6q-39 -12 -46 -51l-110 -588h-54zM221 724q20 68 53.5 101.5
t75.5 33.5q29 0 46 -10t33 -24q16 -15 30.5 -29.5t36.5 -14.5q24 0 44 16.5t39 57.5l21 -9q-20 -72 -52 -103.5t-75 -31.5q-27 0 -45 10t-33 23q-16 14 -31 29.5t-38 15.5q-25 0 -44.5 -16.5t-38.5 -57.5z" />
    <glyph glyph-name="Ograve" unicode="&#xd2;" horiz-adv-x="666" 
d="M300 -17q-72 0 -127.5 31.5t-87.5 92.5t-32 151q0 83 26 158.5t74.5 134.5t116 93t150.5 34q75 0 130.5 -33.5t86.5 -95t31 -145.5q0 -85 -26 -161t-74.5 -134.5t-116 -92t-151.5 -33.5zM310 13q46 0 86.5 32.5t71.5 89.5t48.5 131.5t17.5 159.5q0 107 -28 164.5
t-93 57.5q-46 0 -87 -32t-72.5 -88t-49.5 -130.5t-18 -159.5q0 -108 30 -166.5t94 -58.5zM466 730l-13 -19q-37 16 -74.5 31t-74.5 31q-34 15 -45 30.5t-11 29.5q0 18 14 31.5t35 13.5q16 0 30 -8.5t36 -31.5q24 -25 51 -53.5t52 -54.5z" />
    <glyph glyph-name="Oacute" unicode="&#xd3;" horiz-adv-x="666" 
d="M300 -17q-72 0 -127.5 31.5t-87.5 92.5t-32 151q0 83 26 158.5t74.5 134.5t116 93t150.5 34q75 0 130.5 -33.5t86.5 -95t31 -145.5q0 -85 -26 -161t-74.5 -134.5t-116 -92t-151.5 -33.5zM310 13q46 0 86.5 32.5t71.5 89.5t48.5 131.5t17.5 159.5q0 107 -28 164.5
t-93 57.5q-46 0 -87 -32t-72.5 -88t-49.5 -130.5t-18 -159.5q0 -108 30 -166.5t94 -58.5zM342 725q29 26 59 54.5t58 54.5q23 23 37.5 30.5t33.5 7.5q21 0 33 -13.5t12 -31.5q0 -16 -13.5 -30t-48.5 -28q-41 -16 -80.5 -31.5t-78.5 -30.5z" />
    <glyph glyph-name="Ocircumflex" unicode="&#xd4;" horiz-adv-x="666" 
d="M300 -17q-72 0 -127.5 31.5t-87.5 92.5t-32 151q0 83 26 158.5t74.5 134.5t116 93t150.5 34q75 0 130.5 -33.5t86.5 -95t31 -145.5q0 -85 -26 -161t-74.5 -134.5t-116 -92t-151.5 -33.5zM310 13q46 0 86.5 32.5t71.5 89.5t48.5 131.5t17.5 159.5q0 107 -28 164.5
t-93 57.5q-46 0 -87 -32t-72.5 -88t-49.5 -130.5t-18 -159.5q0 -108 30 -166.5t94 -58.5zM464 866l121 -155l-15 -15l-128 85l-156 -85l-12 17l165 153h25z" />
    <glyph glyph-name="Otilde" unicode="&#xd5;" horiz-adv-x="666" 
d="M300 -17q-72 0 -127.5 31.5t-87.5 92.5t-32 151q0 83 26 158.5t74.5 134.5t116 93t150.5 34q75 0 130.5 -33.5t86.5 -95t31 -145.5q0 -85 -26 -161t-74.5 -134.5t-116 -92t-151.5 -33.5zM310 13q46 0 86.5 32.5t71.5 89.5t48.5 131.5t17.5 159.5q0 107 -28 164.5
t-93 57.5q-46 0 -87 -32t-72.5 -88t-49.5 -130.5t-18 -159.5q0 -108 30 -166.5t94 -58.5zM253 723q20 68 53.5 101.5t75.5 33.5q29 0 46 -10t33 -24q16 -15 30.5 -29.5t36.5 -14.5q24 0 44 16.5t39 57.5l21 -9q-20 -72 -52 -103.5t-75 -31.5q-27 0 -45 10t-33 23
q-16 14 -31 29.5t-38 15.5q-25 0 -44.5 -16.5t-38.5 -57.5z" />
    <glyph glyph-name="Odieresis" unicode="&#xd6;" horiz-adv-x="666" 
d="M300 -17q-72 0 -127.5 31.5t-87.5 92.5t-32 151q0 83 26 158.5t74.5 134.5t116 93t150.5 34q75 0 130.5 -33.5t86.5 -95t31 -145.5q0 -85 -26 -161t-74.5 -134.5t-116 -92t-151.5 -33.5zM310 13q46 0 86.5 32.5t71.5 89.5t48.5 131.5t17.5 159.5q0 107 -28 164.5
t-93 57.5q-46 0 -87 -32t-72.5 -88t-49.5 -130.5t-18 -159.5q0 -108 30 -166.5t94 -58.5zM319 725q-22 0 -39.5 14.5t-17.5 39.5q0 33 21.5 51t46.5 18q24 0 39.5 -15t15.5 -38q0 -32 -20 -51t-46 -19zM546 725q-20 0 -37.5 14.5t-17.5 39.5q0 33 21 51t45 18t40 -15t16 -38
q0 -32 -20.5 -51t-46.5 -19z" />
    <glyph glyph-name="multiply" unicode="&#xd7;" horiz-adv-x="540" 
d="M108 124l-26 26l177 176l-176 176l26 26l176 -176l177 177l27 -26l-178 -177l180 -178l-26 -26l-180 178z" />
    <glyph glyph-name="Oslash" unicode="&#xd8;" horiz-adv-x="666" 
d="M300 -17q-56 0 -103 19t-80 57l-77 -81l-26 25l81 86q-20 32 -31 74.5t-11 94.5q0 83 26 158.5t74.5 134.5t116 93t150.5 34q53 0 96.5 -17t75.5 -49l67 70l26 -25l-69 -73q25 -34 38.5 -79.5t13.5 -100.5q0 -85 -26 -161t-74.5 -134.5t-116 -92t-151.5 -33.5zM179 239
q0 -32 2 -60l348 367q-25 102 -116 102q-48 0 -90.5 -32t-74.5 -88t-50.5 -130.5t-18.5 -158.5zM309 13q48 0 90 32.5t74 90t50 132t18 158.5q0 42 -4 75l-349 -368q12 -62 42 -91t79 -29z" />
    <glyph glyph-name="Ugrave" unicode="&#xd9;" horiz-adv-x="627" 
d="M304 -17q-100 0 -161.5 49.5t-61.5 148.5q0 22 3 46t7 49l15 82q9 50 19.5 107.5t20.5 111.5q7 47 -38 61l-8 2l4 21h247l-4 -21l-11 -3q-44 -13 -53 -58l-56 -297q-4 -23 -7 -46.5t-3 -48.5q0 -65 34.5 -101.5t95.5 -36.5q79 0 124.5 51t63.5 146l63 332q9 46 -36 60
l-7 2l4 21h141l-4 -21l-9 -3q-44 -12 -53 -58l-63 -343q-22 -121 -89.5 -187t-177.5 -66zM488 731l-13 -19q-37 16 -74.5 31t-74.5 31q-34 15 -45 30.5t-11 29.5q0 18 14 31.5t35 13.5q16 0 30 -8.5t36 -31.5q24 -25 51 -53.5t52 -54.5z" />
    <glyph glyph-name="Uacute" unicode="&#xda;" horiz-adv-x="627" 
d="M304 -17q-100 0 -161.5 49.5t-61.5 148.5q0 22 3 46t7 49l15 82q9 50 19.5 107.5t20.5 111.5q7 47 -38 61l-8 2l4 21h247l-4 -21l-11 -3q-44 -13 -53 -58l-56 -297q-4 -23 -7 -46.5t-3 -48.5q0 -65 34.5 -101.5t95.5 -36.5q79 0 124.5 51t63.5 146l63 332q9 46 -36 60
l-7 2l4 21h141l-4 -21l-9 -3q-44 -12 -53 -58l-63 -343q-22 -121 -89.5 -187t-177.5 -66zM364 726q29 26 59 54.5t58 54.5q23 23 37.5 30.5t33.5 7.5q21 0 33 -13.5t12 -31.5q0 -16 -13.5 -30t-48.5 -28q-41 -16 -80.5 -31.5t-78.5 -30.5z" />
    <glyph glyph-name="Ucircumflex" unicode="&#xdb;" horiz-adv-x="627" 
d="M304 -17q-100 0 -161.5 49.5t-61.5 148.5q0 22 3 46t7 49l15 82q9 50 19.5 107.5t20.5 111.5q7 47 -38 61l-8 2l4 21h247l-4 -21l-11 -3q-44 -13 -53 -58l-56 -297q-4 -23 -7 -46.5t-3 -48.5q0 -65 34.5 -101.5t95.5 -36.5q79 0 124.5 51t63.5 146l63 332q9 46 -36 60
l-7 2l4 21h141l-4 -21l-9 -3q-44 -12 -53 -58l-63 -343q-22 -121 -89.5 -187t-177.5 -66zM486 867l121 -155l-15 -15l-128 85l-156 -85l-12 17l165 153h25z" />
    <glyph glyph-name="Udieresis" unicode="&#xdc;" horiz-adv-x="627" 
d="M304 -17q-100 0 -161.5 49.5t-61.5 148.5q0 22 3 46t7 49l15 82q9 50 19.5 107.5t20.5 111.5q7 47 -38 61l-8 2l4 21h247l-4 -21l-11 -3q-44 -13 -53 -58l-56 -297q-4 -23 -7 -46.5t-3 -48.5q0 -65 34.5 -101.5t95.5 -36.5q79 0 124.5 51t63.5 146l63 332q9 46 -36 60
l-7 2l4 21h141l-4 -21l-9 -3q-44 -12 -53 -58l-63 -343q-22 -121 -89.5 -187t-177.5 -66zM341 726q-22 0 -39.5 14.5t-17.5 39.5q0 33 21.5 51t46.5 18q24 0 39.5 -15t15.5 -38q0 -32 -20 -51t-46 -19zM568 726q-20 0 -37.5 14.5t-17.5 39.5q0 33 21 51t45 18t40 -15t16 -38
q0 -32 -20.5 -51t-46.5 -19z" />
    <glyph glyph-name="Yacute" unicode="&#xdd;" horiz-adv-x="568" 
d="M132 0l4 21l24 7q39 10 46 51l37 190l-108 321q-12 36 -46 46l-12 4l4 21h245l-4 -21l-18 -5q-35 -9 -25 -44l82 -273l171 276q8 14 4 25.5t-20 15.5l-17 5l4 21h143l-4 -21l-20 -6q-37 -10 -56 -42l-191 -307q-8 -46 -18.5 -102t-18.5 -106q-8 -38 31 -50l22 -6l-5 -21
h-254zM332 726q29 26 59 54.5t58 54.5q23 23 37.5 30.5t33.5 7.5q21 0 33 -13.5t12 -31.5q0 -16 -13.5 -30t-48.5 -28q-41 -16 -80.5 -31.5t-78.5 -30.5z" />
    <glyph glyph-name="Thorn" unicode="&#xde;" horiz-adv-x="554" 
d="M4 0l3 21l14 4q40 12 47 52l52 274q23 119 42 237q6 36 -29 48l-15 4l5 21h235l-4 -21l-14 -3q-39 -11 -46 -51l-10 -51h36q128 0 185.5 -48t57.5 -131q0 -59 -34.5 -107.5t-102.5 -77t-171 -28.5h-45q-3 -18 -5.5 -35t-5.5 -34q-6 -35 28 -47l21 -6l-4 -21h-240z
M216 172h44q82 0 127 50.5t45 138.5q0 71 -30.5 108t-93.5 37h-29l-38 -196q-6 -34 -12.5 -68.5t-12.5 -69.5z" />
    <glyph glyph-name="germandbls" unicode="&#xdf;" horiz-adv-x="559" 
d="M-46 -241q-52 0 -81.5 18.5t-29.5 49.5q0 25 16 40.5t40 15.5q44 0 75 -52l9 -27q5 -8 13 -9t12 7q11 19 24 53q14 35 25.5 81t21.5 107q17 102 32 203t31 207q15 93 54.5 149.5t96 82t121.5 25.5q77 0 121.5 -29t44.5 -72q0 -30 -17.5 -52t-46.5 -42.5t-62 -44.5
q-31 -22 -46.5 -42.5t-15.5 -46.5q0 -30 21.5 -53.5t63.5 -52.5q44 -34 62 -65.5t18 -79.5q0 -40 -22.5 -73t-62 -52t-92.5 -19q-61 0 -100.5 20.5t-39.5 63.5q0 25 15.5 39t36.5 14t35.5 -12.5t20.5 -41.5l6 -24q5 -19 14 -26.5t24 -7.5q27 0 45.5 21.5t18.5 54.5
q0 31 -14.5 55.5t-54.5 53.5q-39 29 -59.5 61t-20.5 74q0 44 31 77.5t77 70.5q38 32 50 64.5t12 65.5q0 37 -19 57t-48 20q-58 0 -93.5 -49t-52.5 -148q-18 -115 -35 -228t-37 -218q-14 -75 -36.5 -130t-60.5 -93q-33 -32 -68 -46.5t-73 -14.5z" />
    <glyph glyph-name="agrave" unicode="&#xe0;" horiz-adv-x="554" 
d="M152 -14q-41 0 -73.5 30t-32.5 102q0 53 20.5 107t55 102.5t77.5 86t88.5 59.5t86.5 22q20 0 37.5 -8t32.5 -21l75 33l11 -7l-85 -373q-8 -32 -8 -47q0 -21 20 -21q14 0 31 11.5t38 31.5l12 -12q-15 -23 -37 -45t-49.5 -36.5t-57.5 -14.5q-31 0 -52 19.5t-21 60.5
q0 14 2 30q-41 -46 -86 -78t-85 -32zM162 164q0 -51 16.5 -73.5t44.5 -22.5q24 0 49 15.5t56 46.5q1 6 3 16l62 282q-13 13 -30 18.5t-32 5.5q-41 0 -90 -51q-35 -38 -57 -103.5t-22 -133.5zM391 552l-18 -12q-28 29 -57 57t-57 56q-21 20 -31.5 36t-10.5 37q0 23 16 36.5
t36 13.5q21 0 38 -15.5t28 -51.5q14 -40 28 -78.5t28 -78.5z" />
    <glyph glyph-name="aacute" unicode="&#xe1;" horiz-adv-x="554" 
d="M152 -14q-41 0 -73.5 30t-32.5 102q0 53 20.5 107t55 102.5t77.5 86t88.5 59.5t86.5 22q20 0 37.5 -8t32.5 -21l75 33l11 -7l-85 -373q-8 -32 -8 -47q0 -21 20 -21q14 0 31 11.5t38 31.5l12 -12q-15 -23 -37 -45t-49.5 -36.5t-57.5 -14.5q-31 0 -52 19.5t-21 60.5
q0 14 2 30q-41 -46 -86 -78t-85 -32zM162 164q0 -51 16.5 -73.5t44.5 -22.5q24 0 49 15.5t56 46.5q1 6 3 16l62 282q-13 13 -30 18.5t-32 5.5q-41 0 -90 -51q-35 -38 -57 -103.5t-22 -133.5zM372 551q14 41 28 81t27 80q11 35 28 49t37 14q21 0 37 -13t16 -36
q0 -18 -10.5 -34.5t-30.5 -36.5q-29 -30 -57 -58.5t-57 -57.5z" />
    <glyph glyph-name="acircumflex" unicode="&#xe2;" horiz-adv-x="554" 
d="M152 -14q-41 0 -73.5 30t-32.5 102q0 53 20.5 107t55 102.5t77.5 86t88.5 59.5t86.5 22q20 0 37.5 -8t32.5 -21l75 33l11 -7l-85 -373q-8 -32 -8 -47q0 -21 20 -21q14 0 31 11.5t38 31.5l12 -12q-15 -23 -37 -45t-49.5 -36.5t-57.5 -14.5q-31 0 -52 19.5t-21 60.5
q0 14 2 30q-41 -46 -86 -78t-85 -32zM162 164q0 -51 16.5 -73.5t44.5 -22.5q24 0 49 15.5t56 46.5q1 6 3 16l62 282q-13 13 -30 18.5t-32 5.5q-41 0 -90 -51q-35 -38 -57 -103.5t-22 -133.5zM518 545l-114 111l-147 -112l-17 20l166 186h27l105 -189z" />
    <glyph glyph-name="atilde" unicode="&#xe3;" horiz-adv-x="554" 
d="M152 -14q-41 0 -73.5 30t-32.5 102q0 53 20.5 107t55 102.5t77.5 86t88.5 59.5t86.5 22q20 0 37.5 -8t32.5 -21l75 33l11 -7l-85 -373q-8 -32 -8 -47q0 -21 20 -21q14 0 31 11.5t38 31.5l12 -12q-15 -23 -37 -45t-49.5 -36.5t-57.5 -14.5q-31 0 -52 19.5t-21 60.5
q0 14 2 30q-41 -46 -86 -78t-85 -32zM162 164q0 -51 16.5 -73.5t44.5 -22.5q24 0 49 15.5t56 46.5q1 6 3 16l62 282q-13 13 -30 18.5t-32 5.5q-41 0 -90 -51q-35 -38 -57 -103.5t-22 -133.5zM222 586q16 70 49 103.5t70 33.5q29 0 46 -10t31 -24q15 -13 31 -26.5t37 -13.5
q46 0 76 70l20 -9q-16 -73 -47 -105t-69 -32q-28 0 -45 9.5t-31 22.5q-14 14 -30.5 27.5t-39.5 13.5q-47 0 -76 -69z" />
    <glyph glyph-name="adieresis" unicode="&#xe4;" horiz-adv-x="554" 
d="M152 -14q-41 0 -73.5 30t-32.5 102q0 53 20.5 107t55 102.5t77.5 86t88.5 59.5t86.5 22q20 0 37.5 -8t32.5 -21l75 33l11 -7l-85 -373q-8 -32 -8 -47q0 -21 20 -21q14 0 31 11.5t38 31.5l12 -12q-15 -23 -37 -45t-49.5 -36.5t-57.5 -14.5q-31 0 -52 19.5t-21 60.5
q0 14 2 30q-41 -46 -86 -78t-85 -32zM162 164q0 -51 16.5 -73.5t44.5 -22.5q24 0 49 15.5t56 46.5q1 6 3 16l62 282q-13 13 -30 18.5t-32 5.5q-41 0 -90 -51q-35 -38 -57 -103.5t-22 -133.5zM293 604q-24 0 -42 15t-18 42q0 34 22.5 53.5t49.5 19.5q25 0 41.5 -15.5
t16.5 -40.5q0 -34 -21.5 -54t-48.5 -20zM505 604q-23 0 -40.5 15t-17.5 42q0 34 22 53.5t48 19.5q25 0 42 -15.5t17 -40.5q0 -34 -21.5 -54t-49.5 -20z" />
    <glyph glyph-name="aring" unicode="&#xe5;" horiz-adv-x="554" 
d="M152 -14q-41 0 -73.5 30t-32.5 102q0 53 20.5 107t55 102.5t77.5 86t88.5 59.5t86.5 22q20 0 37.5 -8t32.5 -21l75 33l11 -7l-85 -373q-8 -32 -8 -47q0 -21 20 -21q14 0 31 11.5t38 31.5l12 -12q-15 -23 -37 -45t-49.5 -36.5t-57.5 -14.5q-31 0 -52 19.5t-21 60.5
q0 14 2 30q-41 -46 -86 -78t-85 -32zM162 164q0 -51 16.5 -73.5t44.5 -22.5q24 0 49 15.5t56 46.5q1 6 3 16l62 282q-13 13 -30 18.5t-32 5.5q-41 0 -90 -51q-35 -38 -57 -103.5t-22 -133.5zM398 547q-46 0 -77.5 27t-31.5 72q0 39 18 66t47 41.5t60 14.5q44 0 76 -26
t32 -71q0 -40 -18 -67.5t-46 -42t-60 -14.5zM398 579q30 0 50 23.5t20 63.5q0 29 -13.5 50t-42.5 21q-31 0 -50 -25t-19 -62q0 -30 14 -50.5t41 -20.5z" />
    <glyph glyph-name="ae" unicode="&#xe6;" horiz-adv-x="728" 
d="M152 -14q-41 0 -73.5 30t-32.5 102q0 53 20.5 107t55 102.5t77.5 86t88.5 59.5t86.5 22q26 0 48.5 -13t42.5 -36q32 23 70 36t79 13q62 0 94.5 -28t32.5 -75q0 -57 -75.5 -112.5t-218.5 -86.5q3 -65 31 -95t77 -30q44 0 79 23t59 54l15 -11q-20 -38 -51.5 -72t-71.5 -55
t-89 -21q-60 0 -102 31t-57 91q-44 -49 -92.5 -85.5t-92.5 -36.5zM604 461q-23 0 -49 -19.5t-49.5 -53t-39.5 -77t-19 -92.5q112 33 157.5 82t45.5 104q0 29 -13 42.5t-33 13.5zM162 164q0 -51 16.5 -73.5t44.5 -22.5q25 0 51 17t58 49q-3 19 -3 39q0 64 22.5 123t62.5 104
q-15 29 -39 40.5t-44 11.5q-41 0 -90 -51q-35 -38 -57 -103.5t-22 -133.5z" />
    <glyph glyph-name="ccedilla" unicode="&#xe7;" horiz-adv-x="449" 
d="M217 -14q-73 0 -119.5 49t-46.5 139q0 64 22.5 122t61.5 102.5t90 70.5t108 26q35 0 64.5 -11t47.5 -30t17 -45t-17 -41t-40 -15q-27 0 -43.5 15t-27.5 37l-7 16q-13 29 -25 33t-35 -15q-26 -23 -49.5 -60.5t-37.5 -83.5t-14 -95q0 -71 32 -105t85 -34q36 0 70 22.5
t63 60.5l16 -13q-20 -38 -53 -71.5t-74 -53.5t-88 -20zM140 -89l43 89h32l-28 -61q50 -15 73 -36.5t23 -54.5q0 -32 -28.5 -55.5t-82.5 -23.5q-28 0 -51 8.5t-37 19.5l12 24q29 -15 60 -15q26 0 41 11.5t15 33.5q0 26 -20 39.5t-52 20.5z" />
    <glyph glyph-name="egrave" unicode="&#xe8;" horiz-adv-x="450" 
d="M218 -14q-74 0 -120.5 48t-46.5 139q0 63 22 121t60.5 103.5t90.5 71.5t112 26q62 0 94.5 -28t32.5 -75q0 -57 -75.5 -112.5t-218.5 -86.5q3 -65 31 -95t77 -30q44 0 79 23t59 54l15 -11q-20 -38 -51.5 -72t-71.5 -55t-89 -21zM326 461q-23 0 -49 -19.5t-49.5 -53
t-39.5 -77t-19 -92.5q112 33 157.5 82t45.5 104q0 29 -13 42.5t-33 13.5zM362 552l-18 -12q-28 29 -57 57t-57 56q-21 20 -31.5 36t-10.5 37q0 23 16 36.5t36 13.5q21 0 38 -15.5t28 -51.5q14 -40 28 -78.5t28 -78.5z" />
    <glyph glyph-name="eacute" unicode="&#xe9;" horiz-adv-x="450" 
d="M218 -14q-74 0 -120.5 48t-46.5 139q0 63 22 121t60.5 103.5t90.5 71.5t112 26q62 0 94.5 -28t32.5 -75q0 -57 -75.5 -112.5t-218.5 -86.5q3 -65 31 -95t77 -30q44 0 79 23t59 54l15 -11q-20 -38 -51.5 -72t-71.5 -55t-89 -21zM326 461q-23 0 -49 -19.5t-49.5 -53
t-39.5 -77t-19 -92.5q112 33 157.5 82t45.5 104q0 29 -13 42.5t-33 13.5zM343 551q14 41 28 81t27 80q11 35 28 49t37 14q21 0 37 -13t16 -36q0 -18 -10.5 -34.5t-30.5 -36.5q-29 -30 -57 -58.5t-57 -57.5z" />
    <glyph glyph-name="ecircumflex" unicode="&#xea;" horiz-adv-x="450" 
d="M218 -14q-74 0 -120.5 48t-46.5 139q0 63 22 121t60.5 103.5t90.5 71.5t112 26q62 0 94.5 -28t32.5 -75q0 -57 -75.5 -112.5t-218.5 -86.5q3 -65 31 -95t77 -30q44 0 79 23t59 54l15 -11q-20 -38 -51.5 -72t-71.5 -55t-89 -21zM326 461q-23 0 -49 -19.5t-49.5 -53
t-39.5 -77t-19 -92.5q112 33 157.5 82t45.5 104q0 29 -13 42.5t-33 13.5zM489 545l-114 111l-147 -112l-17 20l166 186h27l105 -189z" />
    <glyph glyph-name="edieresis" unicode="&#xeb;" horiz-adv-x="450" 
d="M218 -14q-74 0 -120.5 48t-46.5 139q0 63 22 121t60.5 103.5t90.5 71.5t112 26q62 0 94.5 -28t32.5 -75q0 -57 -75.5 -112.5t-218.5 -86.5q3 -65 31 -95t77 -30q44 0 79 23t59 54l15 -11q-20 -38 -51.5 -72t-71.5 -55t-89 -21zM326 461q-23 0 -49 -19.5t-49.5 -53
t-39.5 -77t-19 -92.5q112 33 157.5 82t45.5 104q0 29 -13 42.5t-33 13.5zM264 604q-24 0 -42 15t-18 42q0 34 22.5 53.5t49.5 19.5q25 0 41.5 -15.5t16.5 -40.5q0 -34 -21.5 -54t-48.5 -20zM476 604q-23 0 -40.5 15t-17.5 42q0 34 22 53.5t48 19.5q25 0 42 -15.5t17 -40.5
q0 -34 -21.5 -54t-49.5 -20z" />
    <glyph glyph-name="igrave" unicode="&#xec;" horiz-adv-x="279" 
d="M121 -14q-30 0 -49.5 15.5t-19.5 45.5q0 17 4 41t9 49l47 226q9 42 -31 57l-14 6l2 18l180 52l10 -10l-76 -357q-4 -17 -6 -29.5t-2 -23.5q0 -22 20 -22q16 0 33.5 12.5t43.5 40.5l15 -11q-28 -43 -69 -76.5t-97 -33.5zM214 552l-18 -12q-28 29 -57 57t-57 56
q-21 20 -31.5 36t-10.5 37q0 23 16 36.5t36 13.5q21 0 38 -15.5t28 -51.5q14 -40 28 -78.5t28 -78.5z" />
    <glyph glyph-name="iacute" unicode="&#xed;" horiz-adv-x="279" 
d="M121 -14q-30 0 -49.5 15.5t-19.5 45.5q0 17 4 41t9 49l47 226q9 42 -31 57l-14 6l2 18l180 52l10 -10l-76 -357q-4 -17 -6 -29.5t-2 -23.5q0 -22 20 -22q16 0 33.5 12.5t43.5 40.5l15 -11q-28 -43 -69 -76.5t-97 -33.5zM195 551q14 41 28 81t27 80q11 35 28 49t37 14
q21 0 37 -13t16 -36q0 -18 -10.5 -34.5t-30.5 -36.5q-29 -30 -57 -58.5t-57 -57.5z" />
    <glyph glyph-name="icircumflex" unicode="&#xee;" horiz-adv-x="279" 
d="M121 -14q-30 0 -49.5 15.5t-19.5 45.5q0 17 4 41t9 49l47 226q9 42 -31 57l-14 6l2 18l180 52l10 -10l-76 -357q-4 -17 -6 -29.5t-2 -23.5q0 -22 20 -22q16 0 33.5 12.5t43.5 40.5l15 -11q-28 -43 -69 -76.5t-97 -33.5zM341 545l-114 111l-147 -112l-17 20l166 186h27
l105 -189z" />
    <glyph glyph-name="idieresis" unicode="&#xef;" horiz-adv-x="279" 
d="M121 -14q-30 0 -49.5 15.5t-19.5 45.5q0 17 4 41t9 49l47 226q9 42 -31 57l-14 6l2 18l180 52l10 -10l-76 -357q-4 -17 -6 -29.5t-2 -23.5q0 -22 20 -22q16 0 33.5 12.5t43.5 40.5l15 -11q-28 -43 -69 -76.5t-97 -33.5zM116 604q-24 0 -42 15t-18 42q0 34 22.5 53.5
t49.5 19.5q25 0 41.5 -15.5t16.5 -40.5q0 -34 -21.5 -54t-48.5 -20zM328 604q-23 0 -40.5 15t-17.5 42q0 34 22 53.5t48 19.5q25 0 42 -15.5t17 -40.5q0 -34 -21.5 -54t-49.5 -20z" />
    <glyph glyph-name="eth" unicode="&#xf0;" horiz-adv-x="512" 
d="M235 -14q-81 0 -133.5 47.5t-52.5 142.5q0 66 20.5 122.5t57 98t84 65t101.5 23.5q52 0 81 -31q-16 96 -57 157l-135 -68l-12 26l129 67q-37 43 -97 80l15 24q75 -29 132 -78l121 63l14 -29l-111 -56q56 -57 86.5 -135t30.5 -173q0 -103 -36.5 -181t-98.5 -121.5
t-139 -43.5zM245 14q31 0 57.5 25.5t46 69.5t30.5 100.5t11 118.5q0 74 -19 101t-51 27q-41 0 -74 -40t-52.5 -106t-19.5 -146q0 -84 20 -117t51 -33z" />
    <glyph glyph-name="ntilde" unicode="&#xf1;" horiz-adv-x="546" 
d="M46 -8l-10 9l76 363q9 40 -30 56l-15 6l2 17l177 53l11 -10l-22 -113q52 55 106 88.5t101 33.5q32 0 52.5 -19.5t20.5 -59.5q0 -22 -4 -44.5t-10 -46.5l-51 -205q-4 -16 -6.5 -27.5t-2.5 -19.5q0 -21 17 -21q26 0 66 42l14 -14q-25 -37 -65 -65.5t-89 -28.5q-31 0 -49 15
t-18 41q0 21 5 42.5t12 46.5l39 158q8 30 13 54t5 43q0 20 -8.5 27.5t-22.5 7.5q-24 0 -57.5 -20.5t-75.5 -64.5l-27 -123q-11 -53 -21 -106t-20 -107zM176 586q16 70 49 103.5t70 33.5q29 0 46 -10t31 -24q15 -13 31 -26.5t37 -13.5q46 0 76 70l20 -9q-16 -73 -47 -105
t-69 -32q-28 0 -45 9.5t-31 22.5q-14 14 -30.5 27.5t-39.5 13.5q-47 0 -76 -69z" />
    <glyph glyph-name="ograve" unicode="&#xf2;" horiz-adv-x="519" 
d="M234 -14q-51 0 -93 20t-67 61.5t-25 104.5q0 64 21.5 122t60 103.5t90 71.5t110.5 26q79 0 131 -45.5t52 -140.5q0 -63 -21.5 -121t-59.5 -103.5t-89 -72t-110 -26.5zM246 14q32 0 58 27.5t45 72.5t29.5 100.5t10.5 110.5q0 79 -18.5 110t-47.5 31q-32 0 -59.5 -26.5
t-47.5 -71.5t-31 -99.5t-11 -110.5q0 -81 20.5 -112.5t51.5 -31.5zM352 552l-18 -12q-28 29 -57 57t-57 56q-21 20 -31.5 36t-10.5 37q0 23 16 36.5t36 13.5q21 0 38 -15.5t28 -51.5q14 -40 28 -78.5t28 -78.5z" />
    <glyph glyph-name="oacute" unicode="&#xf3;" horiz-adv-x="519" 
d="M234 -14q-51 0 -93 20t-67 61.5t-25 104.5q0 64 21.5 122t60 103.5t90 71.5t110.5 26q79 0 131 -45.5t52 -140.5q0 -63 -21.5 -121t-59.5 -103.5t-89 -72t-110 -26.5zM246 14q32 0 58 27.5t45 72.5t29.5 100.5t10.5 110.5q0 79 -18.5 110t-47.5 31q-32 0 -59.5 -26.5
t-47.5 -71.5t-31 -99.5t-11 -110.5q0 -81 20.5 -112.5t51.5 -31.5zM333 551q14 41 28 81t27 80q11 35 28 49t37 14q21 0 37 -13t16 -36q0 -18 -10.5 -34.5t-30.5 -36.5q-29 -30 -57 -58.5t-57 -57.5z" />
    <glyph glyph-name="ocircumflex" unicode="&#xf4;" horiz-adv-x="519" 
d="M234 -14q-51 0 -93 20t-67 61.5t-25 104.5q0 64 21.5 122t60 103.5t90 71.5t110.5 26q79 0 131 -45.5t52 -140.5q0 -63 -21.5 -121t-59.5 -103.5t-89 -72t-110 -26.5zM246 14q32 0 58 27.5t45 72.5t29.5 100.5t10.5 110.5q0 79 -18.5 110t-47.5 31q-32 0 -59.5 -26.5
t-47.5 -71.5t-31 -99.5t-11 -110.5q0 -81 20.5 -112.5t51.5 -31.5zM479 545l-114 111l-147 -112l-17 20l166 186h27l105 -189z" />
    <glyph glyph-name="otilde" unicode="&#xf5;" horiz-adv-x="519" 
d="M234 -14q-51 0 -93 20t-67 61.5t-25 104.5q0 64 21.5 122t60 103.5t90 71.5t110.5 26q79 0 131 -45.5t52 -140.5q0 -63 -21.5 -121t-59.5 -103.5t-89 -72t-110 -26.5zM246 14q32 0 58 27.5t45 72.5t29.5 100.5t10.5 110.5q0 79 -18.5 110t-47.5 31q-32 0 -59.5 -26.5
t-47.5 -71.5t-31 -99.5t-11 -110.5q0 -81 20.5 -112.5t51.5 -31.5zM183 586q16 70 49 103.5t70 33.5q29 0 46 -10t31 -24q15 -13 31 -26.5t37 -13.5q46 0 76 70l20 -9q-16 -73 -47 -105t-69 -32q-28 0 -45 9.5t-31 22.5q-14 14 -30.5 27.5t-39.5 13.5q-47 0 -76 -69z" />
    <glyph glyph-name="odieresis" unicode="&#xf6;" horiz-adv-x="519" 
d="M234 -14q-51 0 -93 20t-67 61.5t-25 104.5q0 64 21.5 122t60 103.5t90 71.5t110.5 26q79 0 131 -45.5t52 -140.5q0 -63 -21.5 -121t-59.5 -103.5t-89 -72t-110 -26.5zM246 14q32 0 58 27.5t45 72.5t29.5 100.5t10.5 110.5q0 79 -18.5 110t-47.5 31q-32 0 -59.5 -26.5
t-47.5 -71.5t-31 -99.5t-11 -110.5q0 -81 20.5 -112.5t51.5 -31.5zM254 604q-24 0 -42 15t-18 42q0 34 22.5 53.5t49.5 19.5q25 0 41.5 -15.5t16.5 -40.5q0 -34 -21.5 -54t-48.5 -20zM466 604q-23 0 -40.5 15t-17.5 42q0 34 22 53.5t48 19.5q25 0 42 -15.5t17 -40.5
q0 -34 -21.5 -54t-49.5 -20z" />
    <glyph glyph-name="divide" unicode="&#xf7;" horiz-adv-x="540" 
d="M287 449q-28 0 -48 19t-20 47q0 29 20 47t48 18t47.5 -18t19.5 -47q0 -28 -19.5 -47t-47.5 -19zM61 307v36h452v-36h-452zM287 71q-28 0 -48 18t-20 46q0 29 20 47.5t48 18.5t47.5 -18.5t19.5 -47.5q0 -28 -19.5 -46t-47.5 -18z" />
    <glyph glyph-name="oslash" unicode="&#xf8;" horiz-adv-x="519" 
d="M234 -14q-41 0 -76.5 13t-61.5 39l-62 -63l-23 21l66 67q-13 21 -20.5 48.5t-7.5 60.5q0 64 21.5 122t60 103.5t90 71.5t110.5 26q39 0 72 -11t58 -34l58 59l23 -21l-61 -61q16 -22 24.5 -51.5t8.5 -66.5q0 -63 -21.5 -121t-59.5 -103.5t-89 -72t-110 -26.5zM167 158v-4
l225 227q-7 49 -26.5 67t-46.5 18q-33 0 -61 -26.5t-48 -71.5t-31.5 -99.5t-11.5 -110.5zM246 14q33 0 60.5 27.5t47.5 72.5t31 100.5t11 110.5v15l-227 -228q7 -57 27.5 -77.5t49.5 -20.5z" />
    <glyph glyph-name="ugrave" unicode="&#xf9;" horiz-adv-x="548" 
d="M136 -14q-33 0 -57 19.5t-24 60.5q0 23 5 51t11 55l43 191q9 41 -29 56l-17 7l2 18l180 52l12 -10l-69 -300q-6 -25 -10 -45t-4 -37q0 -22 10 -31.5t26 -9.5q24 0 52.5 16.5t68.5 52.5l1 5l34 161q8 41 16 81.5t15 81.5l117 35l13 -10l-78 -357q-3 -17 -5.5 -31t-2.5 -23
q0 -10 6 -15.5t13 -5.5q14 0 28.5 10.5t36.5 31.5l15 -15q-25 -35 -62.5 -65t-85.5 -30q-29 0 -49.5 20t-20.5 58q0 15 2 32q-52 -52 -100.5 -81t-92.5 -29zM351 552l-18 -12q-28 29 -57 57t-57 56q-21 20 -31.5 36t-10.5 37q0 23 16 36.5t36 13.5q21 0 38 -15.5t28 -51.5
q14 -40 28 -78.5t28 -78.5z" />
    <glyph glyph-name="uacute" unicode="&#xfa;" horiz-adv-x="548" 
d="M136 -14q-33 0 -57 19.5t-24 60.5q0 23 5 51t11 55l43 191q9 41 -29 56l-17 7l2 18l180 52l12 -10l-69 -300q-6 -25 -10 -45t-4 -37q0 -22 10 -31.5t26 -9.5q24 0 52.5 16.5t68.5 52.5l1 5l34 161q8 41 16 81.5t15 81.5l117 35l13 -10l-78 -357q-3 -17 -5.5 -31t-2.5 -23
q0 -10 6 -15.5t13 -5.5q14 0 28.5 10.5t36.5 31.5l15 -15q-25 -35 -62.5 -65t-85.5 -30q-29 0 -49.5 20t-20.5 58q0 15 2 32q-52 -52 -100.5 -81t-92.5 -29zM332 551q14 41 28 81t27 80q11 35 28 49t37 14q21 0 37 -13t16 -36q0 -18 -10.5 -34.5t-30.5 -36.5
q-29 -30 -57 -58.5t-57 -57.5z" />
    <glyph glyph-name="ucircumflex" unicode="&#xfb;" horiz-adv-x="548" 
d="M136 -14q-33 0 -57 19.5t-24 60.5q0 23 5 51t11 55l43 191q9 41 -29 56l-17 7l2 18l180 52l12 -10l-69 -300q-6 -25 -10 -45t-4 -37q0 -22 10 -31.5t26 -9.5q24 0 52.5 16.5t68.5 52.5l1 5l34 161q8 41 16 81.5t15 81.5l117 35l13 -10l-78 -357q-3 -17 -5.5 -31t-2.5 -23
q0 -10 6 -15.5t13 -5.5q14 0 28.5 10.5t36.5 31.5l15 -15q-25 -35 -62.5 -65t-85.5 -30q-29 0 -49.5 20t-20.5 58q0 15 2 32q-52 -52 -100.5 -81t-92.5 -29zM478 545l-114 111l-147 -112l-17 20l166 186h27l105 -189z" />
    <glyph glyph-name="udieresis" unicode="&#xfc;" horiz-adv-x="548" 
d="M136 -14q-33 0 -57 19.5t-24 60.5q0 23 5 51t11 55l43 191q9 41 -29 56l-17 7l2 18l180 52l12 -10l-69 -300q-6 -25 -10 -45t-4 -37q0 -22 10 -31.5t26 -9.5q24 0 52.5 16.5t68.5 52.5l1 5l34 161q8 41 16 81.5t15 81.5l117 35l13 -10l-78 -357q-3 -17 -5.5 -31t-2.5 -23
q0 -10 6 -15.5t13 -5.5q14 0 28.5 10.5t36.5 31.5l15 -15q-25 -35 -62.5 -65t-85.5 -30q-29 0 -49.5 20t-20.5 58q0 15 2 32q-52 -52 -100.5 -81t-92.5 -29zM253 604q-24 0 -42 15t-18 42q0 34 22.5 53.5t49.5 19.5q25 0 41.5 -15.5t16.5 -40.5q0 -34 -21.5 -54t-48.5 -20z
M465 604q-23 0 -40.5 15t-17.5 42q0 34 22 53.5t48 19.5q25 0 42 -15.5t17 -40.5q0 -34 -21.5 -54t-49.5 -20z" />
    <glyph glyph-name="yacute" unicode="&#xfd;" horiz-adv-x="516" 
d="M16 -231q-34 0 -57.5 18t-23.5 49q0 26 18 42.5t45 16.5q15 0 29 -5t29 -17q20 -17 39 -21t40 12q14 11 27 23t27 26q6 6 12 13q-13 103 -27.5 197t-30.5 199q-5 40 -9.5 59t-10.5 25t-14 6q-10 0 -22 -9t-28 -32l-15 16q66 108 138 108q37 0 53.5 -25t21.5 -80
q10 -95 18 -179t16 -173q36 83 61.5 164t49.5 180q16 68 35.5 92t50.5 24q21 0 37.5 -13t16.5 -36q0 -24 -9 -45t-26 -53q-16 -30 -35 -64t-45 -77q-28 -45 -59.5 -97t-73.5 -111q-22 -31 -47.5 -64t-62.5 -72q-42 -44 -83.5 -70.5t-84.5 -26.5zM338 546q14 41 28 81t27 80
q11 35 28 49t37 14q21 0 37 -13t16 -36q0 -18 -10.5 -34.5t-30.5 -36.5q-29 -30 -57 -58.5t-57 -57.5z" />
    <glyph glyph-name="thorn" unicode="&#xfe;" horiz-adv-x="517" 
d="M205 -14q-30 0 -56 13l-16 -82t-15 -81q-6 -33 28 -44l19 -5l-3 -18h-225l4 18l15 3q38 9 45 46l123 588q9 42 16.5 78.5t12.5 69.5q8 41 -34 53l-17 6l3 17l186 54l8 -8l-66 -315q41 52 92.5 84t95.5 32q41 0 70.5 -29t29.5 -104q0 -54 -18.5 -108t-50.5 -102.5
t-73 -85.5t-85.5 -58.5t-88.5 -21.5zM339 418q-23 0 -52.5 -19t-58.5 -52l-57 -275q36 -35 75 -35q61 0 102 65q15 24 27.5 59.5t20 76.5t7.5 79q0 49 -16 75t-48 26z" />
    <glyph glyph-name="ydieresis" unicode="&#xff;" horiz-adv-x="516" 
d="M16 -231q-34 0 -57.5 18t-23.5 49q0 26 18 42.5t45 16.5q15 0 29 -5t29 -17q20 -17 39 -21t40 12q14 11 27 23t27 26q6 6 12 13q-13 103 -27.5 197t-30.5 199q-5 40 -9.5 59t-10.5 25t-14 6q-10 0 -22 -9t-28 -32l-15 16q66 108 138 108q37 0 53.5 -25t21.5 -80
q10 -95 18 -179t16 -173q36 83 61.5 164t49.5 180q16 68 35.5 92t50.5 24q21 0 37.5 -13t16.5 -36q0 -24 -9 -45t-26 -53q-16 -30 -35 -64t-45 -77q-28 -45 -59.5 -97t-73.5 -111q-22 -31 -47.5 -64t-62.5 -72q-42 -44 -83.5 -70.5t-84.5 -26.5zM259 599q-24 0 -42 15
t-18 42q0 34 22.5 53.5t49.5 19.5q25 0 41.5 -15.5t16.5 -40.5q0 -34 -21.5 -54t-48.5 -20zM471 599q-23 0 -40.5 15t-17.5 42q0 34 22 53.5t48 19.5q25 0 42 -15.5t17 -40.5q0 -34 -21.5 -54t-49.5 -20z" />
    <glyph glyph-name="Amacron" unicode="&#x100;" horiz-adv-x="654" 
d="M-22 0l5 21l30 8q39 10 59 47l305 585h80l91 -583q6 -37 42 -49l24 -8l-5 -21h-244l4 21l19 6q35 11 31 48l-22 151h-214l-79 -152q-16 -35 19 -45l26 -8l-4 -21h-167zM351 551l-153 -296h195zM267 760l8 39h315l-8 -39h-315z" />
    <glyph glyph-name="amacron" unicode="&#x101;" horiz-adv-x="554" 
d="M152 -14q-41 0 -73.5 30t-32.5 102q0 53 20.5 107t55 102.5t77.5 86t88.5 59.5t86.5 22q20 0 37.5 -8t32.5 -21l75 33l11 -7l-85 -373q-8 -32 -8 -47q0 -21 20 -21q14 0 31 11.5t38 31.5l12 -12q-15 -23 -37 -45t-49.5 -36.5t-57.5 -14.5q-31 0 -52 19.5t-21 60.5
q0 14 2 30q-41 -46 -86 -78t-85 -32zM162 164q0 -51 16.5 -73.5t44.5 -22.5q24 0 49 15.5t56 46.5q1 6 3 16l62 282q-13 13 -30 18.5t-32 5.5q-41 0 -90 -51q-35 -38 -57 -103.5t-22 -133.5zM233 615l7 38h292l-7 -38h-292z" />
    <glyph glyph-name="Abreve" unicode="&#x102;" horiz-adv-x="654" 
d="M-22 0l5 21l30 8q39 10 59 47l305 585h80l91 -583q6 -37 42 -49l24 -8l-5 -21h-244l4 21l19 6q35 11 31 48l-22 151h-214l-79 -152q-16 -35 19 -45l26 -8l-4 -21h-167zM351 551l-153 -296h195zM418 715q-58 0 -94 36.5t-47 95.5l24 12q16 -31 50.5 -50.5t77.5 -19.5
q44 0 78 19t59 51l23 -11q-12 -33 -34 -63.5t-55.5 -50t-81.5 -19.5z" />
    <glyph glyph-name="abreve" unicode="&#x103;" horiz-adv-x="554" 
d="M152 -14q-41 0 -73.5 30t-32.5 102q0 53 20.5 107t55 102.5t77.5 86t88.5 59.5t86.5 22q20 0 37.5 -8t32.5 -21l75 33l11 -7l-85 -373q-8 -32 -8 -47q0 -21 20 -21q14 0 31 11.5t38 31.5l12 -12q-15 -23 -37 -45t-49.5 -36.5t-57.5 -14.5q-31 0 -52 19.5t-21 60.5
q0 14 2 30q-41 -46 -86 -78t-85 -32zM162 164q0 -51 16.5 -73.5t44.5 -22.5q24 0 49 15.5t56 46.5q1 6 3 16l62 282q-13 13 -30 18.5t-32 5.5q-41 0 -90 -51q-35 -38 -57 -103.5t-22 -133.5zM386 570q-47 0 -76.5 21t-44 56t-15.5 77l27 9q15 -37 43 -60t72 -23
q47 0 81.5 22t56.5 61l26 -9q-9 -34 -30 -70t-55 -60t-85 -24z" />
    <glyph glyph-name="Aogonek" unicode="&#x104;" horiz-adv-x="684" 
d="M-22 0l5 21l30 8q39 10 59 47l305 585h80l91 -583q6 -37 42 -49l24 -8l-5 -21h-244l4 21l19 6q35 11 31 48l-22 151h-214l-79 -152q-16 -35 19 -45l26 -8l-4 -21h-167zM351 551l-153 -296h195zM399 -152q0 46 36.5 87t86.5 78h33q-32 -33 -53 -66.5t-21 -68.5
q0 -26 14 -40t35 -14q16 0 32.5 6t31.5 15l12 -18q-19 -21 -48.5 -40t-65.5 -19q-46 0 -69.5 23t-23.5 57z" />
    <glyph glyph-name="aogonek" unicode="&#x105;" horiz-adv-x="554" 
d="M152 -14q-41 0 -73.5 30t-32.5 102q0 53 20.5 107t55 102.5t77.5 86t88.5 59.5t86.5 22q20 0 37.5 -8t32.5 -21l75 33l11 -7l-85 -373q-8 -32 -8 -47q0 -21 20 -21q14 0 31 11.5t38 31.5l12 -12q-15 -23 -37 -45t-49.5 -36.5t-57.5 -14.5q-31 0 -52 19.5t-21 60.5
q0 14 2 30q-41 -46 -86 -78t-85 -32zM162 164q0 -51 16.5 -73.5t44.5 -22.5q24 0 49 15.5t56 46.5q1 6 3 16l62 282q-13 13 -30 18.5t-32 5.5q-41 0 -90 -51q-35 -38 -57 -103.5t-22 -133.5zM316 -152q0 46 36.5 87t86.5 78h33q-32 -33 -53 -66.5t-21 -68.5q0 -26 14 -40
t35 -14q16 0 32.5 6t31.5 15l12 -18q-19 -21 -48.5 -40t-65.5 -19q-46 0 -69.5 23t-23.5 57z" />
    <glyph glyph-name="Cacute" unicode="&#x106;" horiz-adv-x="599" 
d="M350 -17q-91 0 -158.5 34.5t-104.5 100t-37 158.5q0 83 28.5 156t81 128.5t123.5 87t156 31.5q50 0 95 -11t92 -37l-24 -153h-27l-25 97q-10 42 -35.5 58t-69.5 16q-77 0 -135.5 -47.5t-91 -132t-32.5 -195.5q0 -121 49.5 -191.5t140.5 -70.5q38 0 60.5 14.5t39.5 43.5
l64 112h27l-24 -152q-40 -20 -84 -33.5t-109 -13.5zM355 726q29 26 59 54.5t58 54.5q23 23 37.5 30.5t33.5 7.5q21 0 33 -13.5t12 -31.5q0 -16 -13.5 -30t-48.5 -28q-41 -16 -80.5 -31.5t-78.5 -30.5z" />
    <glyph glyph-name="cacute" unicode="&#x107;" horiz-adv-x="449" 
d="M217 -14q-73 0 -119.5 49t-46.5 139q0 64 22.5 122t61.5 102.5t90 70.5t108 26q35 0 64.5 -11t47.5 -30t17 -45t-17 -41t-40 -15q-27 0 -43.5 15t-27.5 37l-7 16q-13 29 -25 33t-35 -15q-26 -23 -49.5 -60.5t-37.5 -83.5t-14 -95q0 -71 32 -105t85 -34q36 0 70 22.5
t63 60.5l16 -13q-20 -38 -53 -71.5t-74 -53.5t-88 -20zM342 550q14 41 28 81t27 80q11 35 28 49t37 14q21 0 37 -13t16 -36q0 -18 -10.5 -34.5t-30.5 -36.5q-29 -30 -57 -58.5t-57 -57.5z" />
    <glyph glyph-name="Ccaron" unicode="&#x10c;" horiz-adv-x="599" 
d="M350 -17q-91 0 -158.5 34.5t-104.5 100t-37 158.5q0 83 28.5 156t81 128.5t123.5 87t156 31.5q50 0 95 -11t92 -37l-24 -153h-27l-25 97q-10 42 -35.5 58t-69.5 16q-77 0 -135.5 -47.5t-91 -132t-32.5 -195.5q0 -121 49.5 -191.5t140.5 -70.5q38 0 60.5 14.5t39.5 43.5
l64 112h27l-24 -152q-40 -20 -84 -33.5t-109 -13.5zM332 880l121 -96l148 98l16 -19l-157 -150h-34l-117 150z" />
    <glyph glyph-name="ccaron" unicode="&#x10d;" horiz-adv-x="449" 
d="M217 -14q-73 0 -119.5 49t-46.5 139q0 64 22.5 122t61.5 102.5t90 70.5t108 26q35 0 64.5 -11t47.5 -30t17 -45t-17 -41t-40 -15q-27 0 -43.5 15t-27.5 37l-7 16q-13 29 -25 33t-35 -15q-26 -23 -49.5 -60.5t-37.5 -83.5t-14 -95q0 -71 32 -105t85 -34q36 0 70 22.5
t63 60.5l16 -13q-20 -38 -53 -71.5t-74 -53.5t-88 -20zM264 759l104 -115l149 113l19 -18l-164 -184h-38l-94 187z" />
    <glyph glyph-name="Dcaron" unicode="&#x10e;" horiz-adv-x="663" 
d="M4 0l4 21l14 5q40 15 47 54l51 271q10 53 20.5 113.5t20.5 116.5q6 40 -31 54l-12 5l5 21h229q100 0 168.5 -35.5t103.5 -98.5t35 -144q0 -91 -32 -162t-87.5 -120.5t-128 -75t-153.5 -25.5h-254zM191 29h59q86 0 146.5 48.5t92.5 130.5t32 183q0 119 -48 178t-139 63
h-32l-61 -322l-26 -140t-24 -141zM270 880l121 -96l148 98l16 -19l-157 -150h-34l-117 150z" />
    <glyph glyph-name="dcaron" unicode="&#x10f;" horiz-adv-x="593" 
d="M700 745q24 0 33 -11t9 -23q0 -25 -16.5 -60t-35.5 -70l-42 -73l-42 4l46 223q14 6 24.5 8t23.5 2zM146 -14q-39 0 -69 30.5t-30 105.5q0 52 19.5 105t53 101t75.5 85.5t88 59.5t89 22q21 0 39 -7l15 77q9 45 -33 59l-20 7l3 17l184 54l9 -8l-121 -575q-3 -16 -5 -27
t-2 -21q0 -21 19 -21q11 0 30 12t39 34l14 -15q-24 -37 -64 -66t-85 -29q-32 0 -50.5 20t-18.5 53q-1 17 2 40q-41 -50 -90 -81.5t-91 -31.5zM165 158q0 -50 16.5 -72t42.5 -22q24 0 50.5 17.5t59.5 55.5v2l59 289q-26 22 -59 22q-25 0 -47.5 -12t-41.5 -33
q-23 -25 -41.5 -66.5t-28.5 -89t-10 -91.5z" />
    <glyph glyph-name="Dcroat" unicode="&#x110;" horiz-adv-x="663" 
d="M4 0l4 21l14 5q40 15 47 54l45 241h-62l6 35h63q10 52 20 111t20 114q6 40 -31 54l-12 5l5 21h229q100 0 168.5 -35.5t103.5 -98.5t35 -144q0 -91 -32 -162t-87.5 -120.5t-128 -75t-153.5 -25.5h-254zM191 29h59q86 0 146.5 48.5t92.5 130.5t32 183q0 119 -48 178
t-139 63h-32l-52 -276h163l-6 -35h-164l-2 -11l-26 -140t-24 -141z" />
    <glyph glyph-name="dcroat" unicode="&#x111;" horiz-adv-x="560" 
d="M147 -15q-40 0 -70 31t-30 107q0 49 20 99t53.5 95.5t76 81t88.5 56t90 20.5q18 0 33 -4l13 64h-142l6 27h142v1q9 45 -33 59l-20 7l2 17l189 56l9 -9l-28 -131h93l-6 -27h-92l-88 -415q-3 -17 -5 -27.5t-2 -20.5q0 -20 18 -20q11 0 30 11.5t39 34.5l14 -15
q-23 -38 -64 -68t-87 -30q-32 0 -51 21.5t-19 54.5q-1 15 2 38q-41 -51 -89.5 -82.5t-91.5 -31.5zM169 160q0 -50 16 -72t42 -22q45 0 107 70l1 6l56 270q-24 18 -55 18q-49 0 -87 -41q-23 -24 -41.5 -62.5t-28.5 -82t-10 -84.5z" />
    <glyph glyph-name="Emacron" unicode="&#x112;" horiz-adv-x="557" 
d="M4 0l4 21l17 5q35 10 43 48l52 277q10 53 20.5 114t20.5 117q7 41 -33 55l-10 3l5 21h448l-25 -174h-26l-18 82q-7 32 -24.5 47t-52.5 15h-123l-52 -277h85q43 0 68 37l31 46h21l-36 -193h-21l-11 37q-13 44 -58 44h-85q-13 -70 -27 -146t-25 -149h155q31 0 53 12t41 41
l60 91h26l-40 -174h-483zM212 760l8 39h315l-8 -39h-315z" />
    <glyph glyph-name="emacron" unicode="&#x113;" horiz-adv-x="450" 
d="M218 -14q-74 0 -120.5 48t-46.5 139q0 63 22 121t60.5 103.5t90.5 71.5t112 26q62 0 94.5 -28t32.5 -75q0 -57 -75.5 -112.5t-218.5 -86.5q3 -65 31 -95t77 -30q44 0 79 23t59 54l15 -11q-20 -38 -51.5 -72t-71.5 -55t-89 -21zM326 461q-23 0 -49 -19.5t-49.5 -53
t-39.5 -77t-19 -92.5q112 33 157.5 82t45.5 104q0 29 -13 42.5t-33 13.5zM204 615l7 38h292l-7 -38h-292z" />
    <glyph glyph-name="Edotaccent" unicode="&#x116;" horiz-adv-x="557" 
d="M4 0l4 21l17 5q35 10 43 48l52 277q10 53 20.5 114t20.5 117q7 41 -33 55l-10 3l5 21h448l-25 -174h-26l-18 82q-7 32 -24.5 47t-52.5 15h-123l-52 -277h85q43 0 68 37l31 46h21l-36 -193h-21l-11 37q-13 44 -58 44h-85q-13 -70 -27 -146t-25 -149h155q31 0 53 12t41 41
l60 91h26l-40 -174h-483zM375 719q-26 0 -43 17t-17 46q0 32 21.5 54t49.5 22q27 0 43.5 -17.5t16.5 -45.5q0 -31 -22 -53.5t-49 -22.5z" />
    <glyph glyph-name="edotaccent" unicode="&#x117;" horiz-adv-x="450" 
d="M218 -14q-74 0 -120.5 48t-46.5 139q0 63 22 121t60.5 103.5t90.5 71.5t112 26q62 0 94.5 -28t32.5 -75q0 -57 -75.5 -112.5t-218.5 -86.5q3 -65 31 -95t77 -30q44 0 79 23t59 54l15 -11q-20 -38 -51.5 -72t-71.5 -55t-89 -21zM326 461q-23 0 -49 -19.5t-49.5 -53
t-39.5 -77t-19 -92.5q112 33 157.5 82t45.5 104q0 29 -13 42.5t-33 13.5zM353 604q-25 0 -42.5 17t-17.5 46q0 34 22.5 56.5t50.5 22.5q27 0 44 -17.5t17 -46.5q0 -32 -22.5 -55t-51.5 -23z" />
    <glyph glyph-name="Eogonek" unicode="&#x118;" horiz-adv-x="587" 
d="M4 0l4 21l17 5q35 10 43 48l52 277q10 53 20.5 114t20.5 117q7 41 -33 55l-10 3l5 21h448l-25 -174h-26l-18 82q-7 32 -24.5 47t-52.5 15h-123l-52 -277h85q43 0 68 37l31 46h21l-36 -193h-21l-11 37q-13 44 -58 44h-85q-13 -70 -27 -146t-25 -149h155q31 0 53 12t41 41
l60 91h26l-40 -174h-483zM285 -152q0 46 36.5 87t86.5 78h33q-32 -33 -53 -66.5t-21 -68.5q0 -26 14 -40t35 -14q16 0 32.5 6t31.5 15l12 -18q-19 -21 -48.5 -40t-65.5 -19q-46 0 -69.5 23t-23.5 57z" />
    <glyph glyph-name="eogonek" unicode="&#x119;" horiz-adv-x="450" 
d="M218 -14q-74 0 -120.5 48t-46.5 139q0 63 22 121t60.5 103.5t90.5 71.5t112 26q62 0 94.5 -28t32.5 -75q0 -57 -75.5 -112.5t-218.5 -86.5q3 -65 31 -95t77 -30q44 0 79 23t59 54l15 -11q-20 -38 -51.5 -72t-71.5 -55t-89 -21zM326 461q-23 0 -49 -19.5t-49.5 -53
t-39.5 -77t-19 -92.5q112 33 157.5 82t45.5 104q0 29 -13 42.5t-33 13.5zM161 -152q0 46 36.5 87t86.5 78h33q-32 -33 -53 -66.5t-21 -68.5q0 -26 14 -40t35 -14q16 0 32.5 6t31.5 15l12 -18q-19 -21 -48.5 -40t-65.5 -19q-46 0 -69.5 23t-23.5 57z" />
    <glyph glyph-name="Ecaron" unicode="&#x11a;" horiz-adv-x="557" 
d="M4 0l4 21l17 5q35 10 43 48l52 277q10 53 20.5 114t20.5 117q7 41 -33 55l-10 3l5 21h448l-25 -174h-26l-18 82q-7 32 -24.5 47t-52.5 15h-123l-52 -277h85q43 0 68 37l31 46h21l-36 -193h-21l-11 37q-13 44 -58 44h-85q-13 -70 -27 -146t-25 -149h155q31 0 53 12t41 41
l60 91h26l-40 -174h-483zM257 880l121 -96l148 98l16 -19l-157 -150h-34l-117 150z" />
    <glyph glyph-name="ecaron" unicode="&#x11b;" horiz-adv-x="450" 
d="M218 -14q-74 0 -120.5 48t-46.5 139q0 63 22 121t60.5 103.5t90.5 71.5t112 26q62 0 94.5 -28t32.5 -75q0 -57 -75.5 -112.5t-218.5 -86.5q3 -65 31 -95t77 -30q44 0 79 23t59 54l15 -11q-20 -38 -51.5 -72t-71.5 -55t-89 -21zM326 461q-23 0 -49 -19.5t-49.5 -53
t-39.5 -77t-19 -92.5q112 33 157.5 82t45.5 104q0 29 -13 42.5t-33 13.5zM265 760l104 -115l149 113l19 -18l-164 -184h-38l-94 187z" />
    <glyph glyph-name="Gbreve" unicode="&#x11e;" horiz-adv-x="648" 
d="M356 -16q-143 0 -224.5 77t-81.5 214q0 86 29.5 159.5t82.5 128.5t124 85.5t154 30.5q54 0 101.5 -12t93.5 -37l-24 -156h-26l-29 92q-13 48 -36 65.5t-71 17.5q-78 0 -137 -49t-92 -134.5t-33 -194.5q0 -81 23.5 -138.5t63 -88.5t88.5 -31q26 0 44 9.5t23 37.5l5 27
q5 32 11.5 70t11.5 75q9 54 -44 68l-22 6l4 20h266l-4 -20l-19 -7q-41 -13 -48 -55l-42 -218q-44 -20 -88.5 -31t-103.5 -11zM440 715q-58 0 -94 36.5t-47 95.5l24 12q16 -31 50.5 -50.5t77.5 -19.5q44 0 78 19t59 51l23 -11q-12 -33 -34 -63.5t-55.5 -50t-81.5 -19.5z" />
    <glyph glyph-name="gbreve" unicode="&#x11f;" horiz-adv-x="517" 
d="M151 -237q-82 0 -130.5 26t-48.5 77q0 30 20.5 56t52.5 46t66 32q-31 10 -48.5 26t-17.5 39q0 24 27 55t65 61q-28 20 -42.5 49t-14.5 63q0 54 28 100t74.5 74t103.5 28q75 0 120 -39q62 8 117 39l9 -9l-10 -52h-95q21 -31 21 -72q0 -62 -26 -109.5t-72.5 -74
t-108.5 -26.5q-47 0 -83 17l-16 -25q-9 -13 -5 -25t22 -16l158 -32q83 -17 116.5 -43.5t33.5 -73.5q0 -55 -41.5 -98t-112.5 -68t-162 -25zM258 177q35 0 59 38t24 127q0 61 -18 94.5t-45 33.5q-42 -1 -63 -45.5t-21 -117.5q0 -54 15 -92.5t49 -37.5zM71 -100
q0 -46 35.5 -73t96.5 -27q77 0 120.5 26t43.5 72q0 29 -25 45.5t-89 29.5l-121 22v0q-28 -18 -44.5 -41.5t-16.5 -53.5zM317 570q-47 0 -76.5 21t-44 56t-15.5 77l27 9q15 -37 43 -60t72 -23q47 0 81.5 22t56.5 61l26 -9q-9 -34 -30 -70t-55 -60t-85 -24z" />
    <glyph glyph-name="uni0122" unicode="&#x122;" horiz-adv-x="648" 
d="M356 -16q-143 0 -224.5 77t-81.5 214q0 86 29.5 159.5t82.5 128.5t124 85.5t154 30.5q54 0 101.5 -12t93.5 -37l-24 -156h-26l-29 92q-13 48 -36 65.5t-71 17.5q-78 0 -137 -49t-92 -134.5t-33 -194.5q0 -81 23.5 -138.5t63 -88.5t88.5 -31q26 0 44 9.5t23 37.5l5 27
q5 32 11.5 70t11.5 75q9 54 -44 68l-22 6l4 20h266l-4 -20l-19 -7q-41 -13 -48 -55l-42 -218q-44 -20 -88.5 -31t-103.5 -11zM260 -261l-11 19q25 12 42.5 25.5t29.5 35.5q-24 10 -38.5 28t-14.5 39q0 27 17 44t43 17q31 0 46 -18.5t15 -50.5q0 -50 -35 -83.5t-94 -55.5z
" />
    <glyph glyph-name="uni0123" unicode="&#x123;" horiz-adv-x="517" 
d="M381 777l20 -31q-21 -13 -36.5 -24.5t-26.5 -26.5q20 -16 31.5 -32.5t11.5 -35.5q0 -26 -17 -42t-42 -16q-13 0 -25 4.5t-26 14.5q-6 14 -8.5 24t-2.5 24q0 47 33 80t88 61zM151 -237q-82 0 -130.5 26t-48.5 77q0 30 20.5 56t52.5 46t66 32q-31 10 -48.5 26t-17.5 39
q0 24 27 55t65 61q-28 20 -42.5 49t-14.5 63q0 54 28 100t74.5 74t103.5 28q75 0 120 -39q62 8 117 39l9 -9l-10 -52h-95q21 -31 21 -72q0 -62 -26 -109.5t-72.5 -74t-108.5 -26.5q-47 0 -83 17l-16 -25q-9 -13 -5 -25t22 -16l158 -32q83 -17 116.5 -43.5t33.5 -73.5
q0 -55 -41.5 -98t-112.5 -68t-162 -25zM258 177q35 0 59 38t24 127q0 61 -18 94.5t-45 33.5q-42 -1 -63 -45.5t-21 -117.5q0 -54 15 -92.5t49 -37.5zM71 -100q0 -46 35.5 -73t96.5 -27q77 0 120.5 26t43.5 72q0 29 -25 45.5t-89 29.5l-121 22v0q-28 -18 -44.5 -41.5
t-16.5 -53.5z" />
    <glyph glyph-name="Imacron" unicode="&#x12a;" horiz-adv-x="310" 
d="M4 0l4 21l25 9q14 4 22.5 14.5t11.5 23.5l53 283q10 55 21.5 118.5t20.5 121.5q3 14 -4.5 26.5t-21.5 16.5l-18 6l5 21h235l-5 -21l-24 -8q-29 -8 -34 -38l-54 -284q-10 -55 -21 -118t-22 -120q-2 -15 5 -27t20 -17l21 -7l-5 -21h-235zM94 760l8 39h315l-8 -39h-315z" />
    <glyph glyph-name="imacron" unicode="&#x12b;" horiz-adv-x="279" 
d="M121 -14q-30 0 -49.5 15.5t-19.5 45.5q0 17 4 41t9 49l47 226q9 42 -31 57l-14 6l2 18l180 52l10 -10l-76 -357q-4 -17 -6 -29.5t-2 -23.5q0 -22 20 -22q16 0 33.5 12.5t43.5 40.5l15 -11q-28 -43 -69 -76.5t-97 -33.5zM56 615l7 38h292l-7 -38h-292z" />
    <glyph glyph-name="Iogonek" unicode="&#x12e;" horiz-adv-x="370" 
d="M4 0l4 21l25 9q14 4 22.5 14.5t11.5 23.5l53 283q10 55 21.5 118.5t20.5 121.5q3 14 -4.5 26.5t-21.5 16.5l-18 6l5 21h235l-5 -21l-24 -8q-29 -8 -34 -38l-54 -284q-10 -55 -21 -118t-22 -120q-2 -15 5 -27t20 -17l21 -7l-5 -21h-235zM36 -152q0 46 36.5 87t86.5 78h33
q-32 -33 -53 -66.5t-21 -68.5q0 -26 14 -40t35 -14q16 0 32.5 6t31.5 15l12 -18q-19 -21 -48.5 -40t-65.5 -19q-46 0 -69.5 23t-23.5 57z" />
    <glyph glyph-name="iogonek" unicode="&#x12f;" horiz-adv-x="279" 
d="M213 554q-28 0 -48 18t-20 49q0 33 24 55t54 22q29 0 48 -18.5t19 -47.5q0 -32 -23.5 -55t-53.5 -23zM121 -14q-30 0 -49.5 15.5t-19.5 45.5q0 17 4 41t9 49l47 226q9 42 -31 57l-14 6l2 18l180 52l10 -10l-76 -357q-4 -17 -6 -29.5t-2 -23.5q0 -22 20 -22q24 0 63 38
l13 -13q-25 -37 -62.5 -65t-87.5 -28zM50 -152q0 46 36.5 87t86.5 78h33q-32 -33 -53 -66.5t-21 -68.5q0 -26 14 -40t35 -14q16 0 32.5 6t31.5 15l12 -18q-19 -21 -48.5 -40t-65.5 -19q-46 0 -69.5 23t-23.5 57z" />
    <glyph glyph-name="Idotaccent" unicode="&#x130;" horiz-adv-x="310" 
d="M4 0l4 21l25 9q14 4 22.5 14.5t11.5 23.5l53 283q10 55 21.5 118.5t20.5 121.5q3 14 -4.5 26.5t-21.5 16.5l-18 6l5 21h235l-5 -21l-24 -8q-29 -8 -34 -38l-54 -284q-10 -55 -21 -118t-22 -120q-2 -15 5 -27t20 -17l21 -7l-5 -21h-235zM257 719q-26 0 -43 17t-17 46
q0 32 21.5 54t49.5 22q27 0 43.5 -17.5t16.5 -45.5q0 -31 -22 -53.5t-49 -22.5z" />
    <glyph glyph-name="dotlessi" unicode="&#x131;" horiz-adv-x="279" 
d="M121 -14q-30 0 -49.5 15.5t-19.5 45.5q0 17 4 41t9 49l47 226q9 42 -31 57l-14 6l2 18l180 52l10 -10l-76 -357q-4 -17 -6 -29.5t-2 -23.5q0 -22 20 -22q16 0 33.5 12.5t43.5 40.5l15 -11q-28 -43 -69 -76.5t-97 -33.5z" />
    <glyph glyph-name="uni0136" unicode="&#x136;" horiz-adv-x="635" 
d="M385 0l3 21l10 3q35 13 16 44l-168 277l274 248q14 13 12.5 25.5t-18.5 18.5l-9 3l4 21h163l-4 -21l-15 -4q-31 -9 -53.5 -21t-46.5 -34l-204 -184l202 -320q25 -40 67 -53l9 -3l-3 -21h-239zM2 0l4 21l15 5q36 12 43 49l52 276q11 54 21.5 116t20.5 120q6 37 -30 49
l-11 4l4 21h237l-4 -21l-19 -5q-39 -12 -46 -50l-59 -316q-7 -41 -17 -94.5t-18 -100.5q-6 -37 30 -49l14 -4l-5 -21h-232zM222 -261l-11 19q25 12 42.5 25.5t29.5 35.5q-24 10 -38.5 28t-14.5 39q0 27 17 44t43 17q31 0 46 -18.5t15 -50.5q0 -50 -35 -83.5t-94 -55.5z" />
    <glyph glyph-name="uni0137" unicode="&#x137;" horiz-adv-x="481" 
d="M39 -8l-13 10l92 439q7 34 13 65.5t12 64.5q6 42 -33 54l-16 5l3 18l184 54l8 -9l-100 -480q-13 -60 -22 -110t-18 -103zM310 0q-13 14 -25 40t-22 50l-64 162l251 237q26 -1 44 -16t18 -43q0 -25 -20 -42t-50 -32l-192 -97l164 -203q18 -23 43 -35l8 -4l-3 -17h-152z
M150 -261l-11 19q25 12 42.5 25.5t29.5 35.5q-24 10 -38.5 28t-14.5 39q0 27 17 44t43 17q31 0 46 -18.5t15 -50.5q0 -50 -35 -83.5t-94 -55.5z" />
    <glyph glyph-name="Lacute" unicode="&#x139;" horiz-adv-x="536" 
d="M4 0l3 21l17 5q36 11 43 47l53 278q10 53 21 114.5t20 118.5q7 38 -31 52l-11 4l4 21h241l-3 -21l-23 -6q-38 -11 -45 -49l-52 -275q-12 -64 -25 -140t-24 -140h111q41 0 70 14.5t51 48.5l70 100h26l-41 -193h-475zM162 726q29 26 59 54.5t58 54.5q23 23 37.5 30.5
t33.5 7.5q21 0 33 -13.5t12 -31.5q0 -16 -13.5 -30t-48.5 -28q-41 -16 -80.5 -31.5t-78.5 -30.5z" />
    <glyph glyph-name="lacute" unicode="&#x13a;" horiz-adv-x="269" 
d="M115 -14q-32 0 -51.5 16.5t-19.5 47.5q0 17 4.5 41.5t11.5 62.5l59 287q8 36 13 65t12 66q6 42 -34 54l-15 5l3 17l186 54l9 -8l-121 -573q-4 -16 -5.5 -28t-1.5 -20q0 -22 19 -22q23 0 67 43l14 -14q-25 -35 -62 -64.5t-88 -29.5zM151 769q29 26 59 54.5t58 54.5
q23 23 37.5 30.5t33.5 7.5q21 0 33 -13.5t12 -31.5q0 -16 -13.5 -30t-48.5 -28q-41 -16 -80.5 -31.5t-78.5 -30.5z" />
    <glyph glyph-name="uni013B" unicode="&#x13b;" horiz-adv-x="536" 
d="M4 0l3 21l17 5q36 11 43 47l53 278q10 53 21 114.5t20 118.5q7 38 -31 52l-11 4l4 21h241l-3 -21l-23 -6q-38 -11 -45 -49l-52 -275q-12 -64 -25 -140t-24 -140h111q41 0 70 14.5t51 48.5l70 100h26l-41 -193h-475zM164 -261l-11 19q25 12 42.5 25.5t29.5 35.5
q-24 10 -38.5 28t-14.5 39q0 27 17 44t43 17q31 0 46 -18.5t15 -50.5q0 -50 -35 -83.5t-94 -55.5z" />
    <glyph glyph-name="uni013C" unicode="&#x13c;" horiz-adv-x="269" 
d="M115 -14q-32 0 -51.5 16.5t-19.5 47.5q0 17 4.5 41.5t11.5 62.5l59 287q8 36 13 65t12 66q6 42 -34 54l-15 5l3 17l186 54l9 -8l-121 -573q-4 -16 -5.5 -28t-1.5 -20q0 -22 19 -22q23 0 67 43l14 -14q-25 -35 -62 -64.5t-88 -29.5zM33 -261l-11 19q25 12 42.5 25.5
t29.5 35.5q-24 10 -38.5 28t-14.5 39q0 27 17 44t43 17q31 0 46 -18.5t15 -50.5q0 -50 -35 -83.5t-94 -55.5z" />
    <glyph glyph-name="Lcaron" unicode="&#x13d;" horiz-adv-x="566" 
d="M581 725q25 0 34 -11t9 -23q0 -25 -16.5 -59.5t-36.5 -69.5l-41 -74l-42 4l45 223q14 6 24.5 8t23.5 2zM4 0l3 21l17 5q36 11 43 47l53 278q10 53 21 114.5t20 118.5q7 38 -31 52l-11 4l4 21h241l-3 -21l-23 -6q-38 -11 -45 -49l-52 -275q-12 -64 -25 -140t-24 -140h111
q41 0 70 14.5t51 48.5l70 100h26l-41 -193h-475z" />
    <glyph glyph-name="lcaron" unicode="&#x13e;" horiz-adv-x="334" 
d="M441 745q24 0 33 -11t9 -23q0 -25 -16.5 -60t-35.5 -70l-42 -73l-42 4l46 223q14 6 24.5 8t23.5 2zM115 -14q-32 0 -51.5 16.5t-19.5 47.5q0 17 4.5 41.5t11.5 62.5l59 287q8 36 13 65t12 66q6 42 -34 54l-15 5l3 17l186 54l9 -8l-121 -573q-4 -16 -5.5 -28t-1.5 -20
q0 -22 19 -22q23 0 67 43l14 -14q-25 -35 -62 -64.5t-88 -29.5z" />
    <glyph glyph-name="Ldot" unicode="&#x13f;" horiz-adv-x="566" 
d="M4 0l3 21l17 5q36 11 43 47l53 278q10 53 21 114.5t20 118.5q7 38 -31 52l-11 4l4 21h241l-3 -21l-23 -6q-38 -11 -45 -49l-52 -275q-12 -64 -25 -140t-24 -140h111q41 0 70 14.5t51 48.5l70 100h26l-41 -193h-475zM485 296q-33 0 -54 21t-21 51q0 37 27 62t62 25
q33 0 53.5 -21.5t20.5 -51.5q0 -37 -26.5 -61.5t-61.5 -24.5z" />
    <glyph glyph-name="ldot" unicode="&#x140;" horiz-adv-x="355" 
d="M115 -14q-32 0 -51.5 16.5t-19.5 47.5q0 17 4.5 41.5t11.5 62.5l59 287q8 36 13 65t12 66q6 42 -34 54l-15 5l3 17l186 54l9 -8l-121 -573q-4 -16 -5.5 -28t-1.5 -20q0 -22 19 -22q23 0 67 43l14 -14q-25 -35 -62 -64.5t-88 -29.5zM335 284q-33 0 -54 21t-21 51
q0 37 27 62t62 25q33 0 53.5 -21.5t20.5 -51.5q0 -37 -26.5 -61.5t-61.5 -24.5z" />
    <glyph glyph-name="Lslash" unicode="&#x141;" horiz-adv-x="536" 
d="M4 0l3 21l17 5q36 11 43 47l34 180l-71 -34l9 42l70 34l11 56q10 53 21 114.5t20 118.5q7 38 -31 52l-11 4l4 21h241l-3 -21l-23 -6q-38 -11 -45 -49l-42 -222l194 94l-9 -43l-193 -93l-2 -11q-12 -64 -25 -140t-24 -140h111q41 0 70 14.5t51 48.5l70 100h26l-41 -193
h-475z" />
    <glyph glyph-name="lslash" unicode="&#x142;" horiz-adv-x="269" 
d="M115 -14q-32 0 -51.5 16.5t-19.5 47.5q0 17 4.5 41.5t11.5 62.5l35 169l-84 -41l10 43l83 41l15 75q8 36 13 65t12 66q6 42 -34 54l-15 5l3 17l186 54l9 -8l-58 -274l92 45l-10 -44l-91 -45l-54 -255q-4 -16 -5.5 -28t-1.5 -20q0 -22 19 -22q23 0 67 43l14 -14
q-25 -35 -62 -64.5t-88 -29.5z" />
    <glyph glyph-name="Nacute" unicode="&#x143;" horiz-adv-x="633" 
d="M470 -5l-283 536l-85 -450q-8 -41 32 -55l18 -5l-4 -21h-152l4 21l21 7q40 12 47 52l96 505l-9 17q-7 14 -16 21.5t-23 14.5l-7 2l4 21h151l259 -486l77 409q7 39 -30 51l-15 5l4 21h145l-4 -21l-20 -6q-39 -12 -46 -51l-110 -588h-54zM310 726q29 26 59 54.5t58 54.5
q23 23 37.5 30.5t33.5 7.5q21 0 33 -13.5t12 -31.5q0 -16 -13.5 -30t-48.5 -28q-41 -16 -80.5 -31.5t-78.5 -30.5z" />
    <glyph glyph-name="nacute" unicode="&#x144;" horiz-adv-x="546" 
d="M46 -8l-10 9l76 363q9 40 -30 56l-15 6l2 17l177 53l11 -10l-22 -113q52 55 106 88.5t101 33.5q32 0 52.5 -19.5t20.5 -59.5q0 -22 -4 -44.5t-10 -46.5l-51 -205q-4 -16 -6.5 -27.5t-2.5 -19.5q0 -21 17 -21q26 0 66 42l14 -14q-25 -37 -65 -65.5t-89 -28.5q-31 0 -49 15
t-18 41q0 21 5 42.5t12 46.5l39 158q8 30 13 54t5 43q0 20 -8.5 27.5t-22.5 7.5q-24 0 -57.5 -20.5t-75.5 -64.5l-27 -123q-11 -53 -21 -106t-20 -107zM326 551q14 41 28 81t27 80q11 35 28 49t37 14q21 0 37 -13t16 -36q0 -18 -10.5 -34.5t-30.5 -36.5q-29 -30 -57 -58.5
t-57 -57.5z" />
    <glyph glyph-name="uni0145" unicode="&#x145;" horiz-adv-x="633" 
d="M470 -5l-283 536l-85 -450q-8 -41 32 -55l18 -5l-4 -21h-152l4 21l21 7q40 12 47 52l96 505l-9 17q-7 14 -16 21.5t-23 14.5l-7 2l4 21h151l259 -486l77 409q7 39 -30 51l-15 5l4 21h145l-4 -21l-20 -6q-39 -12 -46 -51l-110 -588h-54zM243 -261l-11 19q25 12 42.5 25.5
t29.5 35.5q-24 10 -38.5 28t-14.5 39q0 27 17 44t43 17q31 0 46 -18.5t15 -50.5q0 -50 -35 -83.5t-94 -55.5z" />
    <glyph glyph-name="uni0146" unicode="&#x146;" horiz-adv-x="546" 
d="M46 -8l-10 9l76 363q9 40 -30 56l-15 6l2 17l177 53l11 -10l-22 -113q52 55 106 88.5t101 33.5q32 0 52.5 -19.5t20.5 -59.5q0 -22 -4 -44.5t-10 -46.5l-51 -205q-4 -16 -6.5 -27.5t-2.5 -19.5q0 -21 17 -21q26 0 66 42l14 -14q-25 -37 -65 -65.5t-89 -28.5q-31 0 -49 15
t-18 41q0 21 5 42.5t12 46.5l39 158q8 30 13 54t5 43q0 20 -8.5 27.5t-22.5 7.5q-24 0 -57.5 -20.5t-75.5 -64.5l-27 -123q-11 -53 -21 -106t-20 -107zM152 -256l-11 19q25 12 42.5 25.5t29.5 35.5q-24 10 -38.5 28t-14.5 39q0 27 17 44t43 17q31 0 46 -18.5t15 -50.5
q0 -50 -35 -83.5t-94 -55.5z" />
    <glyph glyph-name="Ncaron" unicode="&#x147;" horiz-adv-x="633" 
d="M470 -5l-283 536l-85 -450q-8 -41 32 -55l18 -5l-4 -21h-152l4 21l21 7q40 12 47 52l96 505l-9 17q-7 14 -16 21.5t-23 14.5l-7 2l4 21h151l259 -486l77 409q7 39 -30 51l-15 5l4 21h145l-4 -21l-20 -6q-39 -12 -46 -51l-110 -588h-54zM287 880l121 -96l148 98l16 -19
l-157 -150h-34l-117 150z" />
    <glyph glyph-name="ncaron" unicode="&#x148;" horiz-adv-x="546" 
d="M46 -8l-10 9l76 363q9 40 -30 56l-15 6l2 17l177 53l11 -10l-22 -113q52 55 106 88.5t101 33.5q32 0 52.5 -19.5t20.5 -59.5q0 -22 -4 -44.5t-10 -46.5l-51 -205q-4 -16 -6.5 -27.5t-2.5 -19.5q0 -21 17 -21q26 0 66 42l14 -14q-25 -37 -65 -65.5t-89 -28.5q-31 0 -49 15
t-18 41q0 21 5 42.5t12 46.5l39 158q8 30 13 54t5 43q0 20 -8.5 27.5t-22.5 7.5q-24 0 -57.5 -20.5t-75.5 -64.5l-27 -123q-11 -53 -21 -106t-20 -107zM248 760l104 -115l149 113l19 -18l-164 -184h-38l-94 187z" />
    <glyph glyph-name="Omacron" unicode="&#x14c;" horiz-adv-x="666" 
d="M300 -17q-72 0 -127.5 31.5t-87.5 92.5t-32 151q0 83 26 158.5t74.5 134.5t116 93t150.5 34q75 0 130.5 -33.5t86.5 -95t31 -145.5q0 -85 -26 -161t-74.5 -134.5t-116 -92t-151.5 -33.5zM310 13q46 0 86.5 32.5t71.5 89.5t48.5 131.5t17.5 159.5q0 107 -28 164.5
t-93 57.5q-46 0 -87 -32t-72.5 -88t-49.5 -130.5t-18 -159.5q0 -108 30 -166.5t94 -58.5zM274 759l8 39h315l-8 -39h-315z" />
    <glyph glyph-name="omacron" unicode="&#x14d;" horiz-adv-x="519" 
d="M234 -14q-51 0 -93 20t-67 61.5t-25 104.5q0 64 21.5 122t60 103.5t90 71.5t110.5 26q79 0 131 -45.5t52 -140.5q0 -63 -21.5 -121t-59.5 -103.5t-89 -72t-110 -26.5zM246 14q32 0 58 27.5t45 72.5t29.5 100.5t10.5 110.5q0 79 -18.5 110t-47.5 31q-32 0 -59.5 -26.5
t-47.5 -71.5t-31 -99.5t-11 -110.5q0 -81 20.5 -112.5t51.5 -31.5zM194 615l7 38h292l-7 -38h-292z" />
    <glyph glyph-name="Ohungarumlaut" unicode="&#x150;" horiz-adv-x="666" 
d="M300 -17q-72 0 -127.5 31.5t-87.5 92.5t-32 151q0 83 26 158.5t74.5 134.5t116 93t150.5 34q75 0 130.5 -33.5t86.5 -95t31 -145.5q0 -85 -26 -161t-74.5 -134.5t-116 -92t-151.5 -33.5zM310 13q46 0 86.5 32.5t71.5 89.5t48.5 131.5t17.5 159.5q0 107 -28 164.5
t-93 57.5q-46 0 -87 -32t-72.5 -88t-49.5 -130.5t-18 -159.5q0 -108 30 -166.5t94 -58.5zM304 724l75 126q12 21 26.5 30t30.5 9q17 0 29 -10t12 -27q0 -28 -29 -50l-124 -93zM480 724l73 125q25 40 58 40q17 0 29 -10t12 -27q0 -28 -29 -50l-124 -93z" />
    <glyph glyph-name="ohungarumlaut" unicode="&#x151;" horiz-adv-x="519" 
d="M234 -14q-51 0 -93 20t-67 61.5t-25 104.5q0 64 21.5 122t60 103.5t90 71.5t110.5 26q79 0 131 -45.5t52 -140.5q0 -63 -21.5 -121t-59.5 -103.5t-89 -72t-110 -26.5zM246 14q32 0 58 27.5t45 72.5t29.5 100.5t10.5 110.5q0 79 -18.5 110t-47.5 31q-32 0 -59.5 -26.5
t-47.5 -71.5t-31 -99.5t-11 -110.5q0 -81 20.5 -112.5t51.5 -31.5zM239 572l72 143q17 32 33.5 45t33.5 13q19 0 30.5 -10.5t11.5 -29.5q0 -16 -9 -33.5t-32 -38.5l-120 -104zM398 572l72 143q17 33 33 45.5t33 12.5q20 0 31.5 -10.5t11.5 -29.5q0 -16 -9 -33.5t-33 -38.5
l-119 -104z" />
    <glyph glyph-name="OE" unicode="&#x152;" horiz-adv-x="887" 
d="M330 -17q-81 0 -143.5 30.5t-98 92.5t-35.5 156q0 81 29 156t82.5 133.5t127 93t162.5 34.5q32 0 60.5 -4.5t61.5 -13.5h325l-25 -174h-26l-19 85q-12 59 -73 59h-126l-52 -277h85q43 0 68 36l31 47h21l-36 -193h-21l-11 38q-13 43 -58 43h-85q-8 -45 -17.5 -97.5
t-18.5 -104t-16 -93.5h155q59 0 91 49l63 95h26l-39 -174h-368q-31 -8 -58 -12.5t-62 -4.5zM339 12q48 0 55 43l56 296q12 66 23.5 130.5t21.5 122.5q8 45 -44 45q-55 0 -103 -30t-84.5 -84.5t-56.5 -127t-20 -157.5q0 -78 20.5 -131t55.5 -80t76 -27z" />
    <glyph glyph-name="oe" unicode="&#x153;" horiz-adv-x="778" 
d="M234 -14q-51 0 -93 20t-67 61.5t-25 104.5q0 64 21.5 122t60 103.5t90 71.5t110.5 26q50 0 90 -18.5t63 -55.5q37 34 82.5 54t97.5 20q62 0 94.5 -28t32.5 -75q0 -57 -75.5 -112.5t-218.5 -86.5q3 -65 31 -95t77 -30q44 0 79 23t59 54l15 -11q-20 -38 -51.5 -72
t-71.5 -55t-89 -21q-94 0 -138 71q-36 -33 -80 -52t-94 -19zM246 14q32 0 58 27.5t45 72.5t29 100.5t10 110.5q0 79 -18 110t-47 31q-32 0 -59.5 -26.5t-47.5 -71.5t-31 -99.5t-11 -110.5q0 -81 20.5 -112.5t51.5 -31.5zM654 461q-23 0 -49 -19.5t-49.5 -53t-39.5 -77
t-19 -92.5q112 33 157.5 82t45.5 104q0 29 -13 42.5t-33 13.5z" />
    <glyph glyph-name="Racute" unicode="&#x154;" horiz-adv-x="636" 
d="M4 0l4 21l14 5q40 12 47 53l51 272q10 56 20.5 115t20.5 116q7 41 -32 55l-11 3l5 21h249q111 0 165 -41.5t54 -112.5q0 -62 -43 -110.5t-123 -69.5l102 -251q14 -37 51 -52l10 -3l-5 -21h-172l-105 305h-66q-10 -52 -19.5 -109t-20.5 -118q-7 -39 32 -53l12 -4l-4 -21
h-236zM246 334h53q82 1 122.5 47t40.5 124q0 127 -114 127h-46zM270 726q29 26 59 54.5t58 54.5q23 23 37.5 30.5t33.5 7.5q21 0 33 -13.5t12 -31.5q0 -16 -13.5 -30t-48.5 -28q-41 -16 -80.5 -31.5t-78.5 -30.5z" />
    <glyph glyph-name="racute" unicode="&#x155;" horiz-adv-x="418" 
d="M46 -8l-10 9l75 362q5 24 -3 37.5t-28 20.5l-14 5l3 17l166 53l12 -11l-27 -157q22 46 50 84t58.5 60.5t60.5 22.5t48.5 -16t18.5 -42q0 -28 -16 -45t-43 -17q-42 0 -78 42q-36 -29 -62 -71.5t-49 -91.5l-8 -41q-10 -53 -20.5 -106t-20.5 -107zM288 551q14 41 28 81
t27 80q11 35 28 49t37 14q21 0 37 -13t16 -36q0 -18 -10.5 -34.5t-30.5 -36.5q-29 -30 -57 -58.5t-57 -57.5z" />
    <glyph glyph-name="uni0156" unicode="&#x156;" horiz-adv-x="636" 
d="M4 0l4 21l14 5q40 12 47 53l51 272q10 56 20.5 115t20.5 116q7 41 -32 55l-11 3l5 21h249q111 0 165 -41.5t54 -112.5q0 -62 -43 -110.5t-123 -69.5l102 -251q14 -37 51 -52l10 -3l-5 -21h-172l-105 305h-66q-10 -52 -19.5 -109t-20.5 -118q-7 -39 32 -53l12 -4l-4 -21
h-236zM246 334h53q82 1 122.5 47t40.5 124q0 127 -114 127h-46zM264 -261l-11 19q25 12 42.5 25.5t29.5 35.5q-24 10 -38.5 28t-14.5 39q0 27 17 44t43 17q31 0 46 -18.5t15 -50.5q0 -50 -35 -83.5t-94 -55.5z" />
    <glyph glyph-name="uni0157" unicode="&#x157;" horiz-adv-x="418" 
d="M46 -8l-10 9l75 362q5 24 -3 37.5t-28 20.5l-14 5l3 17l166 53l12 -11l-27 -157q22 46 50 84t58.5 60.5t60.5 22.5t48.5 -16t18.5 -42q0 -28 -16 -45t-43 -17q-42 0 -78 42q-36 -29 -62 -71.5t-49 -91.5l-8 -41q-10 -53 -20.5 -106t-20.5 -107zM16 -261l-11 19
q25 12 42.5 25.5t29.5 35.5q-24 10 -38.5 28t-14.5 39q0 27 17 44t43 17q31 0 46 -18.5t15 -50.5q0 -50 -35 -83.5t-94 -55.5z" />
    <glyph glyph-name="Rcaron" unicode="&#x158;" horiz-adv-x="636" 
d="M4 0l4 21l14 5q40 12 47 53l51 272q10 56 20.5 115t20.5 116q7 41 -32 55l-11 3l5 21h249q111 0 165 -41.5t54 -112.5q0 -62 -43 -110.5t-123 -69.5l102 -251q14 -37 51 -52l10 -3l-5 -21h-172l-105 305h-66q-10 -52 -19.5 -109t-20.5 -118q-7 -39 32 -53l12 -4l-4 -21
h-236zM246 334h53q82 1 122.5 47t40.5 124q0 127 -114 127h-46zM247 880l121 -96l148 98l16 -19l-157 -150h-34l-117 150z" />
    <glyph glyph-name="rcaron" unicode="&#x159;" horiz-adv-x="418" 
d="M46 -8l-10 9l75 362q5 24 -3 37.5t-28 20.5l-14 5l3 17l166 53l12 -11l-27 -157q22 46 50 84t58.5 60.5t60.5 22.5t48.5 -16t18.5 -42q0 -28 -16 -45t-43 -17q-42 0 -78 42q-36 -29 -62 -71.5t-49 -91.5l-8 -41q-10 -53 -20.5 -106t-20.5 -107zM210 760l104 -115l149 113
l19 -18l-164 -184h-38l-94 187z" />
    <glyph glyph-name="Sacute" unicode="&#x15a;" horiz-adv-x="498" 
d="M213 -17q-50 0 -100.5 13t-85.5 35l22 147h27l25 -77q14 -47 40 -67.5t75 -20.5q58 0 92 33t34 82q0 25 -8 47.5t-30 47t-65 55.5q-53 38 -82.5 72.5t-40.5 67.5t-11 66q0 58 30 102t83 68.5t121 24.5q47 0 96 -13t83 -36l-26 -141h-28l-16 65q-13 50 -38 72t-74 22
q-48 0 -83.5 -28t-35.5 -78q0 -41 22.5 -75t80.5 -77q80 -58 110 -105t30 -100q0 -62 -31.5 -107.5t-87 -70t-128.5 -24.5zM271 726q29 26 59 54.5t58 54.5q23 23 37.5 30.5t33.5 7.5q21 0 33 -13.5t12 -31.5q0 -16 -13.5 -30t-48.5 -28q-41 -16 -80.5 -31.5t-78.5 -30.5z
" />
    <glyph glyph-name="sacute" unicode="&#x15b;" horiz-adv-x="401" 
d="M169 -14q-62 0 -100 24.5t-38 68.5q0 24 16 41.5t42 17.5q49 0 61 -59l5 -23q4 -22 12.5 -33.5t29.5 -11.5q26 0 45.5 20.5t19.5 57.5q0 27 -16.5 52t-57.5 56q-40 32 -65 66t-25 82q0 41 21.5 75t61.5 54.5t95 20.5q65 0 101.5 -26t36.5 -65q0 -22 -13.5 -36t-38.5 -14
q-45 0 -63 56l-7 24q-5 19 -13 26.5t-22 7.5q-19 0 -36 -18t-17 -54q0 -35 20.5 -63.5t62.5 -60.5q45 -33 65 -63.5t20 -74.5q0 -61 -53 -104.5t-150 -43.5zM278 551q14 41 28 81t27 80q11 35 28 49t37 14q21 0 37 -13t16 -36q0 -18 -10.5 -34.5t-30.5 -36.5
q-29 -30 -57 -58.5t-57 -57.5z" />
    <glyph glyph-name="Scedilla" unicode="&#x15e;" horiz-adv-x="498" 
d="M213 -17q-50 0 -100.5 13t-85.5 35l22 147h27l25 -77q14 -47 40 -67.5t75 -20.5q58 0 92 33t34 82q0 25 -8 47.5t-30 47t-65 55.5q-53 38 -82.5 72.5t-40.5 67.5t-11 66q0 58 30 102t83 68.5t121 24.5q47 0 96 -13t83 -36l-26 -141h-28l-16 65q-13 50 -38 72t-74 22
q-48 0 -83.5 -28t-35.5 -78q0 -41 22.5 -75t80.5 -77q80 -58 110 -105t30 -100q0 -62 -31.5 -107.5t-87 -70t-128.5 -24.5zM151 -89l43 89h32l-28 -61q50 -15 73 -36.5t23 -54.5q0 -32 -28.5 -55.5t-82.5 -23.5q-28 0 -51 8.5t-37 19.5l12 24q29 -15 60 -15q26 0 41 11.5
t15 33.5q0 26 -20 39.5t-52 20.5z" />
    <glyph glyph-name="scedilla" unicode="&#x15f;" horiz-adv-x="401" 
d="M169 -14q-62 0 -100 24.5t-38 68.5q0 24 16 41.5t42 17.5q49 0 61 -59l5 -23q4 -22 12.5 -33.5t29.5 -11.5q26 0 45.5 20.5t19.5 57.5q0 27 -16.5 52t-57.5 56q-40 32 -65 66t-25 82q0 41 21.5 75t61.5 54.5t95 20.5q65 0 101.5 -26t36.5 -65q0 -22 -13.5 -36t-38.5 -14
q-45 0 -63 56l-7 24q-5 19 -13 26.5t-22 7.5q-19 0 -36 -18t-17 -54q0 -35 20.5 -63.5t62.5 -60.5q45 -33 65 -63.5t20 -74.5q0 -61 -53 -104.5t-150 -43.5zM133 -89l43 89h32l-28 -61q50 -15 73 -36.5t23 -54.5q0 -32 -28.5 -55.5t-82.5 -23.5q-28 0 -51 8.5t-37 19.5
l12 24q29 -15 60 -15q26 0 41 11.5t15 33.5q0 26 -20 39.5t-52 20.5z" />
    <glyph glyph-name="Scaron" unicode="&#x160;" horiz-adv-x="498" 
d="M213 -17q-50 0 -100.5 13t-85.5 35l22 147h27l25 -77q14 -47 40 -67.5t75 -20.5q58 0 92 33t34 82q0 25 -8 47.5t-30 47t-65 55.5q-53 38 -82.5 72.5t-40.5 67.5t-11 66q0 58 30 102t83 68.5t121 24.5q47 0 96 -13t83 -36l-26 -141h-28l-16 65q-13 50 -38 72t-74 22
q-48 0 -83.5 -28t-35.5 -78q0 -41 22.5 -75t80.5 -77q80 -58 110 -105t30 -100q0 -62 -31.5 -107.5t-87 -70t-128.5 -24.5zM248 880l121 -96l148 98l16 -19l-157 -150h-34l-117 150z" />
    <glyph glyph-name="scaron" unicode="&#x161;" horiz-adv-x="401" 
d="M169 -14q-62 0 -100 24.5t-38 68.5q0 24 16 41.5t42 17.5q49 0 61 -59l5 -23q4 -22 12.5 -33.5t29.5 -11.5q26 0 45.5 20.5t19.5 57.5q0 27 -16.5 52t-57.5 56q-40 32 -65 66t-25 82q0 41 21.5 75t61.5 54.5t95 20.5q65 0 101.5 -26t36.5 -65q0 -22 -13.5 -36t-38.5 -14
q-45 0 -63 56l-7 24q-5 19 -13 26.5t-22 7.5q-19 0 -36 -18t-17 -54q0 -35 20.5 -63.5t62.5 -60.5q45 -33 65 -63.5t20 -74.5q0 -61 -53 -104.5t-150 -43.5zM200 760l104 -115l149 113l19 -18l-164 -184h-38l-94 187z" />
    <glyph glyph-name="uni0162" unicode="&#x162;" horiz-adv-x="595" 
d="M134 0l4 21l24 7q45 15 54 62l49 261q12 64 25.5 140t23.5 140h-44q-65 0 -101 -53l-70 -100h-26l38 183h549l-32 -183h-25l-30 91q-19 62 -85 62h-41l-61 -321q-10 -51 -20 -108t-20 -111q-7 -49 39 -66l15 -4l-4 -21h-262zM210 -89l43 89h32l-28 -61q50 -15 73 -36.5
t23 -54.5q0 -32 -28.5 -55.5t-82.5 -23.5q-28 0 -51 8.5t-37 19.5l12 24q29 -15 60 -15q26 0 41 11.5t15 33.5q0 26 -20 39.5t-52 20.5z" />
    <glyph glyph-name="uni0163" unicode="&#x163;" horiz-adv-x="340" 
d="M145 -14q-31 0 -50.5 15.5t-19.5 46.5q0 38 12 92l67 310h-85l4 21l40 4q51 7 84 48l78 94h31l-28 -137h111l-6 -32l-112 2l-66 -320q-4 -18 -6 -31.5t-2 -22.5q0 -10 6 -16t14 -6q21 0 64 43l16 -13q-25 -37 -63.5 -67.5t-88.5 -30.5zM85 -89l43 89h32l-28 -61
q50 -15 73 -36.5t23 -54.5q0 -32 -28.5 -55.5t-82.5 -23.5q-28 0 -51 8.5t-37 19.5l12 24q29 -15 60 -15q26 0 41 11.5t15 33.5q0 26 -20 39.5t-52 20.5z" />
    <glyph glyph-name="Tcaron" unicode="&#x164;" horiz-adv-x="595" 
d="M134 0l4 21l24 7q45 15 54 62l49 261q12 64 25.5 140t23.5 140h-44q-65 0 -101 -53l-70 -100h-26l38 183h549l-32 -183h-25l-30 91q-19 62 -85 62h-41l-61 -321q-10 -51 -20 -108t-20 -111q-7 -49 39 -66l15 -4l-4 -21h-262zM287 880l121 -96l148 98l16 -19l-157 -150
h-34l-117 150z" />
    <glyph glyph-name="tcaron" unicode="&#x165;" horiz-adv-x="343" 
d="M447 755q24 0 33 -11t9 -23q0 -25 -16.5 -59.5t-35.5 -69.5l-42 -74l-42 4l46 223q14 6 24.5 8t23.5 2zM145 -14q-31 0 -50.5 15.5t-19.5 46.5q0 38 12 92l67 310h-85l4 21l40 4q51 7 84 48l78 94h31l-28 -137h111l-6 -32l-112 2l-66 -320q-4 -18 -6 -31.5t-2 -22.5
q0 -10 6 -16t14 -6q21 0 64 43l16 -13q-25 -37 -63.5 -67.5t-88.5 -30.5z" />
    <glyph glyph-name="Umacron" unicode="&#x16a;" horiz-adv-x="627" 
d="M304 -17q-100 0 -161.5 49.5t-61.5 148.5q0 22 3 46t7 49l15 82q9 50 19.5 107.5t20.5 111.5q7 47 -38 61l-8 2l4 21h247l-4 -21l-11 -3q-44 -13 -53 -58l-56 -297q-4 -23 -7 -46.5t-3 -48.5q0 -65 34.5 -101.5t95.5 -36.5q79 0 124.5 51t63.5 146l63 332q9 46 -36 60
l-7 2l4 21h141l-4 -21l-9 -3q-44 -12 -53 -58l-63 -343q-22 -121 -89.5 -187t-177.5 -66zM296 760l8 39h315l-8 -39h-315z" />
    <glyph glyph-name="umacron" unicode="&#x16b;" horiz-adv-x="548" 
d="M136 -14q-33 0 -57 19.5t-24 60.5q0 23 5 51t11 55l43 191q9 41 -29 56l-17 7l2 18l180 52l12 -10l-69 -300q-6 -25 -10 -45t-4 -37q0 -22 10 -31.5t26 -9.5q24 0 52.5 16.5t68.5 52.5l1 5l34 161q8 41 16 81.5t15 81.5l117 35l13 -10l-78 -357q-3 -17 -5.5 -31t-2.5 -23
q0 -10 6 -15.5t13 -5.5q14 0 28.5 10.5t36.5 31.5l15 -15q-25 -35 -62.5 -65t-85.5 -30q-29 0 -49.5 20t-20.5 58q0 15 2 32q-52 -52 -100.5 -81t-92.5 -29zM193 615l7 38h292l-7 -38h-292z" />
    <glyph glyph-name="Uring" unicode="&#x16e;" horiz-adv-x="627" 
d="M304 -17q-100 0 -161.5 49.5t-61.5 148.5q0 22 3 46t7 49l15 82q9 50 19.5 107.5t20.5 111.5q7 47 -38 61l-8 2l4 21h247l-4 -21l-11 -3q-44 -13 -53 -58l-56 -297q-4 -23 -7 -46.5t-3 -48.5q0 -65 34.5 -101.5t95.5 -36.5q79 0 124.5 51t63.5 146l63 332q9 46 -36 60
l-7 2l4 21h141l-4 -21l-9 -3q-44 -12 -53 -58l-63 -343q-22 -121 -89.5 -187t-177.5 -66zM458 700q-37 0 -65.5 22.5t-28.5 63.5q0 51 34 79.5t76 28.5q41 0 67 -23t26 -63q0 -52 -33 -80t-76 -28zM461 731q29 0 46.5 20.5t17.5 52.5q0 26 -13.5 42t-40.5 16
q-28 0 -47 -20.5t-19 -51.5q0 -26 14.5 -42.5t41.5 -16.5z" />
    <glyph glyph-name="uring" unicode="&#x16f;" horiz-adv-x="548" 
d="M136 -14q-33 0 -57 19.5t-24 60.5q0 23 5 51t11 55l43 191q9 41 -29 56l-17 7l2 18l180 52l12 -10l-69 -300q-6 -25 -10 -45t-4 -37q0 -22 10 -31.5t26 -9.5q24 0 52.5 16.5t68.5 52.5l1 5l34 161q8 41 16 81.5t15 81.5l117 35l13 -10l-78 -357q-3 -17 -5.5 -31t-2.5 -23
q0 -10 6 -15.5t13 -5.5q14 0 28.5 10.5t36.5 31.5l15 -15q-25 -35 -62.5 -65t-85.5 -30q-29 0 -49.5 20t-20.5 58q0 15 2 32q-52 -52 -100.5 -81t-92.5 -29zM358 547q-46 0 -77.5 27t-31.5 72q0 39 18 66t47 41.5t60 14.5q44 0 76 -26t32 -71q0 -40 -18 -67.5t-46 -42
t-60 -14.5zM358 579q30 0 50 23.5t20 63.5q0 29 -13.5 50t-42.5 21q-31 0 -50 -25t-19 -62q0 -30 14 -50.5t41 -20.5z" />
    <glyph glyph-name="Uhungarumlaut" unicode="&#x170;" horiz-adv-x="627" 
d="M304 -17q-100 0 -161.5 49.5t-61.5 148.5q0 22 3 46t7 49l15 82q9 50 19.5 107.5t20.5 111.5q7 47 -38 61l-8 2l4 21h247l-4 -21l-11 -3q-44 -13 -53 -58l-56 -297q-4 -23 -7 -46.5t-3 -48.5q0 -65 34.5 -101.5t95.5 -36.5q79 0 124.5 51t63.5 146l63 332q9 46 -36 60
l-7 2l4 21h141l-4 -21l-9 -3q-44 -12 -53 -58l-63 -343q-22 -121 -89.5 -187t-177.5 -66zM326 725l75 126q12 21 26.5 30t30.5 9q17 0 29 -10t12 -27q0 -28 -29 -50l-124 -93zM502 725l73 125q25 40 58 40q17 0 29 -10t12 -27q0 -28 -29 -50l-124 -93z" />
    <glyph glyph-name="uhungarumlaut" unicode="&#x171;" horiz-adv-x="548" 
d="M136 -14q-33 0 -57 19.5t-24 60.5q0 23 5 51t11 55l43 191q9 41 -29 56l-17 7l2 18l180 52l12 -10l-69 -300q-6 -25 -10 -45t-4 -37q0 -22 10 -31.5t26 -9.5q24 0 52.5 16.5t68.5 52.5l1 5l34 161q8 41 16 81.5t15 81.5l117 35l13 -10l-78 -357q-3 -17 -5.5 -31t-2.5 -23
q0 -10 6 -15.5t13 -5.5q14 0 28.5 10.5t36.5 31.5l15 -15q-25 -35 -62.5 -65t-85.5 -30q-29 0 -49.5 20t-20.5 58q0 15 2 32q-52 -52 -100.5 -81t-92.5 -29zM238 572l72 143q17 32 33.5 45t33.5 13q19 0 30.5 -10.5t11.5 -29.5q0 -16 -9 -33.5t-32 -38.5l-120 -104zM397 572
l72 143q17 33 33 45.5t33 12.5q20 0 31.5 -10.5t11.5 -29.5q0 -16 -9 -33.5t-33 -38.5l-119 -104z" />
    <glyph glyph-name="Uogonek" unicode="&#x172;" horiz-adv-x="627" 
d="M304 -17q-100 0 -161.5 49.5t-61.5 148.5q0 22 3 46t7 49l15 82q9 50 19.5 107.5t20.5 111.5q7 47 -38 61l-8 2l4 21h247l-4 -21l-11 -3q-44 -13 -53 -58l-56 -297q-4 -23 -7 -46.5t-3 -48.5q0 -65 34.5 -101.5t95.5 -36.5q79 0 124.5 51t63.5 146l63 332q9 46 -36 60
l-7 2l4 21h141l-4 -21l-9 -3q-44 -12 -53 -58l-63 -343q-22 -121 -89.5 -187t-177.5 -66zM282 -152q0 46 36.5 87t86.5 78h33q-32 -33 -53 -66.5t-21 -68.5q0 -26 14 -40t35 -14q16 0 32.5 6t31.5 15l12 -18q-19 -21 -48.5 -40t-65.5 -19q-46 0 -69.5 23t-23.5 57z" />
    <glyph glyph-name="uogonek" unicode="&#x173;" horiz-adv-x="548" 
d="M136 -14q-33 0 -57 19.5t-24 60.5q0 23 5 51t11 55l43 191q9 41 -29 56l-17 7l2 18l180 52l12 -10l-69 -300q-6 -25 -10 -45t-4 -37q0 -22 10 -31.5t26 -9.5q24 0 52.5 16.5t68.5 52.5l1 5l34 161q8 41 16 81.5t15 81.5l117 35l13 -10l-78 -357q-3 -17 -5.5 -31t-2.5 -23
q0 -10 6 -15.5t13 -5.5q14 0 28.5 10.5t36.5 31.5l15 -15q-25 -35 -62.5 -65t-85.5 -30q-29 0 -49.5 20t-20.5 58q0 15 2 32q-52 -52 -100.5 -81t-92.5 -29zM323 -152q0 46 36.5 87t86.5 78h33q-32 -33 -53 -66.5t-21 -68.5q0 -26 14 -40t35 -14q16 0 32.5 6t31.5 15l12 -18
q-19 -21 -48.5 -40t-65.5 -19q-46 0 -69.5 23t-23.5 57z" />
    <glyph glyph-name="Ydieresis" unicode="&#x178;" horiz-adv-x="568" 
d="M132 0l4 21l24 7q39 10 46 51l37 190l-108 321q-12 36 -46 46l-12 4l4 21h245l-4 -21l-18 -5q-35 -9 -25 -44l82 -273l171 276q8 14 4 25.5t-20 15.5l-17 5l4 21h143l-4 -21l-20 -6q-37 -10 -56 -42l-191 -307q-8 -46 -18.5 -102t-18.5 -106q-8 -38 31 -50l22 -6l-5 -21
h-254zM309 726q-22 0 -39.5 14.5t-17.5 39.5q0 33 21.5 51t46.5 18q24 0 39.5 -15t15.5 -38q0 -32 -20 -51t-46 -19zM536 726q-20 0 -37.5 14.5t-17.5 39.5q0 33 21 51t45 18t40 -15t16 -38q0 -32 -20.5 -51t-46.5 -19z" />
    <glyph glyph-name="Zacute" unicode="&#x179;" horiz-adv-x="542" 
d="M-4 0l5 25l441 606h-153q-34 0 -60 -12t-47 -40l-79 -101h-26l39 183h479l-5 -26l-442 -605h160q41 0 70.5 14.5t53.5 47.5l70 91h27l-39 -183h-494zM280 726q29 26 59 54.5t58 54.5q23 23 37.5 30.5t33.5 7.5q21 0 33 -13.5t12 -31.5q0 -16 -13.5 -30t-48.5 -28
q-41 -16 -80.5 -31.5t-78.5 -30.5z" />
    <glyph glyph-name="zacute" unicode="&#x17a;" horiz-adv-x="487" 
d="M31 -17l-27 26l333 340q-37 7 -77 14.5t-84 14.5q-50 9 -73 -35l-8 -16l-23 3l31 165q84 -14 168 -29.5t155 -26.5l52 54l28 -28l-324 -328q34 -33 79 -52.5t92 -19.5q29 0 51 8q11 5 12 15.5t-8 19.5q-24 19 -32 35t-8 27q0 24 16.5 40t40.5 16q25 0 41 -17t16 -52
q0 -50 -24 -91.5t-65.5 -66.5t-95.5 -25q-41 0 -82.5 20t-68.5 51l-26 28zM311 551q14 41 28 81t27 80q11 35 28 49t37 14q21 0 37 -13t16 -36q0 -18 -10.5 -34.5t-30.5 -36.5q-29 -30 -57 -58.5t-57 -57.5z" />
    <glyph glyph-name="Zdotaccent" unicode="&#x17b;" horiz-adv-x="542" 
d="M-4 0l5 25l441 606h-153q-34 0 -60 -12t-47 -40l-79 -101h-26l39 183h479l-5 -26l-442 -605h160q41 0 70.5 14.5t53.5 47.5l70 91h27l-39 -183h-494zM375 719q-26 0 -43 17t-17 46q0 32 21.5 54t49.5 22q27 0 43.5 -17.5t16.5 -45.5q0 -31 -22 -53.5t-49 -22.5z" />
    <glyph glyph-name="zdotaccent" unicode="&#x17c;" horiz-adv-x="487" 
d="M31 -17l-27 26l333 340q-37 7 -77 14.5t-84 14.5q-50 9 -73 -35l-8 -16l-23 3l31 165q84 -14 168 -29.5t155 -26.5l52 54l28 -28l-324 -328q34 -33 79 -52.5t92 -19.5q29 0 51 8q11 5 12 15.5t-8 19.5q-24 19 -32 35t-8 27q0 24 16.5 40t40.5 16q25 0 41 -17t16 -52
q0 -50 -24 -91.5t-65.5 -66.5t-95.5 -25q-41 0 -82.5 20t-68.5 51l-26 28zM341 604q-25 0 -42.5 17t-17.5 46q0 34 22.5 56.5t50.5 22.5q27 0 44 -17.5t17 -46.5q0 -32 -22.5 -55t-51.5 -23z" />
    <glyph glyph-name="Zcaron" unicode="&#x17d;" horiz-adv-x="542" 
d="M-4 0l5 25l441 606h-153q-34 0 -60 -12t-47 -40l-79 -101h-26l39 183h479l-5 -26l-442 -605h160q41 0 70.5 14.5t53.5 47.5l70 91h27l-39 -183h-494zM257 880l121 -96l148 98l16 -19l-157 -150h-34l-117 150z" />
    <glyph glyph-name="zcaron" unicode="&#x17e;" horiz-adv-x="487" 
d="M31 -17l-27 26l333 340q-37 7 -77 14.5t-84 14.5q-50 9 -73 -35l-8 -16l-23 3l31 165q84 -14 168 -29.5t155 -26.5l52 54l28 -28l-324 -328q34 -33 79 -52.5t92 -19.5q29 0 51 8q11 5 12 15.5t-8 19.5q-24 19 -32 35t-8 27q0 24 16.5 40t40.5 16q25 0 41 -17t16 -52
q0 -50 -24 -91.5t-65.5 -66.5t-95.5 -25q-41 0 -82.5 20t-68.5 51l-26 28zM233 760l104 -115l149 113l19 -18l-164 -184h-38l-94 187z" />
    <glyph glyph-name="uni0218" unicode="&#x218;" horiz-adv-x="498" 
d="M213 -17q-50 0 -100.5 13t-85.5 35l22 147h27l25 -77q14 -47 40 -67.5t75 -20.5q58 0 92 33t34 82q0 25 -8 47.5t-30 47t-65 55.5q-53 38 -82.5 72.5t-40.5 67.5t-11 66q0 58 30 102t83 68.5t121 24.5q47 0 96 -13t83 -36l-26 -141h-28l-16 65q-13 50 -38 72t-74 22
q-48 0 -83.5 -28t-35.5 -78q0 -41 22.5 -75t80.5 -77q80 -58 110 -105t30 -100q0 -62 -31.5 -107.5t-87 -70t-128.5 -24.5zM136 -261l-11 19q25 12 42.5 25.5t29.5 35.5q-24 10 -38.5 28t-14.5 39q0 27 17 44t43 17q31 0 46 -18.5t15 -50.5q0 -50 -35 -83.5t-94 -55.5z" />
    <glyph glyph-name="uni0219" unicode="&#x219;" horiz-adv-x="401" 
d="M169 -14q-62 0 -100 24.5t-38 68.5q0 24 16 41.5t42 17.5q49 0 61 -59l5 -23q4 -22 12.5 -33.5t29.5 -11.5q26 0 45.5 20.5t19.5 57.5q0 27 -16.5 52t-57.5 56q-40 32 -65 66t-25 82q0 41 21.5 75t61.5 54.5t95 20.5q65 0 101.5 -26t36.5 -65q0 -22 -13.5 -36t-38.5 -14
q-45 0 -63 56l-7 24q-5 19 -13 26.5t-22 7.5q-19 0 -36 -18t-17 -54q0 -35 20.5 -63.5t62.5 -60.5q45 -33 65 -63.5t20 -74.5q0 -61 -53 -104.5t-150 -43.5zM73 -261l-11 19q25 12 42.5 25.5t29.5 35.5q-24 10 -38.5 28t-14.5 39q0 27 17 44t43 17q31 0 46 -18.5t15 -50.5
q0 -50 -35 -83.5t-94 -55.5z" />
    <glyph glyph-name="uni021A" unicode="&#x21a;" horiz-adv-x="595" 
d="M134 0l4 21l24 7q45 15 54 62l49 261q12 64 25.5 140t23.5 140h-44q-65 0 -101 -53l-70 -100h-26l38 183h549l-32 -183h-25l-30 91q-19 62 -85 62h-41l-61 -321q-10 -51 -20 -108t-20 -111q-7 -49 39 -66l15 -4l-4 -21h-262zM185 -261l-11 19q25 12 42.5 25.5t29.5 35.5
q-24 10 -38.5 28t-14.5 39q0 27 17 44t43 17q31 0 46 -18.5t15 -50.5q0 -50 -35 -83.5t-94 -55.5z" />
    <glyph glyph-name="uni021B" unicode="&#x21b;" horiz-adv-x="340" 
d="M145 -14q-31 0 -50.5 15.5t-19.5 46.5q0 38 12 92l67 310h-85l4 21l40 4q51 7 84 48l78 94h31l-28 -137h111l-6 -32l-112 2l-66 -320q-4 -18 -6 -31.5t-2 -22.5q0 -10 6 -16t14 -6q21 0 64 43l16 -13q-25 -37 -63.5 -67.5t-88.5 -30.5zM59 -261l-11 19q25 12 42.5 25.5
t29.5 35.5q-24 10 -38.5 28t-14.5 39q0 27 17 44t43 17q31 0 46 -18.5t15 -50.5q0 -50 -35 -83.5t-94 -55.5z" />
    <glyph glyph-name="circumflex" unicode="&#x2c6;" horiz-adv-x="400" 
d="M422 545l-114 111l-147 -112l-17 20l166 186h27l105 -189z" />
    <glyph glyph-name="caron" unicode="&#x2c7;" horiz-adv-x="400" 
d="M180 760l104 -115l149 113l19 -18l-164 -184h-38l-94 187z" />
    <glyph glyph-name="breve" unicode="&#x2d8;" horiz-adv-x="400" 
d="M275 567q-47 0 -76.5 21t-44 56t-15.5 77l27 9q15 -37 43 -60t72 -23q47 0 81.5 22t56.5 61l26 -9q-9 -34 -30 -70t-55 -60t-85 -24z" />
    <glyph glyph-name="dotaccent" unicode="&#x2d9;" horiz-adv-x="400" 
d="M300 604q-25 0 -42.5 17t-17.5 46q0 34 22.5 56.5t50.5 22.5q27 0 44 -17.5t17 -46.5q0 -32 -22.5 -55t-51.5 -23z" />
    <glyph glyph-name="ring" unicode="&#x2da;" horiz-adv-x="400" 
d="M288 551q-46 0 -77.5 27t-31.5 72q0 39 18 66t47 41.5t60 14.5q44 0 76 -26t32 -71q0 -40 -18 -67.5t-46 -42t-60 -14.5zM288 583q30 0 50 23.5t20 63.5q0 29 -13.5 50t-42.5 21q-31 0 -50 -25t-19 -62q0 -30 14 -50.5t41 -20.5z" />
    <glyph glyph-name="ogonek" unicode="&#x2db;" horiz-adv-x="400" 
d="M27 -152q0 46 36.5 87t86.5 78h33q-32 -33 -53 -66.5t-21 -68.5q0 -26 14 -40t35 -14q16 0 32.5 6t31.5 15l12 -18q-19 -21 -48.5 -40t-65.5 -19q-46 0 -69.5 23t-23.5 57z" />
    <glyph glyph-name="tilde" unicode="&#x2dc;" horiz-adv-x="400" 
d="M112 586q16 70 49 103.5t70 33.5q29 0 46 -10t31 -24q15 -13 31 -26.5t37 -13.5q46 0 76 70l20 -9q-16 -73 -47 -105t-69 -32q-28 0 -45 9.5t-31 22.5q-14 14 -30.5 27.5t-39.5 13.5q-47 0 -76 -69z" />
    <glyph glyph-name="hungarumlaut" unicode="&#x2dd;" horiz-adv-x="400" 
d="M101 574l72 143q17 32 33.5 45t33.5 13q19 0 30.5 -10.5t11.5 -29.5q0 -16 -9 -33.5t-32 -38.5l-120 -104zM260 574l72 143q17 33 33 45.5t33 12.5q20 0 31.5 -10.5t11.5 -29.5q0 -16 -9 -33.5t-33 -38.5l-119 -104z" />
    <glyph glyph-name="gravecomb" unicode="&#x300;" 
d="M89 552l-18 -12q-28 29 -57 57t-57 56q-21 20 -31.5 36t-10.5 37q0 23 16 36.5t36 13.5q21 0 38 -15.5t28 -51.5q14 -40 28 -78.5t28 -78.5z" />
    <glyph glyph-name="acutecomb" unicode="&#x301;" 
d="M70 551q14 41 28 81t27 80q11 35 28 49t37 14q21 0 37 -13t16 -36q0 -18 -10.5 -34.5t-30.5 -36.5q-29 -30 -57 -58.5t-57 -57.5z" />
    <glyph glyph-name="uni0302" unicode="&#x302;" 
d="M216 545l-114 111l-147 -112l-17 20l166 186h27l105 -189z" />
    <glyph glyph-name="tildecomb" unicode="&#x303;" 
d="M-80 586q16 70 49 103.5t70 33.5q29 0 46 -10t31 -24q15 -13 31 -26.5t37 -13.5q46 0 76 70l20 -9q-16 -73 -47 -105t-69 -32q-28 0 -45 9.5t-31 22.5q-14 14 -30.5 27.5t-39.5 13.5q-47 0 -76 -69z" />
    <glyph glyph-name="uni0304" unicode="&#x304;" 
d="M-67 622l7 38h292l-7 -38h-292z" />
    <glyph glyph-name="uni0306" unicode="&#x306;" 
d="M83 567q-47 0 -76.5 21t-44 56t-15.5 77l27 9q15 -37 43 -60t72 -23q47 0 81.5 22t56.5 61l26 -9q-9 -34 -30 -70t-55 -60t-85 -24z" />
    <glyph glyph-name="uni0307" unicode="&#x307;" 
d="M100 604q-25 0 -42.5 17t-17.5 46q0 34 22.5 56.5t50.5 22.5q27 0 44 -17.5t17 -46.5q0 -32 -22.5 -55t-51.5 -23z" />
    <glyph glyph-name="uni0308" unicode="&#x308;" 
d="M-9 604q-24 0 -42 15t-18 42q0 34 22.5 53.5t49.5 19.5q25 0 41.5 -15.5t16.5 -40.5q0 -34 -21.5 -54t-48.5 -20zM203 604q-23 0 -40.5 15t-17.5 42q0 34 22 53.5t48 19.5q25 0 42 -15.5t17 -40.5q0 -34 -21.5 -54t-49.5 -20z" />
    <glyph glyph-name="uni030A" unicode="&#x30a;" 
d="M96 551q-46 0 -77.5 27t-31.5 72q0 39 18 66t47 41.5t60 14.5q44 0 76 -26t32 -71q0 -40 -18 -67.5t-46 -42t-60 -14.5zM96 583q30 0 50 23.5t20 63.5q0 29 -13.5 50t-42.5 21q-31 0 -50 -25t-19 -62q0 -30 14 -50.5t41 -20.5z" />
    <glyph glyph-name="uni030B" unicode="&#x30b;" 
d="M-24 574l72 143q17 32 33.5 45t33.5 13q19 0 30.5 -10.5t11.5 -29.5q0 -16 -9 -33.5t-32 -38.5l-120 -104zM135 574l72 143q17 33 33 45.5t33 12.5q20 0 31.5 -10.5t11.5 -29.5q0 -16 -9 -33.5t-33 -38.5l-119 -104z" />
    <glyph glyph-name="uni030C" unicode="&#x30c;" 
d="M-8 760l104 -115l149 113l19 -18l-164 -184h-38l-94 187z" />
    <glyph glyph-name="uni0326" unicode="&#x326;" 
d="M-123 -261l-11 19q25 12 42.5 25.5t29.5 35.5q-24 10 -38.5 28t-14.5 39q0 27 17 44t43 17q31 0 46 -18.5t15 -50.5q0 -50 -35 -83.5t-94 -55.5z" />
    <glyph glyph-name="uni0327" unicode="&#x327;" 
d="M-94 -89l43 89h32l-28 -61q50 -15 73 -36.5t23 -54.5q0 -32 -28.5 -55.5t-82.5 -23.5q-28 0 -51 8.5t-37 19.5l12 24q29 -15 60 -15q26 0 41 11.5t15 33.5q0 26 -20 39.5t-52 20.5z" />
    <glyph glyph-name="uni0328" unicode="&#x328;" 
d="M-138 -152q0 46 36.5 87t86.5 78h33q-32 -33 -53 -66.5t-21 -68.5q0 -26 14 -40t35 -14q16 0 32.5 6t31.5 15l12 -18q-19 -21 -48.5 -40t-65.5 -19q-46 0 -69.5 23t-23.5 57z" />
    <glyph glyph-name="endash" unicode="&#x2013;" horiz-adv-x="534" 
d="M52 232v42h450v-42h-450z" />
    <glyph glyph-name="emdash" unicode="&#x2014;" horiz-adv-x="834" 
d="M52 232v42h750v-42h-750z" />
    <glyph glyph-name="quoteleft" unicode="&#x2018;" horiz-adv-x="274" 
d="M209 462q-33 0 -53 21.5t-20 57.5q0 65 42 111.5t103 77.5l14 -20q-25 -16 -47 -39.5t-34 -51.5l27 -20q16 -12 26 -29.5t10 -34.5q0 -31 -19.5 -52t-48.5 -21z" />
    <glyph glyph-name="quoteright" unicode="&#x2019;" horiz-adv-x="274" 
d="M216 730q33 0 53 -21.5t20 -57.5q0 -65 -42 -111.5t-103 -77.5l-14 20q25 16 47 39.5t34 51.5l-27 20q-16 12 -26 29.5t-10 34.5q0 31 19.5 52t48.5 21z" />
    <glyph glyph-name="quotesinglbase" unicode="&#x201a;" horiz-adv-x="274" 
d="M102 145q33 0 53 -21.5t20 -57.5q0 -65 -42 -111.5t-103 -77.5l-14 20q25 16 47 39.5t34 51.5l-27 20q-16 12 -26 29.5t-10 34.5q0 31 19.5 52t48.5 21z" />
    <glyph glyph-name="quotedblleft" unicode="&#x201c;" horiz-adv-x="478" 
d="M209 462q-33 0 -53 21.5t-20 57.5q0 65 42 111.5t103 77.5l14 -20q-25 -16 -47 -39.5t-34 -51.5l27 -20q16 -12 26 -29.5t10 -34.5q0 -31 -19.5 -52t-48.5 -21zM414 462q-33 0 -53 21.5t-20 57.5q0 65 42 111.5t103 77.5l14 -20q-25 -16 -47 -39.5t-34 -51.5l27 -20
q16 -12 26 -29.5t10 -34.5q0 -31 -19.5 -52t-48.5 -21z" />
    <glyph glyph-name="quotedblright" unicode="&#x201d;" horiz-adv-x="479" 
d="M421 730q33 0 53 -21.5t20 -57.5q0 -65 -42 -111.5t-103 -77.5l-14 20q25 16 47 39.5t34 51.5l-27 20q-16 12 -26 29.5t-10 34.5q0 31 19.5 52t48.5 21zM216 730q33 0 53 -21.5t20 -57.5q0 -65 -42 -111.5t-103 -77.5l-14 20q25 16 47 39.5t34 51.5l-27 20
q-16 12 -26 29.5t-10 34.5q0 31 19.5 52t48.5 21z" />
    <glyph glyph-name="quotedblbase" unicode="&#x201e;" horiz-adv-x="479" 
d="M307 145q33 0 53 -21.5t20 -57.5q0 -65 -42 -111.5t-103 -77.5l-14 20q25 16 47 39.5t34 51.5l-27 20q-16 12 -26 29.5t-10 34.5q0 31 19.5 52t48.5 21zM102 145q33 0 53 -21.5t20 -57.5q0 -65 -42 -111.5t-103 -77.5l-14 20q25 16 47 39.5t34 51.5l-27 20
q-16 12 -26 29.5t-10 34.5q0 31 19.5 52t48.5 21z" />
    <glyph glyph-name="dagger" unicode="&#x2020;" horiz-adv-x="498" 
d="M188 -93q13 122 20.5 200t10.5 115q4 44 11.5 82t23.5 78t45 92l-57 -20q-26 -10 -55 -16.5t-51 -6.5q-53 0 -53 46q0 31 20 47.5t51 16.5q21 0 48 -8t49 -16l51 -23l-10 57q-3 29 -4 53.5t1 48.5q2 29 20.5 46.5t42.5 17.5q23 0 34 -10t11 -37q0 -14 -7.5 -35t-18 -43
t-19.5 -41l-30 -57l54 23q25 9 53.5 16t48.5 7q27 0 41 -12.5t14 -32.5q0 -31 -20 -48t-53 -17q-22 0 -48.5 7.5t-49.5 17.5l-45 19q7 -41 11 -70.5t3 -53.5q-1 -22 -4 -44t-10 -49q-7 -32 -19 -77.5t-31 -111.5t-46 -161h-33z" />
    <glyph glyph-name="daggerdbl" unicode="&#x2021;" horiz-adv-x="498" 
d="M27 125q0 29 20 46t54 17q21 0 48 -7.5t49 -17.5l46 -20q-10 43 -15 71t-5.5 50t3.5 46t12 46t22.5 50t38.5 69l-58 -20q-26 -10 -55 -17t-52 -7q-55 0 -55 46q0 31 21 47.5t52 16.5q22 0 48.5 -8t48.5 -16l51 -22l-9 56q-4 29 -5 53.5t2 48.5q2 29 20.5 46.5t42.5 17.5
q23 0 34 -10t11 -37q0 -14 -7.5 -35t-18 -43t-19.5 -41l-30 -56l53 21q25 10 53.5 17t48.5 7q28 0 42 -12.5t14 -32.5q0 -31 -20 -48t-54 -17q-21 0 -48 7.5t-49 17.5l-45 19q9 -41 14 -68.5t5 -49t-4 -46.5q-4 -24 -12 -46.5t-22.5 -51t-37.5 -69.5l58 20q26 9 55.5 16.5
t51.5 7.5q54 0 54 -46q0 -31 -20.5 -47.5t-51.5 -16.5q-22 0 -48.5 8t-49.5 17l-51 22l11 -57q3 -28 4 -53t-2 -49q-1 -29 -20 -46.5t-43 -17.5q-22 0 -33.5 10.5t-11.5 36.5q0 14 7.5 35t18 43.5t18.5 40.5l31 57l-54 -22q-24 -10 -52.5 -17t-48.5 -7q-28 0 -42 12.5
t-14 34.5z" />
    <glyph glyph-name="bullet" unicode="&#x2022;" horiz-adv-x="317" 
d="M182 221q-48 0 -78.5 30.5t-30.5 74.5q0 38 19 67.5t48.5 46.5t62.5 17q47 0 78 -30.5t31 -74.5q0 -38 -18.5 -68t-48 -46.5t-63.5 -16.5z" />
    <glyph glyph-name="ellipsis" unicode="&#x2026;" horiz-adv-x="925" 
d="M127 -13q-33 0 -54 21t-21 51q0 37 27 62t62 25q33 0 53.5 -21.5t20.5 -51.5q0 -37 -26.5 -61.5t-61.5 -24.5zM436 -13q-33 0 -54 21t-21 51q0 37 27 62t62 25q33 0 53.5 -21.5t20.5 -51.5q0 -37 -26.5 -61.5t-61.5 -24.5zM745 -13q-33 0 -54 21t-21 51q0 37 27 62t62 25
q33 0 53.5 -21.5t20.5 -51.5q0 -37 -26.5 -61.5t-61.5 -24.5z" />
    <glyph glyph-name="perthousand" unicode="&#x2030;" horiz-adv-x="1233" 
d="M238 -19l-32 23l478 651l31 -24zM202 240q-55 0 -90 35.5t-35 106.5q0 77 27 137.5t72.5 95.5t98.5 35q58 0 89 -37.5t31 -105.5q0 -81 -27 -141t-71 -93t-95 -33zM203 262q20 0 38.5 26.5t33.5 68t24 90t9 91.5q0 52 -10.5 70t-26.5 18q-19 0 -37.5 -23t-34 -62
t-25 -87.5t-9.5 -99.5q0 -55 11 -73.5t27 -18.5zM647 -8q-55 0 -90 35.5t-35 106.5q0 77 27 137.5t72.5 95.5t98.5 35q58 0 89 -37.5t31 -105.5q0 -81 -27 -141t-71 -93t-95 -33zM648 14q20 0 38.5 26.5t33.5 68t24 90t9 91.5q0 52 -10.5 70t-26.5 18q-19 0 -37.5 -23
t-34 -62t-25 -87.5t-9.5 -99.5q0 -55 11 -73.5t27 -18.5zM1000 -8q-55 0 -90 35.5t-35 106.5q0 77 27 137.5t72.5 95.5t98.5 35q58 0 89 -37.5t31 -105.5q0 -81 -27 -141t-71 -93t-95 -33zM1001 14q20 0 38.5 26.5t33.5 68t24 90t9 91.5q0 52 -10.5 70t-26.5 18
q-19 0 -37.5 -23t-34 -62t-25 -87.5t-9.5 -99.5q0 -55 11 -73.5t27 -18.5z" />
    <glyph glyph-name="guilsinglleft" unicode="&#x2039;" horiz-adv-x="371" 
d="M267 37l-196 199l6 35l252 197l16 -19l-181 -196l125 -198z" />
    <glyph glyph-name="guilsinglright" unicode="&#x203a;" horiz-adv-x="371" 
d="M137 468l196 -199l-6 -35l-252 -197l-16 19l181 196l-125 198z" />
    <glyph glyph-name="fraction" unicode="&#x2044;" horiz-adv-x="113" 
d="M-136 -19l-32 23l478 651l31 -24z" />
    <glyph glyph-name="uni2074" unicode="&#x2074;" horiz-adv-x="344" 
d="M223 404l20 100h-164l10 55l235 256h63l-52 -256h63l-11 -55h-63l-20 -100h-81zM116 559h138l38 191z" />
    <glyph glyph-name="Euro" unicode="&#x20ac;" horiz-adv-x="535" 
d="M18 241l6 30h62q3 57 17 109h-56l6 30h59q24 73 68 127t103 83.5t128 29.5q82 0 123.5 -38t41.5 -97q0 -28 -15.5 -44.5t-41.5 -16.5q-25 0 -39 17t-18 58l-4 40q-6 51 -49 51q-58 0 -107 -58.5t-75 -151.5h209l-6 -30h-211q-12 -53 -16 -109h204l-6 -30h-200v-20
q0 -103 32 -155t82 -52q27 0 37 14t17 40l8 31q10 37 27 51.5t40 14.5q25 0 39 -16t14 -44q0 -33 -26 -61t-69 -44.5t-95 -16.5q-105 0 -163.5 68t-58.5 186v4h-67z" />
    <glyph glyph-name="uni20BD" unicode="&#x20bd;" horiz-adv-x="535" 
d="M31 0l4 20l21 6q36 10 43 47l15 73h-82l6 29h83l19 89h-84l6 30h84l52 268q8 39 -31 51l-12 3l4 20h194q105 0 156 -44.5t51 -120.5q0 -36 -15.5 -72.5t-49 -67t-86 -49t-127.5 -18.5h-21q-4 -21 -8.5 -43.5t-9.5 -45.5h170l-6 -29h-170q-4 -19 -7 -37t-7 -38
q-6 -33 26 -42l30 -9l-4 -20h-244zM267 294h19q54 0 89.5 26.5t53.5 68t18 85.5q0 131 -104 134h-10q-14 -64 -30 -139.5t-36 -174.5z" />
    <glyph glyph-name="trademark" unicode="&#x2122;" horiz-adv-x="769" 
d="M375 366l3 14l19 11q25 3 31 29l43 186q6 26 -22 29l-9 11l4 15h109l41 -196l114 196h113l-3 -15l-11 -8q-27 -3 -31 -30l-27 -188q-5 -28 24 -31l5 -9l-2 -14h-159l3 14l10 9q28 3 33 32l22 153l-124 -208h-27l-49 205l-34 -151q-5 -27 21 -30l12 -10l-3 -14h-106z
M125 366l2 14l12 12q32 3 38 34l39 216h-17q-33 0 -43 -31l-28 -36h-21l17 86h279l-16 -86h-20l-15 32q2 35 -33 35h-17l-40 -219q-5 -29 24 -32l8 -11l-3 -14h-166z" />
    <glyph glyph-name="estimated" unicode="&#x212e;" horiz-adv-x="800" 
d="M400 -12q-73 0 -137.5 26t-113 72t-76 107t-27.5 131t27.5 131t76 107t113 72t137.5 26q74 0 138 -26t112.5 -72t76 -107t27.5 -131v-8h-574q-4 0 -4 -4v-184q0 -6 2.5 -10.5t5.5 -9.5q41 -46 97.5 -73t120.5 -27q68 0 127 30.5t101 81.5h52q-49 -60 -122.5 -96
t-159.5 -36zM180 334h440q6 0 6 6v184q0 12 -10 22q-42 44 -97 69t-117 25q-64 0 -120 -26.5t-98 -71.5q-3 -4 -5.5 -10t-2.5 -12v-180q0 -6 4 -6z" />
    <glyph glyph-name="minus" unicode="&#x2212;" horiz-adv-x="540" 
d="M61 307v36h452v-36h-452z" />
    <glyph glyph-name="uni2215" unicode="&#x2215;" horiz-adv-x="420" 
d="M18 -19l-32 23l478 651l31 -24z" />
    <glyph glyph-name="uni2219" unicode="&#x2219;" horiz-adv-x="540" 
d="M296 250q-33 0 -54 21t-21 51q0 37 27 62t62 25q33 0 53.5 -21.5t20.5 -51.5q0 -37 -26.5 -61.5t-61.5 -24.5z" />
    <glyph glyph-name="approxequal" unicode="&#x2248;" horiz-adv-x="540" 
d="M312 244q32 -27 49 -37t37 -10q21 0 40.5 19t25.5 71l35 -4q-2 -83 -34 -119.5t-82 -36.5q-28 0 -54.5 13.5t-58.5 39.5q-31 28 -48 38t-33 10q-26 0 -46 -19t-26 -72l-35 4q2 83 34 119.5t83 36.5q29 0 55.5 -13.5t57.5 -39.5zM312 484q32 -27 49 -37t37 -10
q21 0 40.5 19t25.5 71l35 -4q-2 -83 -34 -119.5t-82 -36.5q-28 0 -54.5 13.5t-58.5 39.5q-31 28 -48 38t-33 10q-26 0 -46 -19t-26 -72l-35 4q2 83 34 119.5t83 36.5q29 0 55.5 -13.5t57.5 -39.5z" />
    <glyph glyph-name="notequal" unicode="&#x2260;" horiz-adv-x="540" 
d="M148 45l-29 15l81 144h-139v36h159l95 170h-254v36h274l89 159l28 -16l-80 -143h141v-36h-161l-95 -170h256v-36h-276z" />
    <glyph glyph-name="lessequal" unicode="&#x2264;" horiz-adv-x="540" 
d="M461 126l-388 191v33l388 191l17 -35l-353 -173l353 -173zM56 0v35h447v-35h-447z" />
    <glyph glyph-name="greaterequal" unicode="&#x2265;" horiz-adv-x="540" 
d="M113 126l388 191v33l-388 191l-17 -35l353 -173l-353 -173zM518 0v35h-447v-35h447z" />
    <glyph glyph-name="f_b" horiz-adv-x="821" 
d="M-49 -241q-40 0 -72.5 18t-32.5 52q0 25 16.5 39.5t38.5 14.5q23 0 42 -12t35 -40l7 -16q8 -12 17 -12.5t16 11.5q4 8 8 17t9 22q14 33 25.5 81t21.5 109q15 98 29.5 199t30.5 209h-83l4 20l41 5q24 2 36 16t19 39q27 87 87 133t147 46q49 0 79 -20.5t30 -53.5
q0 -25 -16.5 -40.5t-39.5 -15.5q-44 0 -78 60l-4 11q-9 18 -21 18.5t-20 -13.5q-19 -22 -33 -64t-26 -112h122l-6 -32l-121 2q-15 -103 -30.5 -207t-33.5 -200q-14 -75 -37 -130t-61 -93q-31 -31 -68.5 -46t-77.5 -15zM477 -14q-47 0 -76.5 25.5t-29.5 77.5q0 36 8 79t17 88
l62 309q8 43 -33 55l-17 6l3 17l186 54l9 -8l-66 -309q41 52 91.5 83.5t94.5 31.5t72 -30.5t28 -102.5q0 -56 -20 -110.5t-54.5 -102.5t-79 -84.5t-94.5 -57.5t-101 -21zM485 85q0 -25 11.5 -41t33.5 -16q53 0 102 61q21 26 37.5 64t26 81.5t9.5 83.5q0 51 -15 76.5
t-41 25.5q-25 0 -53.5 -19.5t-60.5 -54.5l-25 -114q-12 -55 -18.5 -90.5t-6.5 -56.5z" />
    <glyph glyph-name="f_h" horiz-adv-x="859" 
d="M-49 -241q-40 0 -72.5 18t-32.5 52q0 25 16.5 39.5t38.5 14.5q23 0 42 -12t35 -40l7 -16q8 -12 17 -12.5t16 11.5q4 8 8 17t9 22q14 33 25.5 81t21.5 109q15 98 29.5 199t30.5 209h-83l4 20l41 5q24 2 36 16t19 39q27 87 87 133t147 46q49 0 79 -20.5t30 -53.5
q0 -25 -16.5 -40.5t-39.5 -15.5q-44 0 -78 60l-4 11q-9 18 -21 18.5t-20 -13.5q-19 -22 -33 -64t-26 -112h122l-6 -32l-121 2q-15 -103 -30.5 -207t-33.5 -200q-14 -75 -37 -130t-61 -93q-31 -31 -68.5 -46t-77.5 -15zM355 -7l-8 8l92 440q7 35 12.5 64.5t12.5 65.5
q8 43 -35 55l-14 5l3 17l183 54l9 -8l-67 -316q50 51 106 84t103 33q32 0 52 -19.5t20 -59.5q0 -22 -4 -44.5t-10 -46.5l-49 -198q-4 -19 -7.5 -32.5t-3.5 -21.5q0 -21 17 -21q25 0 68 41l13 -13q-24 -35 -64 -64.5t-90 -29.5q-32 0 -49.5 15t-17.5 41q0 21 5 42.5t11 46.5
l44 173q7 26 12 48t5 38q0 36 -32 36q-51 0 -133 -79l-29 -134q-13 -60 -22.5 -110t-17.5 -103z" />
    <glyph glyph-name="f_j" horiz-adv-x="584" 
d="M-49 -241q-25 0 -49.5 8t-40 23.5t-15.5 38.5t15 38.5t40 15.5q48 0 76 -50l11 -24q5 -8 12.5 -8.5t13.5 7.5q5 9 10 19.5t11 26.5q14 33 25.5 80.5t21.5 108.5q15 95 29.5 199t30.5 210h-83l4 19l36 4q25 3 39.5 15.5t23.5 36.5q35 89 107.5 136t182.5 47
q62 0 99.5 -20.5t37.5 -54.5q0 -27 -16 -40.5t-39 -13.5q-46 0 -75 56l-7 14q-18 33 -47 29q-34 -1 -62.5 -28t-48.5 -71.5t-30 -100.5h181q22 0 40 2.5t39 7.5l28 6l12 -10l-86 -436q-30 -148 -101 -218q-28 -31 -65.5 -49.5t-85.5 -22.5l-5 19q24 10 43 22t33 36
q19 30 34 80t30 133l74 398l-176 3q-14 -101 -30 -207t-34 -201q-14 -75 -37 -130t-61 -93q-31 -31 -69.5 -46t-76.5 -15z" />
    <glyph glyph-name="f_k" horiz-adv-x="801" 
d="M-49 -241q-40 0 -72.5 18t-32.5 52q0 25 16.5 39.5t38.5 14.5q23 0 42 -12t35 -40l7 -16q8 -12 17 -12.5t16 11.5q4 8 8 17t9 22q14 33 25.5 81t21.5 109q15 98 29.5 199t30.5 209h-83l4 20l41 5q24 2 36 16t19 39q27 87 87 133t147 46q49 0 79 -20.5t30 -53.5
q0 -25 -16.5 -40.5t-39.5 -15.5q-44 0 -78 60l-4 11q-9 18 -21 18.5t-20 -13.5q-19 -22 -33 -64t-26 -112h122l-6 -32l-121 2q-15 -103 -30.5 -207t-33.5 -200q-14 -75 -37 -130t-61 -93q-31 -31 -68.5 -46t-77.5 -15zM359 -8l-13 10l92 439q7 34 13 65.5t12 64.5
q6 42 -33 54l-16 5l3 18l184 54l8 -9l-100 -480q-13 -60 -22 -110t-18 -103zM630 0q-13 14 -25 40t-22 50l-64 162l251 237q26 -1 44 -16t18 -43q0 -25 -20 -42t-50 -32l-192 -97l164 -203q18 -23 43 -35l8 -4l-3 -17h-152z" />
    <glyph glyph-name="a.sups" horiz-adv-x="379" 
d="M176 406q-26 0 -47.5 20t-21.5 69q0 44 20.5 87t53.5 79t71 57.5t74 21.5q15 0 27.5 -5.5t23.5 -14.5l43 23l11 -8l-52 -229q-5 -20 -5 -29q0 -14 14 -14q10 0 23.5 11.5t29.5 30.5l19 -13q-18 -31 -49 -58.5t-68 -27.5q-22 0 -35.5 14t-13.5 42v11q-28 -30 -59 -48.5
t-59 -18.5zM190 527q0 -31 11 -44.5t28 -13.5q15 0 32 10t38 29l1 6l37 169q-19 9 -38 9q-25 0 -50 -22.5t-42 -60t-17 -82.5z" />
    <glyph glyph-name="o.sups" horiz-adv-x="355" 
d="M234 406q-52 0 -88.5 30t-36.5 93q0 56 25 104t67.5 77.5t96.5 29.5q53 0 88.5 -30t35.5 -93q0 -55 -24.5 -103t-67 -78t-96.5 -30zM242 440q29 0 50.5 29t33.5 73.5t12 89.5q0 42 -13.5 58t-35.5 16q-28 0 -50 -29t-34 -72.5t-12 -88.5q0 -43 14 -59.5t35 -16.5z" />
    <glyph glyph-name="zero.sups" horiz-adv-x="362" 
d="M238 408q-55 0 -90 35.5t-35 106.5q0 77 27 137.5t72.5 95.5t98.5 35q58 0 89 -37.5t31 -105.5q0 -81 -27 -141t-71 -93t-95 -33zM239 430q20 0 38.5 26.5t33.5 68t24 90t9 91.5q0 52 -10.5 70t-26.5 18q-19 0 -37.5 -23t-34 -62t-25 -87.5t-9.5 -99.5q0 -55 11 -73.5
t27 -18.5z" />
    <glyph glyph-name="uni0308.cap" 
d="M7 726q-22 0 -39.5 14.5t-17.5 39.5q0 33 21.5 51t46.5 18q24 0 39.5 -15t15.5 -38q0 -32 -20 -51t-46 -19zM234 726q-20 0 -37.5 14.5t-17.5 39.5q0 33 21 51t45 18t40 -15t16 -38q0 -32 -20.5 -51t-46.5 -19z" />
    <glyph glyph-name="uni0307.cap" 
d="M125 719q-26 0 -43 17t-17 46q0 32 21.5 54t49.5 22q27 0 43.5 -17.5t16.5 -45.5q0 -31 -22 -53.5t-49 -22.5z" />
    <glyph glyph-name="gravecomb.cap" 
d="M154 731l-13 -19q-37 16 -74.5 31t-74.5 31q-34 15 -45 30.5t-11 29.5q0 18 14 31.5t35 13.5q16 0 30 -8.5t36 -31.5q24 -25 51 -53.5t52 -54.5z" />
    <glyph glyph-name="acutecomb.cap" 
d="M30 726q29 26 59 54.5t58 54.5q23 23 37.5 30.5t33.5 7.5q21 0 33 -13.5t12 -31.5q0 -16 -13.5 -30t-48.5 -28q-41 -16 -80.5 -31.5t-78.5 -30.5z" />
    <glyph glyph-name="uni030B.cap" 
d="M-8 725l75 126q12 21 26.5 30t30.5 9q17 0 29 -10t12 -27q0 -28 -29 -50l-124 -93zM168 725l73 125q25 40 58 40q17 0 29 -10t12 -27q0 -28 -29 -50l-124 -93z" />
    <glyph glyph-name="uni0302.cap" 
d="M153 869l121 -155l-15 -15l-128 85l-156 -85l-12 17l165 153h25z" />
    <glyph glyph-name="uni030C.cap" 
d="M5 880l121 -96l148 98l16 -19l-157 -150h-34l-117 150z" />
    <glyph glyph-name="uni0306.cap" 
d="M113 715q-58 0 -94 36.5t-47 95.5l24 12q16 -31 50.5 -50.5t77.5 -19.5q44 0 78 19t59 51l23 -11q-12 -33 -34 -63.5t-55.5 -50t-81.5 -19.5z" />
    <glyph glyph-name="uni030A.cap" 
d="M125 703q-37 0 -65.5 22.5t-28.5 63.5q0 51 34 79.5t76 28.5q41 0 67 -23t26 -63q0 -52 -33 -80t-76 -28zM128 734q29 0 46.5 20.5t17.5 52.5q0 26 -13.5 42t-40.5 16q-28 0 -47 -20.5t-19 -51.5q0 -26 14.5 -42.5t41.5 -16.5z" />
    <glyph glyph-name="tildecomb.cap" 
d="M-59 724q20 68 53.5 101.5t75.5 33.5q29 0 46 -10t33 -24q16 -15 30.5 -29.5t36.5 -14.5q24 0 44 16.5t39 57.5l21 -9q-20 -72 -52 -103.5t-75 -31.5q-27 0 -45 10t-33 23q-16 14 -31 29.5t-38 15.5q-25 0 -44.5 -16.5t-38.5 -57.5z" />
    <glyph glyph-name="uni0304.cap" 
d="M-38 760l8 39h315l-8 -39h-315z" />
    </font>
</defs>
</svg>
